<svg width="41" height="23" viewBox="0 0 41 23" fill="none" xmlns="http://www.w3.org/2000/svg">
<path d="M39.6759 21.4787H37.8042V12.0425H37.8756C37.9568 12.0425 38.0346 12.0102 38.092 11.9526C38.1494 11.895 38.1816 11.8168 38.1816 11.7353C38.1817 11.657 38.1514 11.5816 38.0971 11.5253C38.0429 11.4689 37.969 11.4359 37.8909 11.4333C37.9195 11.2638 37.9195 11.0907 37.8909 10.9213C37.8663 10.7527 37.8085 10.5908 37.7209 10.4449C37.6334 10.299 37.5178 10.172 37.3809 10.0713L36.3405 9.2675V8.87326C36.3405 8.79179 36.3083 8.71365 36.2509 8.65604C36.1935 8.59843 36.1157 8.56606 36.0345 8.56606C35.9534 8.56606 35.8755 8.59843 35.8182 8.65604C35.7608 8.71365 35.7285 8.79179 35.7285 8.87326V9.27262L34.7391 10.056C34.6012 10.1556 34.4849 10.2823 34.3973 10.4284C34.3096 10.5745 34.2524 10.7369 34.2291 10.9059C34.1973 11.0751 34.1973 11.2487 34.2291 11.4179H34.1577C34.0766 11.4179 33.9987 11.4503 33.9414 11.5079C33.884 11.5655 33.8517 11.6436 33.8517 11.7251C33.8517 11.8066 33.884 11.8847 33.9414 11.9423C33.9987 11.9999 34.0766 12.0323 34.1577 12.0323H34.3209V13.6195H29.94V12.0323H30.0165C30.0977 12.0323 30.1755 11.9999 30.2329 11.9423C30.2903 11.8847 30.3225 11.8066 30.3225 11.7251C30.3213 11.6463 30.2899 11.5709 30.2348 11.5147C30.1797 11.4585 30.1052 11.4256 30.0267 11.423C30.0553 11.2536 30.0553 11.0805 30.0267 10.911C29.9753 10.5712 29.7919 10.2656 29.5167 10.0611L28.4763 9.2675V8.87326C28.4763 8.79179 28.4441 8.71365 28.3867 8.65604C28.3293 8.59843 28.2515 8.56606 28.1703 8.56606C28.0892 8.56606 28.0113 8.59843 27.954 8.65604C27.8966 8.71365 27.8643 8.79179 27.8643 8.87326V9.27262L26.8749 10.056C26.737 10.1556 26.6207 10.2823 26.5331 10.4284C26.4454 10.5745 26.3882 10.7369 26.3649 10.9059C26.3331 11.0751 26.3331 11.2487 26.3649 11.4179H26.2884C26.2073 11.4179 26.1294 11.4503 26.0721 11.5079C26.0147 11.5655 25.9824 11.6436 25.9824 11.7251C25.9824 11.8066 26.0147 11.8847 26.0721 11.9423C26.1294 11.9999 26.2073 12.0323 26.2884 12.0323H26.4516V12.5085H26.3445L25.0083 11.5766C25.0083 11.5766 25.0083 11.5766 25.0083 11.5408V10.7881C25.0115 10.5427 24.9267 10.3043 24.7694 10.1163C24.6122 9.92838 24.3929 9.8034 24.1515 9.76414C24.1592 9.73044 24.1592 9.69544 24.1515 9.66174V8.17182C24.2297 8.16776 24.303 8.13278 24.3555 8.07454C24.5991 7.79825 24.7793 7.47161 24.8833 7.11772C24.9873 6.76383 25.0126 6.39132 24.9573 6.02654C24.9079 5.70291 24.7971 5.39179 24.6309 5.11006C24.6309 5.11006 24.6309 5.07934 24.6309 5.06398V4.03998C24.6316 3.99945 24.6242 3.95919 24.6091 3.92161C24.5939 3.88402 24.5714 3.84988 24.5429 3.82122C24.5143 3.79255 24.4803 3.76995 24.4429 3.75476C24.4054 3.73956 24.3653 3.73209 24.3249 3.73278C24.2438 3.73278 24.1659 3.76515 24.1086 3.82276C24.0512 3.88037 24.0189 3.95851 24.0189 4.03998V4.43422C23.9437 4.37382 23.8654 4.31743 23.7843 4.26526L21.5199 2.78558V1.50558C21.5186 1.24983 21.4164 1.00501 21.2358 0.824637C21.0552 0.644268 20.8108 0.543019 20.556 0.543023H20.454C20.327 0.541672 20.201 0.565535 20.0832 0.61324C19.9654 0.660945 19.8582 0.731551 19.7677 0.821001C19.6771 0.91045 19.6051 1.01698 19.5557 1.13446C19.5064 1.25195 19.4806 1.37807 19.4799 1.50558V2.78558L17.1339 4.23966C17.0523 4.29598 16.9707 4.3523 16.8942 4.41374V4.01438C16.8942 3.93291 16.862 3.85477 16.8046 3.79716C16.7472 3.73955 16.6694 3.70718 16.5882 3.70718C16.5071 3.70718 16.4292 3.73955 16.3719 3.79716C16.3145 3.85477 16.2822 3.93291 16.2822 4.01438V5.03838C16.2798 5.05365 16.2798 5.0692 16.2822 5.08446C16.1144 5.36541 16.0035 5.67686 15.9558 6.00094C15.9006 6.36573 15.9259 6.73823 16.0299 7.09212C16.1339 7.44601 16.314 7.77265 16.5576 8.04894C16.6101 8.10718 16.6835 8.14216 16.7616 8.14622V9.64638C16.754 9.68008 16.754 9.71508 16.7616 9.74878C16.5212 9.78914 16.3031 9.9146 16.1469 10.1024C15.9907 10.2903 15.9066 10.5281 15.9099 10.7728V11.5357C15.9099 11.5357 15.9099 11.5357 15.9099 11.5715L14.5737 12.5033H14.4666V12.0272H14.5431C14.6243 12.0272 14.7021 11.9948 14.7595 11.9372C14.8169 11.8796 14.8491 11.8015 14.8491 11.72C14.8479 11.6411 14.8165 11.5658 14.7614 11.5096C14.7063 11.4533 14.6318 11.4205 14.5533 11.4179C14.5845 11.2487 14.5845 11.0751 14.5533 10.9059C14.5019 10.5661 14.3185 10.2605 14.0433 10.056L13.0437 9.2675V8.87326C13.0437 8.79179 13.0115 8.71365 12.9541 8.65604C12.8967 8.59843 12.8189 8.56606 12.7377 8.56606C12.6566 8.56606 12.5787 8.59843 12.5214 8.65604C12.464 8.71365 12.4317 8.79179 12.4317 8.87326V9.27262L11.4423 10.056C11.3053 10.1564 11.1895 10.2834 11.102 10.4293C11.0144 10.5753 10.9567 10.7373 10.9323 10.9059C10.9005 11.0751 10.9005 11.2487 10.9323 11.4179H10.8558C10.7747 11.4179 10.6968 11.4503 10.6395 11.5079C10.5821 11.5655 10.5498 11.6436 10.5498 11.7251C10.5498 11.8066 10.5821 11.8847 10.6395 11.9423C10.6968 11.9999 10.7747 12.0323 10.8558 12.0323H11.019V13.6195H6.64324V12.0323H6.76054C6.84169 12.0323 6.91953 11.9999 6.97691 11.9423C7.0343 11.8847 7.06654 11.8066 7.06654 11.7251C7.06654 11.6436 7.0343 11.5655 6.97691 11.5079C6.91953 11.4503 6.84169 11.4179 6.76054 11.4179H6.72994C6.76181 11.2487 6.76181 11.0751 6.72994 10.9059C6.70555 10.7373 6.64788 10.5753 6.56031 10.4293C6.47273 10.2834 6.35701 10.1564 6.21994 10.056L5.19994 9.2675V8.87326C5.19994 8.79179 5.1677 8.71365 5.11031 8.65604C5.05293 8.59843 4.97509 8.56606 4.89394 8.56606C4.81278 8.56606 4.73495 8.59843 4.67756 8.65604C4.62018 8.71365 4.58794 8.79179 4.58794 8.87326V9.27262L3.59344 10.056C3.31823 10.2605 3.13487 10.5661 3.08344 10.9059C3.05401 11.0753 3.05401 11.2485 3.08344 11.4179H3.05284C2.97168 11.4179 2.89385 11.4503 2.83646 11.5079C2.77908 11.5655 2.74684 11.6436 2.74684 11.7251C2.74684 11.8066 2.77908 11.8847 2.83646 11.9423C2.89385 11.9999 2.97168 12.0323 3.05284 12.0323H3.17014V21.4787H1.32394C1.28079 21.4731 1.23694 21.4767 1.19531 21.4895C1.15369 21.5022 1.11525 21.5237 1.08256 21.5525C1.04987 21.5814 1.02368 21.6169 1.00574 21.6567C0.987796 21.6965 0.978516 21.7397 0.978516 21.7833C0.978516 21.827 0.987796 21.8702 1.00574 21.91C1.02368 21.9498 1.04987 21.9853 1.08256 22.0141C1.11525 22.043 1.15369 22.0645 1.19531 22.0772C1.23694 22.0899 1.28079 22.0936 1.32394 22.088H39.6759C39.7191 22.0936 39.7629 22.0899 39.8046 22.0772C39.8462 22.0645 39.8846 22.043 39.9173 22.0141C39.95 21.9853 39.9762 21.9498 39.9941 21.91C40.0121 21.8702 40.0214 21.827 40.0214 21.7833C40.0214 21.7397 40.0121 21.6965 39.9941 21.6567C39.9762 21.6169 39.95 21.5814 39.9173 21.5525C39.8846 21.5237 39.8462 21.5022 39.8046 21.4895C39.7629 21.4767 39.7191 21.4731 39.6759 21.4787ZM9.14734 20.3267V19.5587C9.14734 19.4772 9.1151 19.3991 9.05771 19.3415C9.00033 19.2839 8.92249 19.2515 8.84134 19.2515C8.76018 19.2515 8.68235 19.2839 8.62496 19.3415C8.56758 19.3991 8.53534 19.4772 8.53534 19.5587V20.3267H6.64324V18.2787H11.0598V20.3267H9.14734ZM5.22544 20.3267V19.5587C5.22544 19.4772 5.1932 19.3991 5.13581 19.3415C5.07843 19.2839 5.00059 19.2515 4.91944 19.2515C4.83828 19.2515 4.76045 19.2839 4.70306 19.3415C4.64568 19.3991 4.61344 19.4772 4.61344 19.5587V20.3267H3.80764V18.2787H6.03124V20.3267H5.22544ZM14.7114 13.1587H19.5513C19.5435 13.2285 19.5435 13.2989 19.5513 13.3686V13.6553H14.0484V13.1587H14.7114ZM26.9514 13.1587V13.6707H21.4791V13.384C21.4768 13.3131 21.4666 13.2427 21.4485 13.1741H26.9565L26.9514 13.1587ZM36.0753 19.3027C35.9942 19.3027 35.9163 19.3351 35.859 19.3927C35.8016 19.4503 35.7693 19.5284 35.7693 19.6099V20.3267H34.9686V18.2787H37.1922V20.3267H36.3864V19.5587C36.3864 19.4772 36.3542 19.3991 36.2968 19.3415C36.2394 19.2839 36.1616 19.2515 36.0804 19.2515L36.0753 19.3027ZM32.4645 20.3267V19.5587C32.4645 19.4772 32.4323 19.3991 32.3749 19.3415C32.3175 19.2839 32.2397 19.2515 32.1585 19.2515C32.0774 19.2515 31.9995 19.2839 31.9422 19.3415C31.8848 19.3991 31.8525 19.4772 31.8525 19.5587V20.3267H29.94V18.2787H34.3566V20.3267H32.4645ZM28.1499 20.3267H27.1299V18.2787H29.3535V20.3267H28.1499ZM17.7204 14.2441V15.1094H15.6345V14.2441H17.7204ZM18.8475 14.2441V15.4115V16.9475V19.2003H18.3375V14.2441H18.8475ZM19.8318 14.2441H21.5454V15.1094H19.4799V14.2441H19.8318ZM22.6725 14.2441V19.2003H22.1625V14.2441H22.6725ZM25.3704 14.2441V15.1094H23.2845V14.2441H25.3704ZM26.4924 14.2441V19.2003H25.9824V14.2441H26.4924ZM14.5074 19.8147H26.4924V20.3267H14.5074V19.8147ZM17.7204 16.6454H15.6345V15.7187H17.7204V16.6454ZM15.6345 17.2547H17.7204V19.2003H15.6345V17.2547ZM21.5454 16.6403H19.4799V15.7187H21.5658L21.5454 16.6403ZM19.4799 17.2547H21.5658V19.2003H19.4799V17.2547ZM25.3908 16.6403H23.2845V15.7187H25.3704L25.3908 16.6403ZM23.2845 17.2547H25.3704V19.2003H23.2845V17.2547ZM15.0225 19.2003H14.5125V14.2441H15.0225V19.2003ZM34.9686 12.0579H37.1922V15.1299H34.9686V12.0579ZM37.1922 15.7187V17.7001H34.9686V15.7187H37.1922ZM34.3566 17.7001H29.94V15.7187H34.3566V17.7001ZM29.328 17.7001H27.1299V15.7187H29.3535L29.328 17.7001ZM20.8671 13.343V13.6297H20.1378V13.343C20.1852 13.0967 20.3104 12.8723 20.4948 12.703C20.684 12.8708 20.8145 13.0952 20.8671 13.343ZM13.8954 17.7053H11.6718V15.7187H13.8954V17.7053ZM11.0598 17.7053H6.64324V15.7187H11.0598V17.7053ZM3.80764 15.7187H6.03124V17.7001H3.80764V15.7187ZM3.80764 12.0528H6.03124V15.1248H3.80764V12.0528ZM11.6718 18.3197H13.8954V20.3677H11.6718V18.3197ZM28.5018 20.9513H37.1718V21.4633H28.5018V20.9513ZM34.8513 10.9981C34.8739 10.82 34.9655 10.6581 35.1063 10.5475L36.0447 9.81022L37.0647 10.5526C37.2033 10.6622 37.2932 10.8223 37.3146 10.9981C37.3353 11.1439 37.3159 11.2926 37.2585 11.4281H34.9074C34.8501 11.2926 34.8307 11.1439 34.8513 10.9981ZM34.3413 14.2441V15.1094H29.94V14.2441H34.3413ZM26.9871 10.9981C27.0115 10.8194 27.1049 10.6575 27.2472 10.5475L28.1805 9.81022L29.2005 10.5526C29.3377 10.6627 29.4257 10.8229 29.4453 10.9981C29.4676 11.1434 29.45 11.2921 29.3943 11.4281H27.0483C26.9893 11.2931 26.9681 11.1443 26.9871 10.9981ZM27.1299 12.0579H29.3535V15.1299H27.1299V14.2441H27.288C27.3692 14.2441 27.447 14.2118 27.5044 14.1542C27.5618 14.0966 27.594 14.0184 27.594 13.9369V12.8259C27.594 12.7444 27.5618 12.6663 27.5044 12.6087C27.447 12.5511 27.3692 12.5187 27.288 12.5187H27.1299V12.0579ZM22.3155 8.74526C22.2344 8.74526 22.1565 8.77763 22.0992 8.83524C22.0418 8.89285 22.0095 8.97099 22.0095 9.05246V9.75902H20.8059V9.0627C20.8059 8.98123 20.7737 8.90309 20.7163 8.84548C20.6589 8.78787 20.5811 8.7555 20.4999 8.7555C20.4188 8.7555 20.341 8.78787 20.2836 8.84548C20.2262 8.90309 20.1939 8.98123 20.1939 9.0627V9.76926H19.0158V9.0627C19.0158 8.98123 18.9836 8.90309 18.9262 8.84548C18.8688 8.78787 18.791 8.7555 18.7098 8.7555C18.6287 8.7555 18.5508 8.78787 18.4935 8.84548C18.4361 8.90309 18.4038 8.98123 18.4038 9.0627V9.76926H17.3838C17.3863 9.7403 17.3863 9.71118 17.3838 9.68222V8.17694H23.6109V9.67198C23.6085 9.70094 23.6085 9.73006 23.6109 9.75902H22.5909V9.0627C22.5923 9.02193 22.5856 8.9813 22.5711 8.94318C22.5567 8.90506 22.5348 8.8702 22.5068 8.84065C22.4788 8.8111 22.4452 8.78745 22.408 8.77107C22.3708 8.75469 22.3307 8.74592 22.29 8.74526H22.3155ZM21.1731 3.29758L23.5599 4.7619C23.7965 4.90927 23.9984 5.10646 24.1516 5.33984C24.3048 5.57321 24.4057 5.83721 24.4473 6.11358C24.4852 6.36817 24.4713 6.62782 24.4065 6.87686C24.3416 7.1259 24.2271 7.35916 24.0699 7.56254H21.5199V6.92254C21.5175 6.78385 21.4899 6.64676 21.4383 6.51806C21.2926 6.15722 21.0205 5.86226 20.6733 5.68862C20.5882 5.65444 20.4933 5.65444 20.4081 5.68862C20.0541 5.85519 19.7717 6.14418 19.6125 6.5027C19.5546 6.64238 19.5235 6.79176 19.5207 6.94302V7.58302H16.9299C16.7737 7.37925 16.6601 7.14581 16.5961 6.89678C16.5321 6.64776 16.519 6.3883 16.5576 6.13406C16.5992 5.85769 16.7002 5.59369 16.8534 5.36031C17.0066 5.12694 17.2085 4.92975 17.445 4.78238L19.8063 3.31806L21.1731 3.29758ZM20.1531 6.92254C20.1522 6.85263 20.1643 6.78316 20.1888 6.71774C20.2563 6.55813 20.3701 6.42257 20.5152 6.32862C20.6577 6.42563 20.7707 6.5603 20.8416 6.71774C20.8642 6.78369 20.8763 6.85281 20.8773 6.92254V7.56254H20.1378L20.1531 6.92254ZM20.5662 1.15742C20.612 1.15673 20.6574 1.16527 20.6998 1.18252C20.7421 1.19977 20.7807 1.22539 20.813 1.25786C20.8453 1.29033 20.8709 1.32898 20.888 1.37153C20.9052 1.41409 20.9137 1.45967 20.913 1.50558V2.68318H20.1021V1.50558C20.1014 1.45967 20.11 1.41409 20.1271 1.37153C20.1443 1.32898 20.1698 1.29033 20.2022 1.25786C20.2345 1.22539 20.273 1.19977 20.3154 1.18252C20.3578 1.16527 20.4032 1.15673 20.4489 1.15742H20.5662ZM16.5576 10.7881C16.5576 10.6782 16.6012 10.5727 16.6786 10.4949C16.7561 10.4171 16.8612 10.3734 16.9707 10.3734H24.0291C24.1392 10.3734 24.2448 10.4169 24.3231 10.4946C24.4013 10.5722 24.446 10.6777 24.4473 10.7881V11.2438H16.5576V10.7881ZM16.6341 11.8582H24.3657L25.3092 12.5187H21.1425C21.0065 12.346 20.8545 12.1866 20.6886 12.0425C20.634 11.9976 20.5655 11.9731 20.4948 11.9731C20.4242 11.9731 20.3557 11.9976 20.301 12.0425C20.136 12.1858 19.9856 12.3453 19.8522 12.5187H15.6906L16.6341 11.8582ZM13.7424 12.5187C13.6613 12.5187 13.5834 12.5511 13.5261 12.6087C13.4687 12.6663 13.4364 12.7444 13.4364 12.8259V13.9369C13.4364 14.0184 13.4687 14.0966 13.5261 14.1542C13.5834 14.2118 13.6613 14.2441 13.7424 14.2441H13.8954V15.1094H11.6718V12.0374H13.8954V12.4982L13.7424 12.5187ZM11.5596 10.9827C11.5697 10.8942 11.5975 10.8087 11.6413 10.7313C11.6851 10.6538 11.7441 10.5861 11.8146 10.5321L12.7479 9.79486L13.7679 10.5373C13.9051 10.6473 13.9931 10.8075 14.0127 10.9827C14.0375 11.128 14.0198 11.2774 13.9617 11.4128H11.6157C11.5589 11.2825 11.5395 11.1388 11.5596 10.9981V10.9827ZM11.0496 14.2288V15.0941H6.64324V14.2441L11.0496 14.2288ZM3.69544 10.9981C3.70549 10.9096 3.73326 10.8241 3.77708 10.7466C3.82091 10.6692 3.87987 10.6015 3.95044 10.5475L4.88374 9.81022L5.90374 10.5526C6.04087 10.6627 6.12891 10.8229 6.14854 10.9981C6.17328 11.1434 6.15557 11.2927 6.09754 11.4281H3.75154C3.69178 11.2933 3.67229 11.1439 3.69544 10.9981ZM3.81274 20.9513H12.4317V21.4633H3.81274V20.9513ZM13.0437 21.4633V20.9821H27.9102V21.4633H13.0437Z" fill="white"/>
</svg>
