<svg width="13" height="17" viewBox="0 0 13 17" fill="none" xmlns="http://www.w3.org/2000/svg">
<path d="M8.625 4.95837V14.1455L5.64292 12.8634L5.08333 12.6225L4.52375 12.8634L1.54167 14.1455V4.95837H8.625ZM11.4583 0.708374H4.36792C3.58875 0.708374 2.95833 1.34587 2.95833 2.12504H10.0417C10.8208 2.12504 11.4583 2.76254 11.4583 3.54171V12.75L12.875 13.4584V2.12504C12.875 1.34587 12.2375 0.708374 11.4583 0.708374ZM8.625 3.54171H1.54167C0.7625 3.54171 0.125 4.17921 0.125 4.95837V16.2917L5.08333 14.1667L10.0417 16.2917V4.95837C10.0417 4.17921 9.40417 3.54171 8.625 3.54171Z" fill="black"/>
</svg>
