<svg width="48" height="40" viewBox="0 0 48 40" fill="none" xmlns="http://www.w3.org/2000/svg">
<path d="M46.6562 1.875H13.5781C13.3289 1.875 13.125 2.07891 13.125 2.32812V5.5C13.125 5.74922 13.3289 5.95312 13.5781 5.95312H46.6562C46.9055 5.95312 47.1094 5.74922 47.1094 5.5V2.32812C47.1094 2.07891 46.9055 1.875 46.6562 1.875ZM46.6562 17.9609H13.5781C13.3289 17.9609 13.125 18.1648 13.125 18.4141V21.5859C13.125 21.8352 13.3289 22.0391 13.5781 22.0391H46.6562C46.9055 22.0391 47.1094 21.8352 47.1094 21.5859V18.4141C47.1094 18.1648 46.9055 17.9609 46.6562 17.9609ZM46.6562 34.0469H13.5781C13.3289 34.0469 13.125 34.2508 13.125 34.5V37.6719C13.125 37.9211 13.3289 38.125 13.5781 38.125H46.6562C46.9055 38.125 47.1094 37.9211 47.1094 37.6719V34.5C47.1094 34.2508 46.9055 34.0469 46.6562 34.0469ZM0.890625 3.91406C0.890625 4.3306 0.972668 4.74306 1.13207 5.12789C1.29147 5.51272 1.52511 5.86238 1.81965 6.15692C2.11418 6.45145 2.46385 6.68509 2.84868 6.84449C3.23351 7.00389 3.64596 7.08594 4.0625 7.08594C4.47904 7.08594 4.89149 7.00389 5.27632 6.84449C5.66115 6.68509 6.01082 6.45145 6.30535 6.15692C6.59989 5.86238 6.83353 5.51272 6.99293 5.12789C7.15233 4.74306 7.23438 4.3306 7.23438 3.91406C7.23438 3.49753 7.15233 3.08507 6.99293 2.70024C6.83353 2.31541 6.59989 1.96574 6.30535 1.67121C6.01082 1.37667 5.66115 1.14303 5.27632 0.983632C4.89149 0.82423 4.47904 0.742188 4.0625 0.742188C3.64596 0.742188 3.23351 0.82423 2.84868 0.983632C2.46385 1.14303 2.11418 1.37667 1.81965 1.67121C1.52511 1.96574 1.29147 2.31541 1.13207 2.70024C0.972668 3.08507 0.890625 3.49753 0.890625 3.91406ZM0.890625 20C0.890625 20.4165 0.972668 20.829 1.13207 21.2138C1.29147 21.5987 1.52511 21.9483 1.81965 22.2429C2.11418 22.5374 2.46385 22.771 2.84868 22.9304C3.23351 23.0898 3.64596 23.1719 4.0625 23.1719C4.47904 23.1719 4.89149 23.0898 5.27632 22.9304C5.66115 22.771 6.01082 22.5374 6.30535 22.2429C6.59989 21.9483 6.83353 21.5987 6.99293 21.2138C7.15233 20.829 7.23438 20.4165 7.23438 20C7.23438 19.5835 7.15233 19.171 6.99293 18.7862C6.83353 18.4013 6.59989 18.0517 6.30535 17.7571C6.01082 17.4626 5.66115 17.229 5.27632 17.0696C4.89149 16.9102 4.47904 16.8281 4.0625 16.8281C3.64596 16.8281 3.23351 16.9102 2.84868 17.0696C2.46385 17.229 2.11418 17.4626 1.81965 17.7571C1.52511 18.0517 1.29147 18.4013 1.13207 18.7862C0.972668 19.171 0.890625 19.5835 0.890625 20ZM0.890625 36.0859C0.890625 36.5025 0.972668 36.9149 1.13207 37.2998C1.29147 37.6846 1.52511 38.0343 1.81965 38.3288C2.11418 38.6233 2.46385 38.857 2.84868 39.0164C3.23351 39.1758 3.64596 39.2578 4.0625 39.2578C4.47904 39.2578 4.89149 39.1758 5.27632 39.0164C5.66115 38.857 6.01082 38.6233 6.30535 38.3288C6.59989 38.0343 6.83353 37.6846 6.99293 37.2998C7.15233 36.9149 7.23438 36.5025 7.23438 36.0859C7.23438 35.6694 7.15233 35.2569 6.99293 34.8721C6.83353 34.4873 6.59989 34.1376 6.30535 33.8431C6.01082 33.5485 5.66115 33.3149 5.27632 33.1555C4.89149 32.9961 4.47904 32.9141 4.0625 32.9141C3.64596 32.9141 3.23351 32.9961 2.84868 33.1555C2.46385 33.3149 2.11418 33.5485 1.81965 33.8431C1.52511 34.1376 1.29147 34.4873 1.13207 34.8721C0.972668 35.2569 0.890625 35.6694 0.890625 36.0859Z" fill="black"/>
</svg>
