<svg width="24" height="24" viewBox="0 0 24 24" fill="none" xmlns="http://www.w3.org/2000/svg">
<path d="M23.2133 10.05H13.9508V0.787549C13.9508 0.519424 13.7314 0.300049 13.4633 0.300049H10.5383C10.2702 0.300049 10.0508 0.519424 10.0508 0.787549V10.05H0.788281C0.520156 10.05 0.300781 10.2694 0.300781 10.5375V13.4625C0.300781 13.7307 0.520156 13.95 0.788281 13.95H10.0508V23.2125C10.0508 23.4807 10.2702 23.7 10.5383 23.7H13.4633C13.7314 23.7 13.9508 23.4807 13.9508 23.2125V13.95H23.2133C23.4814 13.95 23.7008 13.7307 23.7008 13.4625V10.5375C23.7008 10.2694 23.4814 10.05 23.2133 10.05Z" fill="white"/>
</svg>
