<svg width="13" height="13" viewBox="0 0 13 13" fill="none" xmlns="http://www.w3.org/2000/svg">
<path d="M9.75 2.6H13V3.9H11.7V12.35C11.7 12.5224 11.6315 12.6877 11.5096 12.8096C11.3877 12.9315 11.2224 13 11.05 13H1.95C1.77761 13 1.61228 12.9315 1.49038 12.8096C1.36848 12.6877 1.3 12.5224 1.3 12.35V3.9H0V2.6H3.25V0.65C3.25 0.477609 3.31848 0.312279 3.44038 0.190381C3.56228 0.0684819 3.72761 0 3.9 0H9.1C9.27239 0 9.43772 0.0684819 9.55962 0.190381C9.68152 0.312279 9.75 0.477609 9.75 0.65V2.6ZM10.4 3.9H2.6V11.7H10.4V3.9ZM7.4191 7.8L8.5683 8.9492L7.6492 9.8683L6.5 8.7191L5.3508 9.8683L4.4317 8.9492L5.5809 7.8L4.4317 6.6508L5.3508 5.7317L6.5 6.8809L7.6492 5.7317L8.5683 6.6508L7.4191 7.8ZM4.55 1.3V2.6H8.45V1.3H4.55Z" fill="black"/>
</svg>
