<svg width="30" height="26" viewBox="0 0 30 26" fill="none" xmlns="http://www.w3.org/2000/svg">
<path d="M29.1046 24.7582H23.98V23.915C23.98 23.8284 23.9459 23.7454 23.8851 23.6842C23.8244 23.623 23.742 23.5886 23.656 23.5886H23.0296V19.106H23.197C23.283 19.106 23.3654 19.0716 23.4261 19.0104C23.4869 18.9492 23.521 18.8662 23.521 18.7796C23.521 18.6931 23.4869 18.61 23.4261 18.5488C23.3654 18.4876 23.283 18.4532 23.197 18.4532H23.0296V16.8212H23.251C23.337 16.8212 23.4194 16.7868 23.4801 16.7256C23.5409 16.6644 23.575 16.5814 23.575 16.4948C23.575 16.4083 23.5409 16.3252 23.4801 16.264C23.4194 16.2028 23.337 16.1684 23.251 16.1684H23.0296V10.7284L24.2068 9.80362C24.2617 9.76297 24.302 9.7054 24.3215 9.63962C24.341 9.57384 24.3386 9.50346 24.3148 9.43914C24.2934 9.37556 24.2526 9.32036 24.1984 9.28133C24.1441 9.24229 24.0791 9.22138 24.0124 9.22154H23.0296V7.21418C23.0296 7.12762 22.9955 7.04459 22.9347 6.98338C22.874 6.92217 22.7916 6.88778 22.7056 6.88778H22.0738V5.47338C22.0738 5.38682 22.0397 5.30379 21.9789 5.24258C21.9182 5.18137 21.8358 5.14698 21.7498 5.14698H21.091V2.35626C21.091 2.2697 21.0569 2.18667 20.9961 2.12546C20.9354 2.06425 20.853 2.02986 20.767 2.02986H18.8608L17.608 1.15946V0.615463C17.608 0.528896 17.5739 0.445874 17.5131 0.384663C17.4524 0.323451 17.37 0.289063 17.284 0.289062H12.8398C12.7539 0.289062 12.6715 0.323451 12.6107 0.384663C12.55 0.445874 12.5158 0.528896 12.5158 0.615463V1.15946L11.263 2.02986H9.34064C9.25471 2.02986 9.1723 2.06425 9.11154 2.12546C9.05077 2.18667 9.01664 2.2697 9.01664 2.35626V5.14154H8.35244C8.26651 5.14154 8.1841 5.17593 8.12334 5.23714C8.06257 5.29835 8.02844 5.38138 8.02844 5.46794V6.88234H7.29404C7.20811 6.88234 7.1257 6.91673 7.06494 6.97794C7.00417 7.03915 6.97004 7.12218 6.97004 7.20874V9.2705H5.98724C5.92057 9.27034 5.85553 9.29125 5.80128 9.33029C5.74704 9.36932 5.70631 9.42452 5.68484 9.4881C5.66103 9.55242 5.6587 9.6228 5.67819 9.68858C5.69768 9.75436 5.73793 9.81193 5.79284 9.85258L6.97004 10.7774V16.2174H6.85664C6.77071 16.2174 6.6883 16.2518 6.62754 16.313C6.56677 16.3742 6.53264 16.4572 6.53264 16.5438C6.53264 16.6303 6.56677 16.7134 6.62754 16.7746C6.6883 16.8358 6.77071 16.8702 6.85664 16.8702H6.97004V18.5022H6.80264C6.71671 18.5022 6.6343 18.5366 6.57354 18.5978C6.51277 18.659 6.47864 18.742 6.47864 18.8286C6.47864 18.9151 6.51277 18.9982 6.57354 19.0594C6.6343 19.1206 6.71671 19.155 6.80264 19.155H6.97004V23.5886H6.35984C6.27391 23.5886 6.1915 23.623 6.13074 23.6842C6.06997 23.7454 6.03584 23.8284 6.03584 23.915V24.7582H0.895038C0.849348 24.7522 0.802919 24.7561 0.758847 24.7696C0.714775 24.7832 0.674075 24.806 0.639461 24.8366C0.604848 24.8673 0.577116 24.905 0.55812 24.9473C0.539123 24.9896 0.529297 25.0354 0.529297 25.0819C0.529297 25.1283 0.539123 25.1742 0.55812 25.2164C0.577116 25.2587 0.604848 25.2964 0.639461 25.3271C0.674075 25.3577 0.714775 25.3806 0.758847 25.3941C0.802919 25.4076 0.849348 25.4115 0.895038 25.4055H29.1046C29.1503 25.4115 29.1968 25.4076 29.2408 25.3941C29.2849 25.3806 29.3256 25.3577 29.3602 25.3271C29.3948 25.2964 29.4226 25.2587 29.4416 25.2164C29.4606 25.1742 29.4704 25.1283 29.4704 25.0819C29.4704 25.0354 29.4606 24.9896 29.4416 24.9473C29.4226 24.905 29.3948 24.8673 29.3602 24.8366C29.3256 24.806 29.2849 24.7832 29.2408 24.7696C29.1968 24.7561 29.1503 24.7522 29.1046 24.7582ZM22.3816 23.5886H19.5574V19.106H22.3816V23.5886ZM18.9094 12.9207V16.1847H18.3694C18.3407 16.1817 18.3118 16.1817 18.283 16.1847C18.1517 15.4619 17.7903 14.8017 17.2534 14.3041C16.7166 13.8065 16.0336 13.4985 15.3076 13.4267V12.8827L18.9094 12.9207ZM18.3694 16.8375H18.9094V18.4695H18.3694V16.8375ZM14.6758 13.4484C13.9557 13.5199 13.2776 13.8229 12.7417 14.3128C12.2058 14.8027 11.8407 15.4533 11.7004 16.1684H11.0902V12.9044H14.6758V13.4484ZM11.641 16.843V18.475H11.101V16.843H11.641ZM12.289 16.8158C12.289 16.0944 12.5735 15.4026 13.0799 14.8925C13.5862 14.3824 14.273 14.0958 14.989 14.0958C15.7051 14.0958 16.3919 14.3824 16.8982 14.8925C17.4046 15.4026 17.689 16.0944 17.689 16.8158V24.7582H12.2998L12.289 16.8158ZM18.3586 19.106H18.8986V24.7582H18.3586V19.106ZM22.3816 18.4532H19.5574V16.8212H22.3816V18.4532ZM7.61804 10.946H22.3816V11.3812H7.61804V10.946ZM13.018 1.6001C13.06 1.56974 13.0942 1.5297 13.1176 1.48333C13.1411 1.43696 13.1533 1.3856 13.153 1.33354V0.958182H16.9708V1.33354C16.9717 1.38599 16.9848 1.43749 17.0092 1.48383C17.0336 1.53016 17.0686 1.57001 17.1112 1.6001L17.7322 2.02986H12.3862L13.018 1.6001ZM9.67544 2.6881H20.4754V5.14698H9.67544V2.6881ZM8.68724 5.79978H21.4258V6.88778H8.67644L8.68724 5.79978ZM7.60724 7.54058H22.3816V9.27594H7.61804L7.60724 7.54058ZM7.29404 9.93418H23.0674L22.5922 10.3041H7.40744L6.93224 9.93418H7.29404ZM7.61804 12.0449H22.3816V16.1902H19.5574V12.5943C19.5574 12.5515 19.5491 12.509 19.5328 12.4694C19.5165 12.4298 19.4926 12.3939 19.4625 12.3635C19.4325 12.3332 19.3967 12.3092 19.3574 12.2928C19.3181 12.2764 19.276 12.2679 19.2334 12.2679H10.7662C10.6803 12.2679 10.5979 12.3023 10.5371 12.3635C10.4764 12.4248 10.4422 12.5078 10.4422 12.5943V16.1902H7.61804V12.0449ZM7.61804 16.8539H10.4422V18.4859H7.61804V16.8539ZM7.61804 19.1169H10.4422V23.5886H7.61804V19.1169ZM6.66764 24.2414H10.4476V24.7854H6.66764V24.2414ZM11.0902 23.915V19.106H11.6302V24.7582H11.0902V23.915ZM19.5574 24.7582V24.2142H23.3374V24.7582H19.5574Z" fill="white"/>
</svg>
