<svg width="28" height="28" viewBox="0 0 28 28" fill="none" xmlns="http://www.w3.org/2000/svg">
<path d="M27.3394 27.0398H23.1982V19.3387L23.958 18.3019C23.9612 18.2867 23.9612 18.271 23.958 18.2558C23.958 18.2558 23.958 18.2558 23.958 18.2213C23.9758 18.1833 23.9857 18.1422 23.987 18.1003V15.3067C23.987 15.2151 23.9504 15.1271 23.8851 15.0623C23.8198 14.9975 23.7313 14.9611 23.639 14.9611H22.8386V12.9278L23.4824 11.9198C23.5164 11.8643 23.5345 11.8005 23.5346 11.7355V10.6814C23.5346 10.5898 23.498 10.5019 23.4327 10.4371C23.3674 10.3722 23.2789 10.3358 23.1866 10.3358H22.7864V6.79343C22.8787 6.79343 22.9672 6.75702 23.0325 6.69221C23.0978 6.62739 23.1344 6.53949 23.1344 6.44783V5.12879C23.1344 5.03713 23.0978 4.94923 23.0325 4.88442C22.9672 4.8196 22.8787 4.78319 22.7864 4.78319V3.33167C22.7856 3.00507 22.6777 2.68763 22.479 2.42735L22.0208 1.82255V1.16591C22.0208 1.07425 21.9842 0.986349 21.9189 0.921536C21.8536 0.856724 21.7651 0.820312 21.6728 0.820312C21.5805 0.820312 21.492 0.856724 21.4268 0.921536C21.3615 0.986349 21.3248 1.07425 21.3248 1.16591V1.83407L20.8898 2.44463C20.711 2.69763 20.6158 2.99954 20.6172 3.30863V4.79471C20.5347 4.80451 20.4585 4.84381 20.403 4.90529C20.3475 4.96678 20.3165 5.04622 20.3156 5.12879V6.44783C20.3165 6.5304 20.3475 6.60985 20.403 6.67133C20.4585 6.73281 20.5347 6.77212 20.6172 6.78191V10.3358H20.2112C20.1189 10.3358 20.0304 10.3722 19.9652 10.4371C19.8999 10.5019 19.8632 10.5898 19.8632 10.6814V11.3438H8.07763V10.6814C8.07763 10.5898 8.04097 10.5019 7.97571 10.4371C7.91044 10.3722 7.82193 10.3358 7.72963 10.3358H7.32943V6.79343C7.42173 6.79343 7.51024 6.75702 7.57551 6.69221C7.64077 6.62739 7.67743 6.53949 7.67743 6.44783V5.12879C7.67743 5.03713 7.64077 4.94923 7.57551 4.88442C7.51024 4.8196 7.42173 4.78319 7.32943 4.78319V3.33167C7.33363 3.00704 7.23189 2.68979 7.03943 2.42735L6.58123 1.82255V1.16591C6.58123 1.07425 6.54457 0.986349 6.47931 0.921536C6.41404 0.856724 6.32553 0.820312 6.23323 0.820312C6.14094 0.820312 6.05242 0.856724 5.98716 0.921536C5.9219 0.986349 5.88523 1.07425 5.88523 1.16591V1.83407L5.45023 2.44463C5.26972 2.69712 5.17246 2.99897 5.17183 3.30863V4.79471C5.08927 4.80451 5.01313 4.84381 4.95762 4.90529C4.90212 4.96678 4.87106 5.04622 4.87023 5.12879V6.44783C4.87106 6.5304 4.90212 6.60985 4.95762 6.67133C5.01313 6.73281 5.08927 6.77212 5.17183 6.78191V10.3358H4.77163C4.67934 10.3358 4.59082 10.3722 4.52556 10.4371C4.4603 10.5019 4.42363 10.5898 4.42363 10.6814V11.7413C4.42382 11.8063 4.44186 11.87 4.47583 11.9256L5.11963 12.9278V14.9611H4.31923C4.27353 14.9611 4.22828 14.97 4.18606 14.9874C4.14384 15.0048 4.10547 15.0302 4.07316 15.0623C4.04084 15.0944 4.01521 15.1325 3.99772 15.1745C3.98024 15.2164 3.97123 15.2613 3.97123 15.3067V18.1003C3.97277 18.1624 3.99297 18.2225 4.02923 18.2731L4.71943 19.3329V27.0398H0.659434C0.610361 27.0335 0.560492 27.0376 0.513155 27.052C0.465819 27.0663 0.422103 27.0905 0.384925 27.1229C0.347748 27.1553 0.317963 27.1953 0.297559 27.2401C0.277155 27.2848 0.266602 27.3334 0.266602 27.3825C0.266602 27.4317 0.277155 27.4803 0.297559 27.525C0.317963 27.5698 0.347748 27.6098 0.384925 27.6422C0.422103 27.6746 0.465819 27.6988 0.513155 27.7131C0.560492 27.7275 0.610361 27.7316 0.659434 27.7253H27.3394C27.3885 27.7316 27.4384 27.7275 27.4857 27.7131C27.533 27.6988 27.5768 27.6746 27.6139 27.6422C27.6511 27.6098 27.6809 27.5698 27.7013 27.525C27.7217 27.4803 27.7323 27.4317 27.7323 27.3825C27.7323 27.3334 27.7217 27.2848 27.7013 27.2401C27.6809 27.1953 27.6511 27.1553 27.6139 27.1229C27.5768 27.0905 27.533 27.0663 27.4857 27.052C27.4384 27.0376 27.3885 27.0335 27.3394 27.0398ZM10.3106 27.0398H7.74123V26.3947H10.3048L10.3106 27.0398ZM10.3106 25.7035H7.74123V19.3387L8.39663 18.4459H10.3048V25.7035H10.3106ZM7.21343 18.8779H5.29943L5.00363 18.4459H7.55563L7.21343 18.8779ZM5.43863 19.5691H7.03943V25.7035H5.43863V19.5691ZM7.37583 13.0718H20.565V14.9496H19.1846V14.2238C19.191 14.1751 19.1868 14.1256 19.1724 14.0786C19.158 14.0316 19.1336 13.9881 19.101 13.9512C19.0683 13.9143 19.0281 13.8847 18.983 13.8645C18.9379 13.8442 18.889 13.8337 18.8395 13.8337C18.79 13.8337 18.7411 13.8442 18.696 13.8645C18.651 13.8847 18.6107 13.9143 18.5781 13.9512C18.5454 13.9881 18.5211 14.0316 18.5066 14.0786C18.4922 14.1256 18.4881 14.1751 18.4944 14.2238V14.9496H17.2532V14.2238C17.2532 14.1322 17.2166 14.0443 17.1513 13.9795C17.086 13.9146 16.9975 13.8782 16.9052 13.8782C16.8129 13.8782 16.7244 13.9146 16.6592 13.9795C16.5939 14.0443 16.5572 14.1322 16.5572 14.2238V14.9496H15.316V14.2238C15.316 14.1322 15.2794 14.0443 15.2141 13.9795C15.1488 13.9146 15.0603 13.8782 14.968 13.8782C14.8757 13.8782 14.7872 13.9146 14.722 13.9795C14.6567 14.0443 14.62 14.1322 14.62 14.2238V14.9496H13.3788V14.2238C13.3788 14.1322 13.3422 14.0443 13.2769 13.9795C13.2116 13.9146 13.1231 13.8782 13.0308 13.8782C12.9385 13.8782 12.85 13.9146 12.7848 13.9795C12.7195 14.0443 12.6828 14.1322 12.6828 14.2238V14.9496H11.4416V14.2238C11.4416 14.1322 11.405 14.0443 11.3397 13.9795C11.2744 13.9146 11.1859 13.8782 11.0936 13.8782C11.0013 13.8782 10.9128 13.9146 10.8476 13.9795C10.7823 14.0443 10.7456 14.1322 10.7456 14.2238V14.9496H9.50443V14.2238C9.51081 14.1751 9.50664 14.1256 9.49222 14.0786C9.47779 14.0316 9.45344 13.9881 9.42078 13.9512C9.38812 13.9143 9.3479 13.8847 9.30282 13.8645C9.25774 13.8442 9.20882 13.8337 9.15933 13.8337C9.10985 13.8337 9.06093 13.8442 9.01585 13.8645C8.97076 13.8847 8.93055 13.9143 8.89789 13.9512C8.86523 13.9881 8.84087 14.0316 8.82645 14.0786C8.81202 14.1256 8.80786 14.1751 8.81423 14.2238V14.9496H7.37583V13.0718ZM7.95583 12.0466H20.0198L20.2402 12.3806H7.72383L7.95583 12.0466ZM22.5022 25.7035H20.8956V19.5691H22.5022V25.7035ZM22.6994 18.8779H20.7332L20.4374 18.4459H22.9952L22.6994 18.8779ZM19.4572 15.6523V16.62H8.56483V15.6523H19.4572ZM8.56483 17.3112H19.434V17.7547H8.56483V17.3112ZM10.995 18.4632H17.0038V21.6254C16.1717 20.8969 15.1781 20.3739 14.1038 20.099C14.0503 20.0875 13.9949 20.0875 13.9414 20.099C12.8667 20.357 11.8713 20.871 11.0414 21.5966L10.995 18.4632ZM17.694 18.4632H19.5964L20.1764 19.3502V25.7035H17.694V18.4459V18.4632ZM17.694 26.412H20.1996V27.0571H17.694V26.412ZM20.8956 26.412H22.5022V27.0629H20.8956V26.412ZM23.3316 15.6696V17.772H20.13V15.6523H23.3316V15.6696ZM21.261 14.9784V13.0718H22.1194V14.9496L21.261 14.9784ZM22.0904 10.3704H21.3132V6.79343H22.1194L22.0904 10.3704ZM22.45 5.50895V6.10223H21.0116V5.47439L22.45 5.50895ZM21.4582 2.87663L21.6844 2.55983L21.928 2.87663C22.0339 3.01818 22.0909 3.18991 22.0904 3.36623V4.81775H21.3132V3.30863C21.314 3.14229 21.3645 2.97993 21.4582 2.84207V2.87663ZM20.5592 11.027H22.8386V11.6376L22.3572 12.3922H21.0464L20.5592 11.6376V11.027ZM6.63923 10.3358H5.87943V6.79343H6.63343L6.63923 10.3358ZM6.99303 5.47439V6.10223H5.54883V5.47439H6.99303ZM6.00703 2.84207L6.23323 2.52527L6.47103 2.84207C6.57859 2.9831 6.63757 3.15477 6.63923 3.33167V4.78319H5.87943V3.30863C5.87081 3.14438 5.91334 2.98148 6.00123 2.84207H6.00703ZM5.10223 11.6376V11.027H7.38163V11.6376L6.90023 12.3922H5.58363L5.10223 11.6376ZM5.79823 13.0718H6.68563V14.9496H5.79823V13.0718ZM5.45023 15.6408H7.86883V17.7432H4.66723V15.6523L5.45023 15.6408ZM5.45023 26.3832H7.03943V27.0283H5.43863L5.45023 26.3832ZM11.0066 23.1288C11.0066 21.6254 13.5296 20.8881 14.011 20.7614C14.9216 21.0033 17.0154 21.8328 17.0154 23.1288V27.0283H10.995L11.0066 23.1288Z" fill="white"/>
</svg>
