<svg width="22" height="27" viewBox="0 0 22 27" fill="none" xmlns="http://www.w3.org/2000/svg">
<path d="M22 16.8837C22 15.6483 21.1197 14.6148 19.9535 14.3771V11.614C19.9535 11.3622 19.8301 11.1266 19.6232 10.9832C19.4163 10.8398 19.1522 10.8069 18.9166 10.8954L17.4518 11.4447C16.49 10.4447 15.3208 9.69151 14.0396 9.22915C15.2986 8.29625 16.1163 6.80005 16.1163 5.11628C16.1163 2.29511 13.8212 0 11 0C8.17883 0 5.88372 2.29511 5.88372 5.11628C5.88372 6.80005 6.7014 8.29625 7.96042 9.22915C6.67915 9.69156 5.51003 10.4447 4.54817 11.4447L3.08343 10.8954C2.84777 10.8069 2.58367 10.8398 2.37682 10.9832C2.16992 11.1266 2.04651 11.3622 2.04651 11.614V14.3771C0.880256 14.6148 0 15.6483 0 16.8837C0 18.1192 0.880256 19.1527 2.04651 19.3904V22.3581C2.04651 22.6781 2.24497 22.9644 2.54448 23.0767L10.7305 26.1465C10.9031 26.2109 11.0968 26.2109 11.2694 26.1465L19.4555 23.0767C19.755 22.9644 19.9534 22.6781 19.9534 22.3581V19.3904C21.1197 19.1527 22 18.1191 22 16.8837ZM7.4186 5.11628C7.4186 3.1415 9.02522 1.53488 11 1.53488C12.9748 1.53488 14.5814 3.1415 14.5814 5.11628C14.5814 7.09106 12.9748 8.69767 11 8.69767C9.02522 8.69767 7.4186 7.09106 7.4186 5.11628ZM11 10.2326C12.798 10.2326 14.5153 10.8824 15.8553 12.0434L11 13.8641L6.1447 12.0434C7.48471 10.8824 9.20204 10.2326 11 10.2326ZM1.53488 16.8837C1.53488 16.3195 1.99392 15.8605 2.55814 15.8605H3.06977V17.907H2.55814C1.99392 17.907 1.53488 17.4479 1.53488 16.8837ZM3.5814 19.4161C4.1645 19.2973 4.60465 18.7805 4.60465 18.1628V15.6047C4.60465 14.987 4.1645 14.4702 3.5814 14.3513V12.7214L10.2326 15.2156V24.3205L3.5814 21.8264V19.4161ZM11.7674 24.3205V15.2156L18.4186 12.7214V14.3513C17.8355 14.4702 17.3953 14.987 17.3953 15.6047V18.1628C17.3953 18.7805 17.8355 19.2973 18.4186 19.4161V21.8263L11.7674 24.3205ZM19.4419 17.907H18.9302V15.8605H19.4419C20.0061 15.8605 20.4651 16.3195 20.4651 16.8837C20.4651 17.4479 20.0061 17.907 19.4419 17.907Z" fill="#FD8A36"/>
</svg>
