<svg width="36" height="23" viewBox="0 0 36 23" fill="none" xmlns="http://www.w3.org/2000/svg">
<mask id="path-1-outside-1" maskUnits="userSpaceOnUse" x="0" y="0" width="36" height="23" fill="black">
<rect fill="white" width="36" height="23"/>
<path d="M35.3556 11.114H35.0349V10.1395H35.3556C35.356 10.1395 35.3564 10.1395 35.3567 10.1395C35.4426 10.1395 35.5125 10.0697 35.5125 9.98369C35.5125 9.95021 35.502 9.91919 35.4839 9.89375L35.0156 9.05068C34.9881 9.00128 34.9359 8.9706 34.8795 8.9706H23.9843V6.586C23.9843 6.58425 23.9838 6.58271 23.9838 6.58096C24.0962 6.47439 24.1669 6.32408 24.1669 6.15727C24.1669 5.99046 24.0962 5.84014 23.9838 5.73357C23.9838 5.73189 23.9843 5.73028 23.9843 5.72854V3.18816C23.9843 2.66013 23.5934 1.9003 23.0317 1.76696V1.15584C23.0317 1.06988 22.962 1.00007 22.8759 1.00007C22.7899 1.00007 22.7202 1.06981 22.7202 1.15584V1.75969C22.1321 1.86906 21.7507 2.6551 21.7507 3.18823C21.7507 3.21318 21.7571 3.23638 21.7675 3.25728V4.7789H18.4197V1.52901C18.4197 1.44299 18.3501 1.37324 18.264 1.37324C18.178 1.37324 18.1083 1.44299 18.1083 1.52901V4.7789H14.7437V3.18816C14.7437 2.66027 14.3695 1.88422 13.7911 1.76305V1.15577C13.7911 1.06981 13.7213 1 13.6353 1C13.5493 1 13.4795 1.06974 13.4795 1.15577V1.76305C12.901 1.88422 12.5269 2.6602 12.5269 3.18816V5.72854C12.5269 5.73028 12.5273 5.73182 12.5274 5.7335C12.4149 5.84007 12.3442 5.99039 12.3442 6.1572C12.3442 6.32401 12.4149 6.47439 12.5274 6.58089C12.5273 6.58257 12.5269 6.58411 12.5269 6.58586V8.97046H1.63204C1.57543 8.97046 1.52337 9.00114 1.49591 9.05054L1.01959 9.90807C0.992822 9.95636 0.993521 10.0151 1.02147 10.0627C1.04943 10.1103 1.10051 10.1395 1.15572 10.1395H1.47627V11.114H1.15579C1.10058 11.114 1.0495 11.1432 1.02154 11.1908C0.993591 11.2384 0.992822 11.2972 1.01966 11.3454L1.47634 12.1676V21.8442C1.47634 21.9301 1.54608 22 1.63211 22H6.22857C6.31459 22 6.38433 21.9303 6.38433 21.8442V18.748C6.38433 18.5811 6.43752 18.4217 6.53822 18.2869C6.57351 18.2394 6.57903 18.1762 6.55247 18.1235C6.50411 18.0276 6.47959 17.9252 6.47959 17.8192C6.47959 17.5693 6.86366 17.1785 7.15745 16.9439C7.45116 17.1785 7.83524 17.5693 7.83524 17.8192C7.83524 17.9253 7.81071 18.0276 7.76235 18.1235C7.73579 18.1762 7.74132 18.2394 7.77661 18.2869C7.87731 18.4217 7.93056 18.5811 7.93056 18.748V21.8442C7.93056 21.9301 8.0003 22 8.08633 22H12.6828H14.5881H16.5951C16.6811 22 16.7509 21.9303 16.7509 21.8442V16.9444C16.7509 16.1099 17.4298 15.431 18.2642 15.431C19.0986 15.431 19.7775 16.1099 19.7775 16.9444V21.8442C19.7775 21.9301 19.8472 22 19.9332 22H21.9234H23.8287H28.4251C28.5111 22 28.5809 21.9303 28.5809 21.8442V18.748C28.5809 18.5811 28.6342 18.4217 28.7348 18.2869C28.7702 18.2394 28.7756 18.1762 28.7491 18.1235C28.7007 18.0276 28.6761 17.9252 28.6761 17.8192C28.6761 17.5693 29.0603 17.1785 29.3539 16.9439C29.6476 17.1785 30.0317 17.5693 30.0317 17.8192C30.0317 17.9253 30.0071 18.0276 29.9587 18.1235C29.9321 18.1762 29.9376 18.2394 29.973 18.2869C30.0736 18.4217 30.1269 18.5811 30.1269 18.748V21.8442C30.1269 21.9301 30.1966 22 30.2826 22H34.8791C34.9651 22 35.0349 21.9303 35.0349 21.8442V12.1676L35.4915 11.3454C35.5183 11.2972 35.5176 11.2384 35.4897 11.1908C35.462 11.1432 35.4107 11.114 35.3556 11.114ZM34.7235 11.114H24.0012V10.1395H34.7235V11.114H34.7235ZM20.6263 11.114V9.28207H21.053V11.114H20.6263ZM19.888 11.114V9.28207H20.3147V11.114H19.888ZM19.1497 11.114V9.28207H19.5764V11.114H19.1497ZM18.4113 11.114V9.28207H18.8381V11.114H18.4113ZM17.6732 11.114V9.28207H18.0999V11.114H17.6732ZM16.9348 11.114V9.28207H17.3616V11.114H16.9348ZM16.1966 11.114V9.28207H16.6233V11.114H16.1966ZM15.4582 11.114V9.28207H15.885V11.114H15.4582ZM14.7667 11.114C14.7238 10.7831 14.5519 10.4008 14.2959 10.1395H14.3419C14.6642 10.1395 14.9264 9.87733 14.9264 9.55503C14.9264 9.45649 14.9016 9.36362 14.8583 9.28214H15.1467V11.1141L14.7667 11.114ZM12.6559 6.15727C12.6559 6.00674 12.7783 5.8843 12.9288 5.8843H14.3419C14.4925 5.8843 14.6149 6.00674 14.6149 6.15727C14.6149 6.30779 14.4925 6.43023 14.3419 6.43023H12.9288C12.7782 6.43023 12.6559 6.30779 12.6559 6.15727ZM14.7438 6.74176H21.7676V8.97067H14.7438V6.74176ZM23.8554 6.15727C23.8554 6.30779 23.733 6.43023 23.5825 6.43023H22.1694C22.0189 6.43023 21.8965 6.30779 21.8965 6.15727C21.8965 6.00674 22.0189 5.8843 22.1694 5.8843H23.5825C23.733 5.88437 23.8554 6.00681 23.8554 6.15727ZM22.1694 9.282H23.5825C23.733 9.282 23.8554 9.40443 23.8554 9.55489C23.8554 9.70541 23.733 9.82785 23.5825 9.82785H22.1694C22.0189 9.82785 21.8965 9.70541 21.8965 9.55489C21.8964 9.40457 22.0188 9.282 22.1694 9.282ZM23.5824 10.1395H23.6728V10.3235C23.6259 10.2576 23.5748 10.1958 23.5196 10.1395H23.5824ZM22.8591 10.1395C23.2293 10.1395 23.5921 10.6425 23.6729 11.0926V11.114H23.5825H22.1694H22.0742C22.1421 10.6522 22.4907 10.1395 22.8591 10.1395ZM14.4527 11.114H14.3419H12.9288H12.8504C12.9182 10.6522 13.2669 10.1395 13.6353 10.1395C14.0115 10.1395 14.3799 10.6586 14.4527 11.114ZM12.9288 9.82799C12.7783 9.82799 12.6559 9.70555 12.6559 9.55503C12.6559 9.40457 12.7783 9.28214 12.9288 9.28214H14.3419C14.4925 9.28214 14.6149 9.40457 14.6149 9.55503C14.6149 9.70555 14.4925 9.82799 14.3419 9.82799H12.9288ZM12.9288 10.1395H12.9858C12.9325 10.1958 12.8834 10.2576 12.8386 10.3234V10.1395H12.9288ZM12.6559 11.6984C12.6559 11.548 12.7783 11.4254 12.9288 11.4254H14.3419C14.4925 11.4254 14.6149 11.5478 14.6149 11.6984C14.6149 11.849 14.4925 11.9713 14.3419 11.9713H12.9288C12.7782 11.9714 12.6559 11.8489 12.6559 11.6984ZM21.3646 9.282H21.6531C21.6097 9.36355 21.5849 9.45635 21.5849 9.55489C21.5849 9.87719 21.847 10.1393 22.1693 10.1393H22.2094C21.9614 10.4014 21.8008 10.785 21.7607 11.1139H21.3644V9.282H21.3646ZM21.8964 11.6984C21.8964 11.548 22.0188 11.4254 22.1693 11.4254H23.5824C23.7329 11.4254 23.8553 11.5478 23.8553 11.6984C23.8553 11.849 23.7329 11.9713 23.5824 11.9713H22.1693C22.0188 11.9714 21.8964 11.8489 21.8964 11.6984ZM35.0909 9.82799H34.8793H24.0989C24.1421 9.74644 24.167 9.65363 24.167 9.55503C24.167 9.45649 24.1423 9.36362 24.0989 9.28214H34.7876L35.0909 9.82799ZM23.6728 6.74176V8.97067H23.5824H22.1693H22.079V6.74176H22.1693H23.5824H23.6728ZM22.1694 5.57284H22.0791V3.344H23.6729V5.57291H23.5825L22.1694 5.57284ZM22.8591 2.05781C23.2274 2.05781 23.5885 2.57697 23.6599 3.0324H22.0742C22.1421 2.57061 22.4907 2.05781 22.8591 2.05781ZM21.7507 5.09044V5.75034C21.6483 5.85565 21.585 5.99912 21.585 6.15727C21.585 6.2558 21.6097 6.34867 21.6531 6.43023H14.8584C14.9018 6.34867 14.9265 6.2558 14.9265 6.15727C14.9265 5.99067 14.8561 5.84056 14.744 5.73406V5.72854V5.09044H21.7507ZM13.6354 2.05781C14.0037 2.05781 14.3524 2.57054 14.4202 3.0324H12.8505C12.9183 2.57061 13.2671 2.05781 13.6354 2.05781ZM12.8385 5.57284V3.344H14.4323V4.93474V5.57291H14.3419H12.9288L12.8385 5.57284ZM14.3419 6.74176H14.4322V8.97067H14.3419H13.0161H12.9288H12.8385V6.74176H12.9288H14.3419ZM1.72365 9.282H12.4123C12.3691 9.36355 12.3443 9.45635 12.3443 9.55489C12.3443 9.65349 12.369 9.74637 12.4123 9.82785H1.63204H1.4205L1.72365 9.282ZM1.78781 10.1395H12.5269V11.114H1.78781V10.1395ZM1.63204 11.4255H12.4123C12.3691 11.5071 12.3443 11.5999 12.3443 11.6985C12.3443 11.7971 12.369 11.8899 12.4123 11.9714H1.72365L1.42043 11.4255H1.63204ZM8.07899 18.1777C8.12399 18.0632 8.1467 17.943 8.1467 17.8191C8.1467 17.295 7.34138 16.6892 7.24948 16.6218C7.19469 16.5816 7.12013 16.5816 7.06534 16.6218C6.97352 16.6892 6.16812 17.295 6.16812 17.8191C6.16812 17.9429 6.19083 18.0632 6.23583 18.1777C6.12891 18.3493 6.0728 18.5447 6.0728 18.7479V21.6883H1.78781V12.2828H12.5269V21.6883H8.24195V18.7479C8.24195 18.5447 8.18591 18.3493 8.07899 18.1777ZM12.8385 21.6884V12.2829H12.9288H14.3419H14.4322V21.6884H12.8385ZM18.264 15.1194C17.2579 15.1194 16.4392 15.938 16.4392 16.9443V21.6884H14.7437V12.1271C14.7437 12.1255 14.7433 12.1238 14.7432 12.1222C14.8556 12.0157 14.9263 11.8653 14.9263 11.6985C14.9263 11.6001 14.9016 11.5073 14.8582 11.4256H21.6529C21.6096 11.5071 21.5848 11.6001 21.5848 11.6985C21.5848 11.8654 21.6554 12.0157 21.7679 12.1222C21.7678 12.1238 21.7674 12.1255 21.7674 12.1271V21.6883H20.0887V16.9442C20.0889 15.938 19.2702 15.1194 18.264 15.1194ZM22.0791 12.2829H22.1694H23.5825H23.6729V21.6884H22.0791V12.2829ZM34.7235 21.6884H30.4386V18.748C30.4386 18.5447 30.3824 18.3494 30.2755 18.1778C30.3205 18.0632 30.3433 17.9431 30.3433 17.8192C30.3433 17.2951 29.538 16.6893 29.4462 16.6219C29.3913 16.5817 29.3167 16.5817 29.2619 16.6219C29.1701 16.6893 28.3646 17.2951 28.3646 17.8192C28.3646 17.943 28.3874 18.0632 28.4324 18.1778C28.3255 18.3494 28.2694 18.5447 28.2694 18.748V21.6884H23.9844V12.2829H34.7235L34.7235 21.6884ZM34.7876 11.9714H24.0989C24.1421 11.8899 24.167 11.7971 24.167 11.6985C24.167 11.5999 24.1423 11.5071 24.0989 11.4255H34.8793H35.0909L34.7876 11.9714Z"/>
</mask>
<path d="M35.3556 11.114H35.0349V10.1395H35.3556C35.356 10.1395 35.3564 10.1395 35.3567 10.1395C35.4426 10.1395 35.5125 10.0697 35.5125 9.98369C35.5125 9.95021 35.502 9.91919 35.4839 9.89375L35.0156 9.05068C34.9881 9.00128 34.9359 8.9706 34.8795 8.9706H23.9843V6.586C23.9843 6.58425 23.9838 6.58271 23.9838 6.58096C24.0962 6.47439 24.1669 6.32408 24.1669 6.15727C24.1669 5.99046 24.0962 5.84014 23.9838 5.73357C23.9838 5.73189 23.9843 5.73028 23.9843 5.72854V3.18816C23.9843 2.66013 23.5934 1.9003 23.0317 1.76696V1.15584C23.0317 1.06988 22.962 1.00007 22.8759 1.00007C22.7899 1.00007 22.7202 1.06981 22.7202 1.15584V1.75969C22.1321 1.86906 21.7507 2.6551 21.7507 3.18823C21.7507 3.21318 21.7571 3.23638 21.7675 3.25728V4.7789H18.4197V1.52901C18.4197 1.44299 18.3501 1.37324 18.264 1.37324C18.178 1.37324 18.1083 1.44299 18.1083 1.52901V4.7789H14.7437V3.18816C14.7437 2.66027 14.3695 1.88422 13.7911 1.76305V1.15577C13.7911 1.06981 13.7213 1 13.6353 1C13.5493 1 13.4795 1.06974 13.4795 1.15577V1.76305C12.901 1.88422 12.5269 2.6602 12.5269 3.18816V5.72854C12.5269 5.73028 12.5273 5.73182 12.5274 5.7335C12.4149 5.84007 12.3442 5.99039 12.3442 6.1572C12.3442 6.32401 12.4149 6.47439 12.5274 6.58089C12.5273 6.58257 12.5269 6.58411 12.5269 6.58586V8.97046H1.63204C1.57543 8.97046 1.52337 9.00114 1.49591 9.05054L1.01959 9.90807C0.992822 9.95636 0.993521 10.0151 1.02147 10.0627C1.04943 10.1103 1.10051 10.1395 1.15572 10.1395H1.47627V11.114H1.15579C1.10058 11.114 1.0495 11.1432 1.02154 11.1908C0.993591 11.2384 0.992822 11.2972 1.01966 11.3454L1.47634 12.1676V21.8442C1.47634 21.9301 1.54608 22 1.63211 22H6.22857C6.31459 22 6.38433 21.9303 6.38433 21.8442V18.748C6.38433 18.5811 6.43752 18.4217 6.53822 18.2869C6.57351 18.2394 6.57903 18.1762 6.55247 18.1235C6.50411 18.0276 6.47959 17.9252 6.47959 17.8192C6.47959 17.5693 6.86366 17.1785 7.15745 16.9439C7.45116 17.1785 7.83524 17.5693 7.83524 17.8192C7.83524 17.9253 7.81071 18.0276 7.76235 18.1235C7.73579 18.1762 7.74132 18.2394 7.77661 18.2869C7.87731 18.4217 7.93056 18.5811 7.93056 18.748V21.8442C7.93056 21.9301 8.0003 22 8.08633 22H12.6828H14.5881H16.5951C16.6811 22 16.7509 21.9303 16.7509 21.8442V16.9444C16.7509 16.1099 17.4298 15.431 18.2642 15.431C19.0986 15.431 19.7775 16.1099 19.7775 16.9444V21.8442C19.7775 21.9301 19.8472 22 19.9332 22H21.9234H23.8287H28.4251C28.5111 22 28.5809 21.9303 28.5809 21.8442V18.748C28.5809 18.5811 28.6342 18.4217 28.7348 18.2869C28.7702 18.2394 28.7756 18.1762 28.7491 18.1235C28.7007 18.0276 28.6761 17.9252 28.6761 17.8192C28.6761 17.5693 29.0603 17.1785 29.3539 16.9439C29.6476 17.1785 30.0317 17.5693 30.0317 17.8192C30.0317 17.9253 30.0071 18.0276 29.9587 18.1235C29.9321 18.1762 29.9376 18.2394 29.973 18.2869C30.0736 18.4217 30.1269 18.5811 30.1269 18.748V21.8442C30.1269 21.9301 30.1966 22 30.2826 22H34.8791C34.9651 22 35.0349 21.9303 35.0349 21.8442V12.1676L35.4915 11.3454C35.5183 11.2972 35.5176 11.2384 35.4897 11.1908C35.462 11.1432 35.4107 11.114 35.3556 11.114ZM34.7235 11.114H24.0012V10.1395H34.7235V11.114H34.7235ZM20.6263 11.114V9.28207H21.053V11.114H20.6263ZM19.888 11.114V9.28207H20.3147V11.114H19.888ZM19.1497 11.114V9.28207H19.5764V11.114H19.1497ZM18.4113 11.114V9.28207H18.8381V11.114H18.4113ZM17.6732 11.114V9.28207H18.0999V11.114H17.6732ZM16.9348 11.114V9.28207H17.3616V11.114H16.9348ZM16.1966 11.114V9.28207H16.6233V11.114H16.1966ZM15.4582 11.114V9.28207H15.885V11.114H15.4582ZM14.7667 11.114C14.7238 10.7831 14.5519 10.4008 14.2959 10.1395H14.3419C14.6642 10.1395 14.9264 9.87733 14.9264 9.55503C14.9264 9.45649 14.9016 9.36362 14.8583 9.28214H15.1467V11.1141L14.7667 11.114ZM12.6559 6.15727C12.6559 6.00674 12.7783 5.8843 12.9288 5.8843H14.3419C14.4925 5.8843 14.6149 6.00674 14.6149 6.15727C14.6149 6.30779 14.4925 6.43023 14.3419 6.43023H12.9288C12.7782 6.43023 12.6559 6.30779 12.6559 6.15727ZM14.7438 6.74176H21.7676V8.97067H14.7438V6.74176ZM23.8554 6.15727C23.8554 6.30779 23.733 6.43023 23.5825 6.43023H22.1694C22.0189 6.43023 21.8965 6.30779 21.8965 6.15727C21.8965 6.00674 22.0189 5.8843 22.1694 5.8843H23.5825C23.733 5.88437 23.8554 6.00681 23.8554 6.15727ZM22.1694 9.282H23.5825C23.733 9.282 23.8554 9.40443 23.8554 9.55489C23.8554 9.70541 23.733 9.82785 23.5825 9.82785H22.1694C22.0189 9.82785 21.8965 9.70541 21.8965 9.55489C21.8964 9.40457 22.0188 9.282 22.1694 9.282ZM23.5824 10.1395H23.6728V10.3235C23.6259 10.2576 23.5748 10.1958 23.5196 10.1395H23.5824ZM22.8591 10.1395C23.2293 10.1395 23.5921 10.6425 23.6729 11.0926V11.114H23.5825H22.1694H22.0742C22.1421 10.6522 22.4907 10.1395 22.8591 10.1395ZM14.4527 11.114H14.3419H12.9288H12.8504C12.9182 10.6522 13.2669 10.1395 13.6353 10.1395C14.0115 10.1395 14.3799 10.6586 14.4527 11.114ZM12.9288 9.82799C12.7783 9.82799 12.6559 9.70555 12.6559 9.55503C12.6559 9.40457 12.7783 9.28214 12.9288 9.28214H14.3419C14.4925 9.28214 14.6149 9.40457 14.6149 9.55503C14.6149 9.70555 14.4925 9.82799 14.3419 9.82799H12.9288ZM12.9288 10.1395H12.9858C12.9325 10.1958 12.8834 10.2576 12.8386 10.3234V10.1395H12.9288ZM12.6559 11.6984C12.6559 11.548 12.7783 11.4254 12.9288 11.4254H14.3419C14.4925 11.4254 14.6149 11.5478 14.6149 11.6984C14.6149 11.849 14.4925 11.9713 14.3419 11.9713H12.9288C12.7782 11.9714 12.6559 11.8489 12.6559 11.6984ZM21.3646 9.282H21.6531C21.6097 9.36355 21.5849 9.45635 21.5849 9.55489C21.5849 9.87719 21.847 10.1393 22.1693 10.1393H22.2094C21.9614 10.4014 21.8008 10.785 21.7607 11.1139H21.3644V9.282H21.3646ZM21.8964 11.6984C21.8964 11.548 22.0188 11.4254 22.1693 11.4254H23.5824C23.7329 11.4254 23.8553 11.5478 23.8553 11.6984C23.8553 11.849 23.7329 11.9713 23.5824 11.9713H22.1693C22.0188 11.9714 21.8964 11.8489 21.8964 11.6984ZM35.0909 9.82799H34.8793H24.0989C24.1421 9.74644 24.167 9.65363 24.167 9.55503C24.167 9.45649 24.1423 9.36362 24.0989 9.28214H34.7876L35.0909 9.82799ZM23.6728 6.74176V8.97067H23.5824H22.1693H22.079V6.74176H22.1693H23.5824H23.6728ZM22.1694 5.57284H22.0791V3.344H23.6729V5.57291H23.5825L22.1694 5.57284ZM22.8591 2.05781C23.2274 2.05781 23.5885 2.57697 23.6599 3.0324H22.0742C22.1421 2.57061 22.4907 2.05781 22.8591 2.05781ZM21.7507 5.09044V5.75034C21.6483 5.85565 21.585 5.99912 21.585 6.15727C21.585 6.2558 21.6097 6.34867 21.6531 6.43023H14.8584C14.9018 6.34867 14.9265 6.2558 14.9265 6.15727C14.9265 5.99067 14.8561 5.84056 14.744 5.73406V5.72854V5.09044H21.7507ZM13.6354 2.05781C14.0037 2.05781 14.3524 2.57054 14.4202 3.0324H12.8505C12.9183 2.57061 13.2671 2.05781 13.6354 2.05781ZM12.8385 5.57284V3.344H14.4323V4.93474V5.57291H14.3419H12.9288L12.8385 5.57284ZM14.3419 6.74176H14.4322V8.97067H14.3419H13.0161H12.9288H12.8385V6.74176H12.9288H14.3419ZM1.72365 9.282H12.4123C12.3691 9.36355 12.3443 9.45635 12.3443 9.55489C12.3443 9.65349 12.369 9.74637 12.4123 9.82785H1.63204H1.4205L1.72365 9.282ZM1.78781 10.1395H12.5269V11.114H1.78781V10.1395ZM1.63204 11.4255H12.4123C12.3691 11.5071 12.3443 11.5999 12.3443 11.6985C12.3443 11.7971 12.369 11.8899 12.4123 11.9714H1.72365L1.42043 11.4255H1.63204ZM8.07899 18.1777C8.12399 18.0632 8.1467 17.943 8.1467 17.8191C8.1467 17.295 7.34138 16.6892 7.24948 16.6218C7.19469 16.5816 7.12013 16.5816 7.06534 16.6218C6.97352 16.6892 6.16812 17.295 6.16812 17.8191C6.16812 17.9429 6.19083 18.0632 6.23583 18.1777C6.12891 18.3493 6.0728 18.5447 6.0728 18.7479V21.6883H1.78781V12.2828H12.5269V21.6883H8.24195V18.7479C8.24195 18.5447 8.18591 18.3493 8.07899 18.1777ZM12.8385 21.6884V12.2829H12.9288H14.3419H14.4322V21.6884H12.8385ZM18.264 15.1194C17.2579 15.1194 16.4392 15.938 16.4392 16.9443V21.6884H14.7437V12.1271C14.7437 12.1255 14.7433 12.1238 14.7432 12.1222C14.8556 12.0157 14.9263 11.8653 14.9263 11.6985C14.9263 11.6001 14.9016 11.5073 14.8582 11.4256H21.6529C21.6096 11.5071 21.5848 11.6001 21.5848 11.6985C21.5848 11.8654 21.6554 12.0157 21.7679 12.1222C21.7678 12.1238 21.7674 12.1255 21.7674 12.1271V21.6883H20.0887V16.9442C20.0889 15.938 19.2702 15.1194 18.264 15.1194ZM22.0791 12.2829H22.1694H23.5825H23.6729V21.6884H22.0791V12.2829ZM34.7235 21.6884H30.4386V18.748C30.4386 18.5447 30.3824 18.3494 30.2755 18.1778C30.3205 18.0632 30.3433 17.9431 30.3433 17.8192C30.3433 17.2951 29.538 16.6893 29.4462 16.6219C29.3913 16.5817 29.3167 16.5817 29.2619 16.6219C29.1701 16.6893 28.3646 17.2951 28.3646 17.8192C28.3646 17.943 28.3874 18.0632 28.4324 18.1778C28.3255 18.3494 28.2694 18.5447 28.2694 18.748V21.6884H23.9844V12.2829H34.7235L34.7235 21.6884ZM34.7876 11.9714H24.0989C24.1421 11.8899 24.167 11.7971 24.167 11.6985C24.167 11.5999 24.1423 11.5071 24.0989 11.4255H34.8793H35.0909L34.7876 11.9714Z" fill="white"/>
<path d="M35.3556 11.114H35.0349V10.1395H35.3556C35.356 10.1395 35.3564 10.1395 35.3567 10.1395C35.4426 10.1395 35.5125 10.0697 35.5125 9.98369C35.5125 9.95021 35.502 9.91919 35.4839 9.89375L35.0156 9.05068C34.9881 9.00128 34.9359 8.9706 34.8795 8.9706H23.9843V6.586C23.9843 6.58425 23.9838 6.58271 23.9838 6.58096C24.0962 6.47439 24.1669 6.32408 24.1669 6.15727C24.1669 5.99046 24.0962 5.84014 23.9838 5.73357C23.9838 5.73189 23.9843 5.73028 23.9843 5.72854V3.18816C23.9843 2.66013 23.5934 1.9003 23.0317 1.76696V1.15584C23.0317 1.06988 22.962 1.00007 22.8759 1.00007C22.7899 1.00007 22.7202 1.06981 22.7202 1.15584V1.75969C22.1321 1.86906 21.7507 2.6551 21.7507 3.18823C21.7507 3.21318 21.7571 3.23638 21.7675 3.25728V4.7789H18.4197V1.52901C18.4197 1.44299 18.3501 1.37324 18.264 1.37324C18.178 1.37324 18.1083 1.44299 18.1083 1.52901V4.7789H14.7437V3.18816C14.7437 2.66027 14.3695 1.88422 13.7911 1.76305V1.15577C13.7911 1.06981 13.7213 1 13.6353 1C13.5493 1 13.4795 1.06974 13.4795 1.15577V1.76305C12.901 1.88422 12.5269 2.6602 12.5269 3.18816V5.72854C12.5269 5.73028 12.5273 5.73182 12.5274 5.7335C12.4149 5.84007 12.3442 5.99039 12.3442 6.1572C12.3442 6.32401 12.4149 6.47439 12.5274 6.58089C12.5273 6.58257 12.5269 6.58411 12.5269 6.58586V8.97046H1.63204C1.57543 8.97046 1.52337 9.00114 1.49591 9.05054L1.01959 9.90807C0.992822 9.95636 0.993521 10.0151 1.02147 10.0627C1.04943 10.1103 1.10051 10.1395 1.15572 10.1395H1.47627V11.114H1.15579C1.10058 11.114 1.0495 11.1432 1.02154 11.1908C0.993591 11.2384 0.992822 11.2972 1.01966 11.3454L1.47634 12.1676V21.8442C1.47634 21.9301 1.54608 22 1.63211 22H6.22857C6.31459 22 6.38433 21.9303 6.38433 21.8442V18.748C6.38433 18.5811 6.43752 18.4217 6.53822 18.2869C6.57351 18.2394 6.57903 18.1762 6.55247 18.1235C6.50411 18.0276 6.47959 17.9252 6.47959 17.8192C6.47959 17.5693 6.86366 17.1785 7.15745 16.9439C7.45116 17.1785 7.83524 17.5693 7.83524 17.8192C7.83524 17.9253 7.81071 18.0276 7.76235 18.1235C7.73579 18.1762 7.74132 18.2394 7.77661 18.2869C7.87731 18.4217 7.93056 18.5811 7.93056 18.748V21.8442C7.93056 21.9301 8.0003 22 8.08633 22H12.6828H14.5881H16.5951C16.6811 22 16.7509 21.9303 16.7509 21.8442V16.9444C16.7509 16.1099 17.4298 15.431 18.2642 15.431C19.0986 15.431 19.7775 16.1099 19.7775 16.9444V21.8442C19.7775 21.9301 19.8472 22 19.9332 22H21.9234H23.8287H28.4251C28.5111 22 28.5809 21.9303 28.5809 21.8442V18.748C28.5809 18.5811 28.6342 18.4217 28.7348 18.2869C28.7702 18.2394 28.7756 18.1762 28.7491 18.1235C28.7007 18.0276 28.6761 17.9252 28.6761 17.8192C28.6761 17.5693 29.0603 17.1785 29.3539 16.9439C29.6476 17.1785 30.0317 17.5693 30.0317 17.8192C30.0317 17.9253 30.0071 18.0276 29.9587 18.1235C29.9321 18.1762 29.9376 18.2394 29.973 18.2869C30.0736 18.4217 30.1269 18.5811 30.1269 18.748V21.8442C30.1269 21.9301 30.1966 22 30.2826 22H34.8791C34.9651 22 35.0349 21.9303 35.0349 21.8442V12.1676L35.4915 11.3454C35.5183 11.2972 35.5176 11.2384 35.4897 11.1908C35.462 11.1432 35.4107 11.114 35.3556 11.114ZM34.7235 11.114H24.0012V10.1395H34.7235V11.114H34.7235ZM20.6263 11.114V9.28207H21.053V11.114H20.6263ZM19.888 11.114V9.28207H20.3147V11.114H19.888ZM19.1497 11.114V9.28207H19.5764V11.114H19.1497ZM18.4113 11.114V9.28207H18.8381V11.114H18.4113ZM17.6732 11.114V9.28207H18.0999V11.114H17.6732ZM16.9348 11.114V9.28207H17.3616V11.114H16.9348ZM16.1966 11.114V9.28207H16.6233V11.114H16.1966ZM15.4582 11.114V9.28207H15.885V11.114H15.4582ZM14.7667 11.114C14.7238 10.7831 14.5519 10.4008 14.2959 10.1395H14.3419C14.6642 10.1395 14.9264 9.87733 14.9264 9.55503C14.9264 9.45649 14.9016 9.36362 14.8583 9.28214H15.1467V11.1141L14.7667 11.114ZM12.6559 6.15727C12.6559 6.00674 12.7783 5.8843 12.9288 5.8843H14.3419C14.4925 5.8843 14.6149 6.00674 14.6149 6.15727C14.6149 6.30779 14.4925 6.43023 14.3419 6.43023H12.9288C12.7782 6.43023 12.6559 6.30779 12.6559 6.15727ZM14.7438 6.74176H21.7676V8.97067H14.7438V6.74176ZM23.8554 6.15727C23.8554 6.30779 23.733 6.43023 23.5825 6.43023H22.1694C22.0189 6.43023 21.8965 6.30779 21.8965 6.15727C21.8965 6.00674 22.0189 5.8843 22.1694 5.8843H23.5825C23.733 5.88437 23.8554 6.00681 23.8554 6.15727ZM22.1694 9.282H23.5825C23.733 9.282 23.8554 9.40443 23.8554 9.55489C23.8554 9.70541 23.733 9.82785 23.5825 9.82785H22.1694C22.0189 9.82785 21.8965 9.70541 21.8965 9.55489C21.8964 9.40457 22.0188 9.282 22.1694 9.282ZM23.5824 10.1395H23.6728V10.3235C23.6259 10.2576 23.5748 10.1958 23.5196 10.1395H23.5824ZM22.8591 10.1395C23.2293 10.1395 23.5921 10.6425 23.6729 11.0926V11.114H23.5825H22.1694H22.0742C22.1421 10.6522 22.4907 10.1395 22.8591 10.1395ZM14.4527 11.114H14.3419H12.9288H12.8504C12.9182 10.6522 13.2669 10.1395 13.6353 10.1395C14.0115 10.1395 14.3799 10.6586 14.4527 11.114ZM12.9288 9.82799C12.7783 9.82799 12.6559 9.70555 12.6559 9.55503C12.6559 9.40457 12.7783 9.28214 12.9288 9.28214H14.3419C14.4925 9.28214 14.6149 9.40457 14.6149 9.55503C14.6149 9.70555 14.4925 9.82799 14.3419 9.82799H12.9288ZM12.9288 10.1395H12.9858C12.9325 10.1958 12.8834 10.2576 12.8386 10.3234V10.1395H12.9288ZM12.6559 11.6984C12.6559 11.548 12.7783 11.4254 12.9288 11.4254H14.3419C14.4925 11.4254 14.6149 11.5478 14.6149 11.6984C14.6149 11.849 14.4925 11.9713 14.3419 11.9713H12.9288C12.7782 11.9714 12.6559 11.8489 12.6559 11.6984ZM21.3646 9.282H21.6531C21.6097 9.36355 21.5849 9.45635 21.5849 9.55489C21.5849 9.87719 21.847 10.1393 22.1693 10.1393H22.2094C21.9614 10.4014 21.8008 10.785 21.7607 11.1139H21.3644V9.282H21.3646ZM21.8964 11.6984C21.8964 11.548 22.0188 11.4254 22.1693 11.4254H23.5824C23.7329 11.4254 23.8553 11.5478 23.8553 11.6984C23.8553 11.849 23.7329 11.9713 23.5824 11.9713H22.1693C22.0188 11.9714 21.8964 11.8489 21.8964 11.6984ZM35.0909 9.82799H34.8793H24.0989C24.1421 9.74644 24.167 9.65363 24.167 9.55503C24.167 9.45649 24.1423 9.36362 24.0989 9.28214H34.7876L35.0909 9.82799ZM23.6728 6.74176V8.97067H23.5824H22.1693H22.079V6.74176H22.1693H23.5824H23.6728ZM22.1694 5.57284H22.0791V3.344H23.6729V5.57291H23.5825L22.1694 5.57284ZM22.8591 2.05781C23.2274 2.05781 23.5885 2.57697 23.6599 3.0324H22.0742C22.1421 2.57061 22.4907 2.05781 22.8591 2.05781ZM21.7507 5.09044V5.75034C21.6483 5.85565 21.585 5.99912 21.585 6.15727C21.585 6.2558 21.6097 6.34867 21.6531 6.43023H14.8584C14.9018 6.34867 14.9265 6.2558 14.9265 6.15727C14.9265 5.99067 14.8561 5.84056 14.744 5.73406V5.72854V5.09044H21.7507ZM13.6354 2.05781C14.0037 2.05781 14.3524 2.57054 14.4202 3.0324H12.8505C12.9183 2.57061 13.2671 2.05781 13.6354 2.05781ZM12.8385 5.57284V3.344H14.4323V4.93474V5.57291H14.3419H12.9288L12.8385 5.57284ZM14.3419 6.74176H14.4322V8.97067H14.3419H13.0161H12.9288H12.8385V6.74176H12.9288H14.3419ZM1.72365 9.282H12.4123C12.3691 9.36355 12.3443 9.45635 12.3443 9.55489C12.3443 9.65349 12.369 9.74637 12.4123 9.82785H1.63204H1.4205L1.72365 9.282ZM1.78781 10.1395H12.5269V11.114H1.78781V10.1395ZM1.63204 11.4255H12.4123C12.3691 11.5071 12.3443 11.5999 12.3443 11.6985C12.3443 11.7971 12.369 11.8899 12.4123 11.9714H1.72365L1.42043 11.4255H1.63204ZM8.07899 18.1777C8.12399 18.0632 8.1467 17.943 8.1467 17.8191C8.1467 17.295 7.34138 16.6892 7.24948 16.6218C7.19469 16.5816 7.12013 16.5816 7.06534 16.6218C6.97352 16.6892 6.16812 17.295 6.16812 17.8191C6.16812 17.9429 6.19083 18.0632 6.23583 18.1777C6.12891 18.3493 6.0728 18.5447 6.0728 18.7479V21.6883H1.78781V12.2828H12.5269V21.6883H8.24195V18.7479C8.24195 18.5447 8.18591 18.3493 8.07899 18.1777ZM12.8385 21.6884V12.2829H12.9288H14.3419H14.4322V21.6884H12.8385ZM18.264 15.1194C17.2579 15.1194 16.4392 15.938 16.4392 16.9443V21.6884H14.7437V12.1271C14.7437 12.1255 14.7433 12.1238 14.7432 12.1222C14.8556 12.0157 14.9263 11.8653 14.9263 11.6985C14.9263 11.6001 14.9016 11.5073 14.8582 11.4256H21.6529C21.6096 11.5071 21.5848 11.6001 21.5848 11.6985C21.5848 11.8654 21.6554 12.0157 21.7679 12.1222C21.7678 12.1238 21.7674 12.1255 21.7674 12.1271V21.6883H20.0887V16.9442C20.0889 15.938 19.2702 15.1194 18.264 15.1194ZM22.0791 12.2829H22.1694H23.5825H23.6729V21.6884H22.0791V12.2829ZM34.7235 21.6884H30.4386V18.748C30.4386 18.5447 30.3824 18.3494 30.2755 18.1778C30.3205 18.0632 30.3433 17.9431 30.3433 17.8192C30.3433 17.2951 29.538 16.6893 29.4462 16.6219C29.3913 16.5817 29.3167 16.5817 29.2619 16.6219C29.1701 16.6893 28.3646 17.2951 28.3646 17.8192C28.3646 17.943 28.3874 18.0632 28.4324 18.1778C28.3255 18.3494 28.2694 18.5447 28.2694 18.748V21.6884H23.9844V12.2829H34.7235L34.7235 21.6884ZM34.7876 11.9714H24.0989C24.1421 11.8899 24.167 11.7971 24.167 11.6985C24.167 11.5999 24.1423 11.5071 24.0989 11.4255H34.8793H35.0909L34.7876 11.9714Z" stroke="white" stroke-width="0.2" mask="url(#path-1-outside-1)"/>
</svg>
