<?xml version="1.0" standalone="no"?>
<!DOCTYPE svg PUBLIC "-//W3C//DTD SVG 20010904//EN"
 "http://www.w3.org/TR/2001/REC-SVG-20010904/DTD/svg10.dtd">
<svg version="1.0" xmlns="http://www.w3.org/2000/svg"
 width="512.000000pt" height="512.000000pt" viewBox="0 0 512.000000 512.000000"
 preserveAspectRatio="xMidYMid meet">
<metadata>
Created by potrace 1.16, written by Peter Selinger 2001-2019
</metadata>
<g transform="translate(0.000000,512.000000) scale(0.100000,-0.100000)"
fill="#000000" stroke="none">
<path d="M3363 5059 c-18 -3 -44 -14 -59 -23 -45 -30 -54 -70 -54 -236 l0
-150 -690 0 -690 0 0 150 c0 171 -9 208 -62 240 -42 25 -119 27 -159 3 -55
-33 -69 -81 -69 -245 l0 -146 -257 -4 c-293 -5 -336 -13 -451 -88 -112 -72
-180 -157 -231 -289 l-26 -66 -3 -1820 c-3 -2012 -6 -1892 60 -2027 41 -82
152 -195 233 -235 133 -67 15 -63 1655 -63 1640 0 1522 -4 1655 63 82 41 192
153 233 237 66 134 63 24 60 2028 l-3 1817 -21 56 c-47 122 -99 197 -186 265
-131 103 -220 124 -530 124 l-228 0 0 145 c0 101 -4 156 -14 178 -28 66 -94
101 -163 86z m-1783 -844 c0 -166 12 -212 64 -244 52 -32 95 -35 146 -9 71 36
80 64 80 246 l0 152 690 0 690 0 0 -152 c0 -182 9 -210 80 -246 74 -38 154
-11 190 63 17 36 20 62 20 189 l0 147 243 -3 c226 -3 245 -4 282 -25 52 -28
101 -77 128 -127 l22 -41 0 -1815 c0 -1717 -1 -1817 -18 -1847 -30 -55 -78
-103 -131 -131 l-51 -27 -1455 0 -1455 0 -51 27 c-53 28 -101 76 -131 131 -17
30 -18 130 -18 1847 l0 1815 22 41 c36 68 102 123 173 145 14 4 127 8 253 8
l227 1 0 -145z"/>
<path d="M1380 3102 c-45 -22 -72 -70 -72 -128 0 -51 18 -83 66 -118 27 -21
34 -21 1164 -24 779 -2 1149 0 1174 8 20 5 50 26 67 45 26 30 31 44 31 88 0
65 -27 113 -75 133 -29 12 -205 14 -1177 14 -1068 0 -1145 -1 -1178 -18z"/>
<path d="M1385 2270 c-51 -25 -77 -68 -77 -126 0 -56 27 -104 72 -126 33 -17
110 -18 1178 -18 1268 0 1192 -4 1233 64 30 49 26 126 -8 167 -53 62 14 59
-1225 59 -1112 0 -1134 0 -1173 -20z"/>
<path d="M1384 1440 c-31 -12 -74 -68 -76 -98 -4 -82 12 -120 65 -152 31 -19
60 -20 1188 -20 l1156 0 34 23 c44 29 59 60 59 123 0 37 -6 59 -21 78 -47 59
26 56 -1231 55 -634 0 -1162 -4 -1174 -9z"/>
</g>
</svg>
