<svg width="26" height="26" viewBox="0 0 26 26" fill="none" xmlns="http://www.w3.org/2000/svg">
<path d="M19.1673 13.0005C19.1643 12.0293 19.0602 11.0612 18.8567 10.1116H21.4567C21.3228 9.7155 21.1611 9.32935 20.9729 8.95603H18.5534C18.0986 7.43652 17.3931 6.00365 16.4662 4.71659C15.874 4.46757 15.2564 4.28353 14.6245 4.1677C15.8944 5.53215 16.853 7.15603 17.434 8.92714H13.5412V4.04492H12.4579V8.93437H8.56507C9.14724 7.16004 10.1083 5.53356 11.3817 4.1677C10.7525 4.2816 10.1375 4.46321 9.5473 4.70937C8.61668 5.99104 7.90638 7.41897 7.44563 8.93437H5.01174C4.82004 9.3145 4.65591 9.70792 4.52063 10.1116H7.1423C6.93884 11.0612 6.83476 12.0293 6.83174 13.0005C6.83374 14.0627 6.95486 15.1214 7.19285 16.1566H4.63619C4.7856 16.5614 4.96422 16.9549 5.17063 17.3338H7.50341C7.94556 18.7174 8.60105 20.0235 9.44619 21.2049C10.0514 21.4645 10.6836 21.6559 11.3312 21.7755C10.1525 20.4898 9.24595 18.9789 8.66619 17.3338H12.4651V21.9127H13.5484V17.3338H17.3329C16.7511 18.9796 15.8421 20.4905 14.6606 21.7755C15.3112 21.6517 15.9459 21.4555 16.5529 21.1905C17.3967 20.0135 18.0521 18.7124 18.4956 17.3338H20.8067C21.0122 16.9619 21.1908 16.5757 21.3412 16.1783H18.7773C19.0266 15.1371 19.1575 14.071 19.1673 13.0005ZM12.4579 16.1566H8.3123C7.80383 14.1689 7.78154 12.088 8.2473 10.0899H12.4579V16.1566ZM17.6867 16.1566H13.5412V10.1116H17.7517C17.9592 11.0604 18.0609 12.0293 18.0551 13.0005C18.0609 14.0636 17.9373 15.1234 17.6867 16.1566Z" fill="white"/>
<path d="M13 1.44434C10.7145 1.44434 8.4804 2.12206 6.5801 3.3918C4.67979 4.66154 3.19869 6.46627 2.32408 8.57777C1.44946 10.6893 1.22063 13.0127 1.6665 15.2543C2.11237 17.4958 3.21293 19.5548 4.82901 21.1709C6.44508 22.787 8.50408 23.8875 10.7456 24.3334C12.9872 24.7793 15.3106 24.5504 17.4221 23.6758C19.5336 22.8012 21.3384 21.3201 22.6081 19.4198C23.8779 17.5195 24.5556 15.2854 24.5556 12.9999C24.5556 9.93517 23.3381 6.99597 21.171 4.82888C19.0039 2.66179 16.0647 1.44434 13 1.44434ZM13 23.111C11.0002 23.111 9.04535 22.518 7.38259 21.407C5.71982 20.2959 4.42386 18.7168 3.65857 16.8692C2.89328 15.0217 2.69305 12.9887 3.08319 11.0273C3.47333 9.06595 4.43632 7.26432 5.85038 5.85026C7.26445 4.43619 9.06608 3.4732 11.0274 3.08306C12.9888 2.69292 15.0218 2.89316 16.8694 3.65844C18.7169 4.42373 20.2961 5.7197 21.4071 7.38246C22.5181 9.04522 23.1111 11.0001 23.1111 12.9999C23.1111 15.6815 22.0459 18.2533 20.1497 20.1495C18.2535 22.0457 15.6817 23.111 13 23.111Z" fill="white"/>
</svg>
