<svg width="12" height="18" viewBox="0 0 12 18" fill="none" xmlns="http://www.w3.org/2000/svg">
<path d="M3.9 10.2975C3.7645 10.1527 3.57717 10.0675 3.37899 10.0605C3.18081 10.0534 2.98792 10.1252 2.8425 10.26C1.95575 11.0411 1.24411 12.0008 0.754244 13.0762C0.264377 14.1515 0.00734461 15.3183 0 16.5C0 16.6989 0.0790178 16.8897 0.21967 17.0303C0.360322 17.171 0.551088 17.25 0.75 17.25C0.948912 17.25 1.13968 17.171 1.28033 17.0303C1.42098 16.8897 1.5 16.6989 1.5 16.5C1.50515 15.5237 1.71855 14.5598 2.12596 13.6725C2.53336 12.7853 3.12539 11.9952 3.8625 11.355C4.00728 11.2195 4.09251 11.0322 4.09954 10.834C4.10656 10.6358 4.03482 10.4429 3.9 10.2975ZM11.5275 13.7775C11.2481 12.9691 10.8432 12.2098 10.3275 11.5275C9.55591 10.5279 8.61397 9.67225 7.545 9C9.225 7.9275 12 5.55 12 1.5C12 1.30109 11.921 1.11032 11.7803 0.96967C11.6397 0.829018 11.4489 0.75 11.25 0.75C11.0511 0.75 10.8603 0.829018 10.7197 0.96967C10.579 1.11032 10.5 1.30109 10.5 1.5C10.5 5.55 7.0575 7.6275 6 8.1675C5.27195 7.77947 4.59436 7.3034 3.9825 6.75H6C6.19891 6.75 6.38968 6.67098 6.53033 6.53033C6.67098 6.38968 6.75 6.19891 6.75 6C6.75 5.80109 6.67098 5.61032 6.53033 5.46967C6.38968 5.32902 6.19891 5.25 6 5.25H2.6625C2.35365 4.78166 2.10186 4.27809 1.9125 3.75H8.25C8.44891 3.75 8.63968 3.67098 8.78033 3.53033C8.92098 3.38968 9 3.19891 9 3C9 2.80109 8.92098 2.61032 8.78033 2.46967C8.63968 2.32902 8.44891 2.25 8.25 2.25H1.545C1.51462 2.00116 1.49959 1.75069 1.5 1.5C1.5 1.30109 1.42098 1.11032 1.28033 0.96967C1.13968 0.829018 0.948912 0.75 0.75 0.75C0.551088 0.75 0.360322 0.829018 0.21967 0.96967C0.0790178 1.11032 0 1.30109 0 1.5C0 7.1775 5.475 9.5925 5.7075 9.69C6.55124 10.0954 7.33184 10.6209 8.025 11.25H6C5.80109 11.25 5.61032 11.329 5.46967 11.4697C5.32902 11.6103 5.25 11.8011 5.25 12C5.25 12.1989 5.32902 12.3897 5.46967 12.5303C5.61032 12.671 5.80109 12.75 6 12.75H9.3225C9.63341 13.2172 9.88533 13.721 10.0725 14.25H3.75C3.55109 14.25 3.36032 14.329 3.21967 14.4697C3.07902 14.6103 3 14.8011 3 15C3 15.1989 3.07902 15.3897 3.21967 15.5303C3.36032 15.671 3.55109 15.75 3.75 15.75H10.455C10.4852 15.9989 10.5002 16.2493 10.5 16.5C10.5 16.6989 10.579 16.8897 10.7197 17.0303C10.8603 17.171 11.0511 17.25 11.25 17.25C11.4489 17.25 11.6397 17.171 11.7803 17.0303C11.921 16.8897 12 16.6989 12 16.5C12.0027 15.9482 11.9474 15.3977 11.835 14.8575C11.7619 14.4898 11.6591 14.1286 11.5275 13.7775Z" fill="#FD8A36"/>
</svg>
