<svg width="8" height="13" viewBox="0 0 8 13" fill="none" xmlns="http://www.w3.org/2000/svg">
<path d="M7.70987 6.08177L0.225881 0.23636C0.206325 0.220964 0.182823 0.211396 0.158074 0.208755C0.133325 0.206114 0.108333 0.210507 0.0859688 0.221429C0.0636042 0.232351 0.044774 0.24936 0.0316403 0.270502C0.0185066 0.291643 0.0116022 0.316061 0.0117202 0.34095V1.62425C0.0117202 1.7056 0.049904 1.78363 0.11299 1.83343L6.08956 6.50013L0.11299 11.1668C0.0482438 11.2166 0.0117202 11.2947 0.0117202 11.376V12.6593C0.0117202 12.7705 0.139552 12.832 0.225881 12.7639L7.70987 6.91849C7.77348 6.86887 7.82494 6.8054 7.86033 6.73291C7.89573 6.66041 7.91412 6.5808 7.91412 6.50013C7.91412 6.41946 7.89573 6.33985 7.86033 6.26735C7.82494 6.19486 7.77348 6.13139 7.70987 6.08177Z" fill="black"/>
</svg>
