<svg width="19" height="19" viewBox="0 0 19 19" fill="none" xmlns="http://www.w3.org/2000/svg">
<path fill-rule="evenodd" clip-rule="evenodd" d="M19 9.5C19 12.0196 17.9991 14.4359 16.2175 16.2175C14.4359 17.9991 12.0196 19 9.5 19C6.98044 19 4.56408 17.9991 2.78249 16.2175C1.00089 14.4359 0 12.0196 0 9.5C0 6.98044 1.00089 4.56408 2.78249 2.78249C4.56408 1.00089 6.98044 0 9.5 0C12.0196 0 14.4359 1.00089 16.2175 2.78249C17.9991 4.56408 19 6.98044 19 9.5ZM9.07963 12.6421C8.96813 12.7536 8.9055 12.9048 8.9055 13.0625C8.9055 13.2202 8.96813 13.3714 9.07963 13.4829C9.19112 13.5944 9.34233 13.657 9.5 13.657C9.65767 13.657 9.80888 13.5944 9.92037 13.4829L13.4829 9.92037C13.5382 9.86522 13.582 9.7997 13.612 9.72756C13.6419 9.65543 13.6573 9.5781 13.6573 9.5C13.6573 9.4219 13.6419 9.34457 13.612 9.27244C13.582 9.2003 13.5382 9.13478 13.4829 9.07963L9.92037 5.51713C9.86517 5.46192 9.79963 5.41813 9.72751 5.38825C9.65538 5.35838 9.57807 5.343 9.5 5.343C9.42193 5.343 9.34462 5.35838 9.27249 5.38825C9.20037 5.41813 9.13483 5.46192 9.07963 5.51713C9.02442 5.57233 8.98063 5.63787 8.95075 5.70999C8.92088 5.78212 8.9055 5.85943 8.9055 5.9375C8.9055 6.01557 8.92088 6.09288 8.95075 6.16501C8.98063 6.23713 9.02442 6.30267 9.07963 6.35787L11.6292 8.90625H5.9375C5.78003 8.90625 5.629 8.96881 5.51766 9.08016C5.40631 9.19151 5.34375 9.34253 5.34375 9.5C5.34375 9.65747 5.40631 9.8085 5.51766 9.91985C5.629 10.0312 5.78003 10.0938 5.9375 10.0938H11.6292L9.07963 12.6421Z" fill="black"/>
</svg>
