<svg width="25" height="25" viewBox="0 0 25 25" fill="none" xmlns="http://www.w3.org/2000/svg">
<g clip-path="url(#clip0)">
<path d="M17.2563 22.9153H17.2855C17.8355 22.9153 18.3553 22.6986 18.749 22.3049L21.574 19.4799C21.6709 19.3832 21.7477 19.2684 21.8001 19.1421C21.8525 19.0157 21.8795 18.8802 21.8795 18.7434C21.8795 18.6066 21.8525 18.4712 21.8001 18.3448C21.7477 18.2184 21.6709 18.1036 21.574 18.007L17.4074 13.8403C17.3107 13.7435 17.1959 13.6667 17.0696 13.6143C16.9432 13.5619 16.8077 13.5349 16.6709 13.5349C16.5341 13.5349 16.3986 13.5619 16.2723 13.6143C16.1459 13.6667 16.0311 13.7435 15.9345 13.8403L14.274 15.5007C13.5042 15.2715 12.0678 14.7507 11.1574 13.8403C10.247 12.9299 9.72612 11.4934 9.49696 10.7236L11.1574 9.06322C11.2542 8.96656 11.331 8.85177 11.3834 8.7254C11.4358 8.59903 11.4628 8.46356 11.4628 8.32676C11.4628 8.18995 11.4358 8.05449 11.3834 7.92812C11.331 7.80175 11.2542 7.68695 11.1574 7.5903L6.99071 3.42363C6.79157 3.23567 6.52809 3.13096 6.25425 3.13096C5.98041 3.13096 5.71693 3.23567 5.51779 3.42363L2.69383 6.24863C2.298 6.64447 2.07508 7.18822 2.08342 7.74342C2.10737 9.22676 2.50008 14.3788 6.5605 18.4393C10.6209 22.4997 15.773 22.8913 17.2563 22.9153ZM6.25529 5.63301L8.94904 8.32676L7.60217 9.67363C7.4796 9.79586 7.38956 9.94682 7.34025 10.1127C7.29095 10.2787 7.28394 10.4543 7.31987 10.6236C7.34487 10.7434 7.95633 13.584 9.6855 15.3132C11.4147 17.0424 14.2553 17.6538 14.3751 17.6788C14.5444 17.715 14.7201 17.7081 14.886 17.6587C15.052 17.6094 15.203 17.5193 15.3251 17.3965L16.672 16.0497L19.3657 18.7434L17.2761 20.832C15.9761 20.8101 11.5282 20.4611 8.03342 16.9653C4.52717 13.4591 4.18758 8.99551 4.16675 7.72155L6.25529 5.63301ZM20.8324 11.457H22.9157C22.9157 6.11322 18.8813 2.08301 13.5303 2.08301V4.16634C17.7615 4.16634 20.8324 7.23197 20.8324 11.457Z" fill="white"/>
<path d="M13.5408 8.33333C15.7314 8.33333 16.6658 9.26771 16.6658 11.4583H18.7491C18.7491 8.09896 16.9001 6.25 13.5408 6.25V8.33333Z" fill="white"/>
</g>
<defs>
<clipPath id="clip0">
<rect width="25" height="25" fill="white"/>
</clipPath>
</defs>
</svg>
