<svg width="16" height="11" viewBox="0 0 16 11" fill="none" xmlns="http://www.w3.org/2000/svg">
<path fill-rule="evenodd" clip-rule="evenodd" d="M1 0C0.448081 0.000880959 0.000880959 0.448081 0 1V2H16V1C15.9996 0.447898 15.5521 0.000441152 15 0H1ZM0 4.99995V9.99995C0.000441152 10.5521 0.447898 10.9995 1 11H15C15.2652 11 15.5196 10.8946 15.7071 10.7071C15.8946 10.5195 16 10.2652 16 9.99995V4.99995H0ZM4.49805 7.00001H2.49805C2.2219 7.00001 1.99805 7.22387 1.99805 7.50001C1.99805 7.77615 2.2219 8.00001 2.49805 8.00001H4.49805C4.77419 8.00001 4.99805 7.77615 4.99805 7.50001C4.99805 7.22387 4.77419 7.00001 4.49805 7.00001Z" fill="white"/>
</svg>
