<svg width="24" height="15" viewBox="0 0 24 15" fill="none" xmlns="http://www.w3.org/2000/svg">
<path fill-rule="evenodd" clip-rule="evenodd" d="M22.5 1.5H1.5V13.5H22.5V1.5ZM1.5 0C1.10218 0 0.720644 0.158035 0.43934 0.43934C0.158035 0.720644 0 1.10218 0 1.5L0 13.5C0 13.8978 0.158035 14.2794 0.43934 14.5607C0.720644 14.842 1.10218 15 1.5 15H22.5C22.8978 15 23.2794 14.842 23.5607 14.5607C23.842 14.2794 24 13.8978 24 13.5V1.5C24 1.10218 23.842 0.720644 23.5607 0.43934C23.2794 0.158035 22.8978 0 22.5 0H1.5Z" fill="white"/>
<path d="M19.5 1.5C19.5 2.29565 19.8161 3.05871 20.3787 3.62132C20.9413 4.18393 21.7044 4.5 22.5 4.5V1.5H19.5ZM4.5 1.5C4.5 2.29565 4.18393 3.05871 3.62132 3.62132C3.05871 4.18393 2.29565 4.5 1.5 4.5V1.5H4.5ZM19.5 13.5C19.5 12.7044 19.8161 11.9413 20.3787 11.3787C20.9413 10.8161 21.7044 10.5 22.5 10.5V13.5H19.5ZM4.5 13.5C4.5 12.7044 4.18393 11.9413 3.62132 11.3787C3.05871 10.8161 2.29565 10.5 1.5 10.5V13.5H4.5ZM15 7.5C15 8.29565 14.6839 9.05871 14.1213 9.62132C13.5587 10.1839 12.7956 10.5 12 10.5C11.2044 10.5 10.4413 10.1839 9.87868 9.62132C9.31607 9.05871 9 8.29565 9 7.5C9 6.70435 9.31607 5.94129 9.87868 5.37868C10.4413 4.81607 11.2044 4.5 12 4.5C12.7956 4.5 13.5587 4.81607 14.1213 5.37868C14.6839 5.94129 15 6.70435 15 7.5Z" fill="white"/>
</svg>
