<svg width="22" height="19" viewBox="0 0 22 19" fill="none" xmlns="http://www.w3.org/2000/svg">
<path fill-rule="evenodd" clip-rule="evenodd" d="M5.64728 12.5272C7.04252 13.7519 8.86714 14.3722 10.7197 14.2516C12.5723 14.131 14.3011 13.2794 15.5259 11.8842C16.7506 10.489 17.3709 8.66433 17.2503 6.81174C17.1297 4.95914 16.2781 3.23032 14.8829 2.0056C13.4877 0.780884 11.663 0.160583 9.81045 0.281163C7.95785 0.401742 6.22903 1.25332 5.00431 2.64857C3.77959 4.04381 3.15929 5.86843 3.27987 7.72103C3.40045 9.57362 4.25203 11.3024 5.64728 12.5272ZM4.98759 13.2787C6.58215 14.6784 8.66743 15.3873 10.7847 15.2495C12.9019 15.1117 14.8777 14.1385 16.2774 12.5439C17.6771 10.9493 18.386 8.86404 18.2482 6.74679C18.1104 4.62954 17.1372 2.65374 15.5426 1.25406C13.948 -0.145616 11.8627 -0.854531 9.7455 -0.716726C7.62824 -0.578921 5.65245 0.394315 4.25277 1.98888C2.85309 3.58345 2.14418 5.66873 2.28198 7.78598C2.41979 9.90323 3.39302 11.879 4.98759 13.2787Z" fill="white"/>
<path fill-rule="evenodd" clip-rule="evenodd" d="M14.1232 6.66093L11.117 4.02217C11.0174 3.93469 10.8871 3.89039 10.7547 3.899C10.6224 3.90761 10.4989 3.96844 10.4114 4.0681C10.3239 4.16776 10.2796 4.29809 10.2883 4.43042C10.2969 4.56275 10.3577 4.68623 10.4574 4.77371L12.5564 6.61622L6.7047 6.99638C6.57221 7.00501 6.44857 7.06591 6.36098 7.1657C6.27338 7.26548 6.22902 7.39598 6.23765 7.52847C6.24627 7.66097 6.30717 7.78461 6.40696 7.8722C6.50675 7.95979 6.63724 8.00415 6.76974 7.99553L12.6213 7.61396L10.7788 9.71301C10.6914 9.81267 10.647 9.943 10.6557 10.0753C10.6643 10.2077 10.7251 10.3311 10.8248 10.4186C10.9244 10.5061 11.0548 10.5504 11.1871 10.5418C11.3194 10.5332 11.4429 10.4724 11.5304 10.3727L14.1691 7.36654C14.2566 7.26688 14.3009 7.13655 14.2923 7.00422C14.2837 6.87189 14.2229 6.74841 14.1232 6.66093Z" fill="white"/>
</svg>
