<svg width="24" height="19" viewBox="0 0 24 19" fill="none" xmlns="http://www.w3.org/2000/svg">
<path d="M23.31 9.49563L20.8725 3.80812C20.8103 3.66127 20.7063 3.53596 20.5733 3.44783C20.4404 3.35969 20.2845 3.31263 20.125 3.3125H17.6875V1.6875C17.6875 1.47201 17.6019 1.26535 17.4495 1.11298C17.2972 0.960603 17.0905 0.875 16.875 0.875H1.4375C1.22201 0.875 1.01535 0.960603 0.862976 1.11298C0.710602 1.26535 0.625 1.47201 0.625 1.6875V15.5C0.625 15.7155 0.710602 15.9222 0.862976 16.0745C1.01535 16.2269 1.22201 16.3125 1.4375 16.3125H3.17625C3.36335 17.001 3.77181 17.6088 4.33861 18.0421C4.90541 18.4754 5.59904 18.7102 6.3125 18.7102C7.02596 18.7102 7.71959 18.4754 8.28639 18.0421C8.85319 17.6088 9.26165 17.001 9.44875 16.3125H14.5512C14.7384 17.001 15.1468 17.6088 15.7136 18.0421C16.2804 18.4754 16.974 18.7102 17.6875 18.7102C18.401 18.7102 19.0946 18.4754 19.6614 18.0421C20.2282 17.6088 20.6366 17.001 20.8237 16.3125H22.5625C22.778 16.3125 22.9847 16.2269 23.137 16.0745C23.2894 15.9222 23.375 15.7155 23.375 15.5V9.8125C23.3748 9.70359 23.3527 9.59583 23.31 9.49563ZM17.6875 4.9375H19.5888L21.3275 9H17.6875V4.9375ZM6.3125 17.125C5.99111 17.125 5.67693 17.0297 5.4097 16.8511C5.14247 16.6726 4.93419 16.4188 4.8112 16.1219C4.6882 15.8249 4.65602 15.4982 4.71872 15.183C4.78142 14.8678 4.93619 14.5782 5.16345 14.351C5.39071 14.1237 5.68026 13.9689 5.99548 13.9062C6.3107 13.8435 6.63743 13.8757 6.93436 13.9987C7.23129 14.1217 7.48508 14.33 7.66364 14.5972C7.8422 14.8644 7.9375 15.1786 7.9375 15.5C7.9375 15.931 7.76629 16.3443 7.46155 16.649C7.1568 16.9538 6.74348 17.125 6.3125 17.125ZM14.5512 14.6875H9.44875C9.26165 13.999 8.85319 13.3912 8.28639 12.9579C7.71959 12.5246 7.02596 12.2898 6.3125 12.2898C5.59904 12.2898 4.90541 12.5246 4.33861 12.9579C3.77181 13.3912 3.36335 13.999 3.17625 14.6875H2.25V2.5H16.0625V12.705C15.6925 12.9197 15.3686 13.2054 15.1092 13.5456C14.8499 13.8858 14.6603 14.2739 14.5512 14.6875ZM17.6875 17.125C17.3661 17.125 17.0519 17.0297 16.7847 16.8511C16.5175 16.6726 16.3092 16.4188 16.1862 16.1219C16.0632 15.8249 16.031 15.4982 16.0937 15.183C16.1564 14.8678 16.3112 14.5782 16.5385 14.351C16.7657 14.1237 17.0553 13.9689 17.3705 13.9062C17.6857 13.8435 18.0124 13.8757 18.3094 13.9987C18.6063 14.1217 18.8601 14.33 19.0386 14.5972C19.2172 14.8644 19.3125 15.1786 19.3125 15.5C19.3125 15.931 19.1413 16.3443 18.8365 16.649C18.5318 16.9538 18.1185 17.125 17.6875 17.125ZM21.75 14.6875H20.8237C20.6441 13.9916 20.2388 13.3749 19.6713 12.9339C19.1039 12.4928 18.4062 12.2523 17.6875 12.25V10.625H21.75V14.6875Z" fill="white"/>
</svg>
