<svg width="24" height="18" viewBox="0 0 24 18" fill="none" xmlns="http://www.w3.org/2000/svg">
<path d="M23.25 15H0.75C0.546875 15 0.371094 14.9258 0.222656 14.7773C0.0742188 14.6289 0 14.4531 0 14.25C0 11.3125 0.910156 8.80859 2.73047 6.73828C4.55078 4.66797 6.89062 3.42188 9.75 3C9.95312 3 10.1289 2.92578 10.2773 2.77734C10.4258 2.62891 10.5 2.45312 10.5 2.25C10.5 2.04688 10.4258 1.87109 10.2773 1.72266C10.1289 1.57422 9.95312 1.5 9.75 1.5C9.54688 1.5 9.37109 1.42578 9.22266 1.27734C9.07422 1.12891 9 0.953125 9 0.75C9 0.546875 9.07422 0.371094 9.22266 0.222656C9.37109 0.0742188 9.54688 0 9.75 0H14.25C14.4531 0 14.6289 0.0742188 14.7773 0.222656C14.9258 0.371094 15 0.546875 15 0.75C15 0.953125 14.9258 1.12891 14.7773 1.27734C14.6289 1.42578 14.4531 1.5 14.25 1.5C14.0469 1.5 13.8711 1.57422 13.7227 1.72266C13.5742 1.87109 13.5 2.04688 13.5 2.25C13.5 2.45312 13.5742 2.62891 13.7227 2.77734C13.8711 2.92578 14.0469 3 14.25 3C17.1094 3.42188 19.4492 4.66797 21.2695 6.73828C23.0898 8.80859 24 11.3125 24 14.25C24 14.4531 23.9258 14.6289 23.7773 14.7773C23.6289 14.9258 23.4531 15 23.25 15ZM0.75 16.5H23.25C23.4531 16.5 23.6289 16.5742 23.7773 16.7227C23.9258 16.8711 24 17.0469 24 17.25C24 17.4531 23.9258 17.6289 23.7773 17.7773C23.6289 17.9258 23.4531 18 23.25 18H0.75C0.546875 18 0.371094 17.9258 0.222656 17.7773C0.0742188 17.6289 0 17.4531 0 17.25C0 17.0469 0.0742188 16.8711 0.222656 16.7227C0.371094 16.5742 0.546875 16.5 0.75 16.5Z" fill="white"/>
</svg>
