<svg width="26" height="26" viewBox="0 0 26 26" fill="none" xmlns="http://www.w3.org/2000/svg">
<path d="M8.56288 0.000977312C8.26134 -0.0104235 7.96449 0.0781854 7.71854 0.253011C7.47259 0.427836 7.29134 0.67907 7.203 0.967602L0.0640055 23.5754C-0.0119094 23.8154 -0.0204688 24.0716 0.0392603 24.3162C0.0989894 24.5608 0.224715 24.7842 0.402728 24.9623C0.580742 25.1403 0.804211 25.266 1.04877 25.3257C1.29333 25.3855 1.5496 25.3769 1.78963 25.301L24.3974 18.162C24.6859 18.0743 24.9372 17.8933 25.1119 17.6475C25.2866 17.4016 25.3748 17.1048 25.3626 16.8035C24.8429 7.76285 17.6021 0.522102 8.56288 0.000977312ZM8.89288 19.2221C8.53165 19.222 8.17398 19.1508 7.84029 19.0125C7.5066 18.8741 7.20341 18.6714 6.94805 18.416C6.69269 18.1605 6.49015 17.8572 6.352 17.5234C6.21385 17.1897 6.14279 16.832 6.14288 16.4707C6.14297 16.1095 6.21421 15.7518 6.35253 15.4181C6.49085 15.0844 6.69353 14.7813 6.94902 14.5259C7.20451 14.2705 7.5078 14.068 7.84156 13.9298C8.17532 13.7917 8.53303 13.7206 8.89425 13.7207C9.62378 13.7209 10.3234 14.0109 10.8391 14.5269C11.3548 15.0429 11.6444 15.7426 11.6443 16.4721C11.6441 17.2016 11.3541 17.9012 10.8381 18.4169C10.3221 18.9327 9.62241 19.2223 8.89288 19.2221ZM17.1429 16.4721C16.7817 16.472 16.424 16.4008 16.0903 16.2625C15.7566 16.1241 15.4534 15.9214 15.198 15.666C14.9427 15.4105 14.7402 15.1072 14.602 14.7734C14.4638 14.4397 14.3928 14.082 14.3929 13.7207C14.393 13.3595 14.4642 13.0018 14.6025 12.6681C14.7408 12.3344 14.9435 12.0313 15.199 11.7759C15.4545 11.5205 15.7578 11.318 16.0916 11.1798C16.4253 11.0417 16.783 10.9706 17.1443 10.9707C17.8738 10.9709 18.5734 11.2609 19.0891 11.7769C19.6048 12.2929 19.8944 12.9926 19.8943 13.7221C19.8941 14.4516 19.6041 15.1512 19.0881 15.6669C18.5721 16.1827 17.8724 16.4723 17.1429 16.4721Z" fill="white"/>
</svg>
