<svg width="23" height="23" viewBox="0 0 23 23" fill="none" xmlns="http://www.w3.org/2000/svg">
<path d="M22.7602 21.1997L15.4054 13.8449C16.5467 12.3694 17.1641 10.5654 17.1641 8.66797C17.1641 6.39668 16.2776 4.26699 14.6747 2.66123C13.0718 1.05547 10.9364 0.171875 8.66797 0.171875C6.39951 0.171875 4.26416 1.0583 2.66123 2.66123C1.05547 4.26416 0.171875 6.39668 0.171875 8.66797C0.171875 10.9364 1.0583 13.0718 2.66123 14.6747C4.26416 16.2805 6.39668 17.1641 8.66797 17.1641C10.5654 17.1641 12.3666 16.5467 13.8421 15.4082L21.1969 22.7602C21.2184 22.7817 21.244 22.7989 21.2722 22.8105C21.3004 22.8222 21.3306 22.8282 21.3611 22.8282C21.3916 22.8282 21.4219 22.8222 21.45 22.8105C21.4782 22.7989 21.5038 22.7817 21.5254 22.7602L22.7602 21.5282C22.7817 21.5067 22.7989 21.4811 22.8105 21.4529C22.8222 21.4247 22.8282 21.3945 22.8282 21.364C22.8282 21.3335 22.8222 21.3033 22.8105 21.2751C22.7989 21.2469 22.7817 21.2213 22.7602 21.1997ZM13.1539 13.1539C11.9531 14.3519 10.3615 15.0117 8.66797 15.0117C6.97441 15.0117 5.38281 14.3519 4.18203 13.1539C2.98408 11.9531 2.32422 10.3615 2.32422 8.66797C2.32422 6.97441 2.98408 5.37998 4.18203 4.18203C5.38281 2.98408 6.97441 2.32422 8.66797 2.32422C10.3615 2.32422 11.956 2.98125 13.1539 4.18203C14.3519 5.38281 15.0117 6.97441 15.0117 8.66797C15.0117 10.3615 14.3519 11.956 13.1539 13.1539Z" fill="#333333" fill-opacity="0.85"/>
</svg>
