<svg width="11" height="11" viewBox="0 0 11 11" fill="none" xmlns="http://www.w3.org/2000/svg">
<path d="M10.8561 4.58992L10.4282 3.22492C10.382 3.06716 10.3045 2.92032 10.2003 2.79317C10.0961 2.66601 9.96739 2.56114 9.8218 2.48481C9.67622 2.40847 9.51675 2.36225 9.35291 2.34888C9.18907 2.33551 9.02421 2.35528 8.86818 2.407L8.68401 2.46659C8.53974 2.51428 8.38607 2.52638 8.2361 2.50185C8.08614 2.47733 7.94433 2.41691 7.82276 2.32575L7.76318 2.28242C7.64455 2.19162 7.54891 2.07421 7.48399 1.93967C7.41907 1.80512 7.38668 1.6572 7.38943 1.50784V1.35617C7.39206 1.01602 7.25959 0.688722 7.0211 0.446169C6.90766 0.33158 6.7727 0.240531 6.62397 0.178251C6.47524 0.115971 6.31567 0.0836865 6.15443 0.083252H4.77318C4.44177 0.0875345 4.12548 0.222564 3.89316 0.458943C3.66084 0.695321 3.53131 1.01391 3.53276 1.34534V1.47534C3.53224 1.63257 3.49644 1.78768 3.42801 1.92923C3.35958 2.07079 3.26025 2.19519 3.13735 2.29325L3.06693 2.34742C2.93116 2.45013 2.77235 2.51813 2.60432 2.5455C2.43629 2.57288 2.26412 2.5588 2.10276 2.5045C1.95457 2.45322 1.79751 2.43254 1.6411 2.44371C1.48468 2.45488 1.33216 2.49768 1.19276 2.5695C1.04762 2.64154 0.918864 2.74267 0.814495 2.86661C0.710125 2.99055 0.632379 3.13464 0.586095 3.28992L0.141928 4.69825C0.0389263 5.01578 0.0653414 5.36111 0.215438 5.65928C0.365534 5.95744 0.627192 6.18436 0.943595 6.29075H1.03026C1.17622 6.34545 1.30722 6.43379 1.41263 6.54861C1.51804 6.66343 1.59488 6.80149 1.63693 6.95158L1.66943 7.03825C1.72981 7.20407 1.75 7.38185 1.72835 7.55699C1.70669 7.73213 1.6438 7.89963 1.54485 8.04575C1.34455 8.31853 1.26006 8.65936 1.30976 8.99411C1.35947 9.32886 1.53935 9.63044 1.81026 9.83325L2.93151 10.6837C3.14382 10.838 3.40029 10.9197 3.66276 10.9166C3.73301 10.9235 3.80376 10.9235 3.87401 10.9166C4.03657 10.8851 4.19101 10.8209 4.32791 10.7277C4.46481 10.6346 4.58129 10.5146 4.67026 10.3749L4.79485 10.1962C4.88224 10.0708 4.99787 9.96775 5.13242 9.8953C5.26697 9.82285 5.41667 9.78304 5.56943 9.77908C5.72952 9.77514 5.888 9.81182 6.03009 9.88571C6.17217 9.95959 6.29321 10.0683 6.38193 10.2016L6.44693 10.2937C6.53928 10.4311 6.6588 10.5482 6.7981 10.6377C6.93741 10.7272 7.09357 10.7873 7.25696 10.8142C7.42036 10.8411 7.58752 10.8342 7.74818 10.7941C7.90883 10.7539 8.05956 10.6813 8.1911 10.5808L9.29068 9.75742C9.55066 9.5555 9.72356 9.26178 9.77391 8.93647C9.82427 8.61116 9.74828 8.27891 9.56151 8.00783L9.42068 7.802C9.33599 7.67115 9.28054 7.52356 9.2581 7.36932C9.23567 7.21508 9.24678 7.05781 9.29068 6.90825C9.33543 6.74816 9.41849 6.60137 9.53268 6.48057C9.64687 6.35977 9.78877 6.26859 9.94609 6.21492L10.0544 6.177C10.3679 6.06823 10.6268 5.84183 10.7764 5.54567C10.926 5.2495 10.9546 4.90677 10.8561 4.58992ZM5.49901 7.39575C5.12405 7.39575 4.75751 7.28456 4.44574 7.07625C4.13398 6.86793 3.89098 6.57184 3.74749 6.22542C3.604 5.879 3.56646 5.49782 3.63961 5.13006C3.71276 4.7623 3.89332 4.4245 4.15846 4.15936C4.42359 3.89422 4.7614 3.71366 5.12915 3.64051C5.49691 3.56736 5.8781 3.60491 6.22452 3.7484C6.57093 3.89189 6.86702 4.13488 7.07534 4.44665C7.28366 4.75842 7.39485 5.12496 7.39485 5.49992C7.39485 6.00272 7.19511 6.48494 6.83957 6.84047C6.48403 7.19601 6.00182 7.39575 5.49901 7.39575Z" fill="black"/>
</svg>
