<svg width="29" height="28" viewBox="0 0 29 28" fill="none" xmlns="http://www.w3.org/2000/svg">
<path d="M28.0344 10.069L19.3562 8.80775L15.4768 0.943006C15.3708 0.727674 15.1965 0.553357 14.9812 0.4474C14.4412 0.180799 13.7849 0.402967 13.5149 0.943006L9.63549 8.80775L0.957271 10.069C0.718013 10.1032 0.499263 10.216 0.331783 10.3869C0.129308 10.595 0.0177352 10.8749 0.0215806 11.1653C0.025426 11.4556 0.144375 11.7325 0.35229 11.9352L6.6311 18.0568L5.1477 26.7008C5.11291 26.9019 5.13517 27.1087 5.21193 27.2978C5.2887 27.4869 5.4169 27.6506 5.58202 27.7706C5.74713 27.8905 5.94254 27.9617 6.14609 27.9763C6.34964 27.9908 6.55318 27.948 6.73364 27.8527L14.4958 23.7716L22.2581 27.8527C22.47 27.9655 22.7161 28.0031 22.9519 27.9621C23.5466 27.8595 23.9465 27.2956 23.844 26.7008L22.3606 18.0568L28.6394 11.9352C28.8103 11.7677 28.9231 11.549 28.9573 11.3097C29.0496 10.7116 28.6326 10.1579 28.0344 10.069Z" fill="#FEAE73"/>
</svg>
