<svg width="24" height="22" viewBox="0 0 24 22" fill="none" xmlns="http://www.w3.org/2000/svg">
<path d="M23.0212 4.12236L16.0212 0.622359C15.8591 0.541251 15.6803 0.499023 15.4991 0.499023C15.3178 0.499023 15.1391 0.541251 14.977 0.622359L8.49968 3.86219L2.02117 0.622359C1.84326 0.533456 1.64558 0.491511 1.44689 0.50051C1.24821 0.509508 1.05512 0.56915 0.885972 0.673772C0.716824 0.778393 0.577231 0.92452 0.48045 1.09827C0.38367 1.27203 0.332915 1.46764 0.333008 1.66653V16.8332C0.333008 17.2754 0.582675 17.679 0.978175 17.8774L7.97818 21.3774C8.14026 21.4585 8.31901 21.5007 8.50026 21.5007C8.6815 21.5007 8.86026 21.4585 9.02234 21.3774L15.4997 18.1375L21.9782 21.3762C22.1556 21.4659 22.3531 21.5085 22.5517 21.4997C22.7504 21.4909 22.9434 21.4311 23.1122 21.326C23.4563 21.1125 23.6663 20.738 23.6663 20.3332V5.16653C23.6663 4.72436 23.4167 4.32069 23.0212 4.12236V4.12236ZM9.66634 5.88753L14.333 3.55419V16.1122L9.66634 18.4455V5.88753ZM2.66634 3.55419L7.33301 5.88753V18.4455L2.66634 16.1122V3.55419ZM21.333 18.4455L16.6663 16.1122V3.55419L21.333 5.88753V18.4455Z" fill="#FD8A36"/>
</svg>
