<svg width="39" height="13" viewBox="0 0 39 13" fill="none" xmlns="http://www.w3.org/2000/svg">
<path d="M20.1699 4.13957C20.1476 5.94328 21.7334 6.94976 22.9279 7.54823C24.1552 8.16221 24.5674 8.55596 24.5625 9.1051C24.5534 9.9454 23.5836 10.3163 22.6761 10.3307C21.0928 10.3559 20.1721 9.89121 19.4403 9.53974L18.8699 12.2837C19.6042 12.6315 20.9639 12.9349 22.3738 12.9482C25.6835 12.9482 27.8487 11.2686 27.8605 8.66435C27.8734 5.35922 23.4139 5.17628 23.4443 3.69898C23.4548 3.25103 23.8706 2.773 24.7816 2.65146C25.2325 2.59006 26.4773 2.54307 27.8887 3.21124L28.4426 0.556423C27.6836 0.272303 26.7081 0.000242233 25.4937 0.000242233C22.3785 0.000242233 20.1875 1.70277 20.1699 4.13957ZM33.7652 0.228917C33.1608 0.228917 32.6515 0.591351 32.4242 1.14753L27.6966 12.7532H31.0038L31.6619 10.8833H35.7033L36.0851 12.7532H39L36.4563 0.228917H33.7652ZM34.2278 3.61221L35.1823 8.31523H32.5684L34.2278 3.61221ZM16.16 0.229074L13.5531 12.7531H16.7046L19.3103 0.22876H16.16V0.229074ZM11.4978 0.22876L8.21757 8.75347L6.89066 1.50527C6.73496 0.696134 6.12011 0.228917 5.4373 0.228917H0.0751055L0 0.592604C1.10084 0.838194 2.35158 1.2343 3.10934 1.65813C3.57307 1.91704 3.7053 2.14336 3.85765 2.75859L6.37086 12.7532H9.70125L14.8072 0.228917H11.4978" fill="white"/>
</svg>
