<svg width="26" height="23" viewBox="0 0 26 23" fill="none" xmlns="http://www.w3.org/2000/svg">
<path d="M24.2379 16.1926H7.95469L8.77227 14.5273L22.3566 14.5027C22.816 14.5027 23.2098 14.1746 23.2918 13.7207L25.173 3.19062C25.2223 2.91445 25.1484 2.63008 24.968 2.41406C24.8788 2.30775 24.7675 2.22211 24.6419 2.16309C24.5163 2.10407 24.3794 2.07308 24.2406 2.07227L6.95938 2.01484L6.81172 1.32031C6.71875 0.877344 6.31953 0.554688 5.86563 0.554688H1.64102C1.38502 0.554688 1.13951 0.656381 0.958492 0.837398C0.777475 1.01841 0.675781 1.26393 0.675781 1.51992C0.675781 1.77592 0.777475 2.02143 0.958492 2.20245C1.13951 2.38346 1.38502 2.48516 1.64102 2.48516H5.08359L5.72891 5.55312L7.31758 13.2449L5.27227 16.5836C5.16605 16.727 5.10207 16.8972 5.08758 17.075C5.07308 17.2528 5.10864 17.4312 5.19023 17.5898C5.3543 17.9152 5.68516 18.1203 6.05156 18.1203H7.76875C7.40267 18.6065 7.20493 19.1988 7.20547 19.8074C7.20547 21.3551 8.46328 22.6129 10.0109 22.6129C11.5586 22.6129 12.8164 21.3551 12.8164 19.8074C12.8164 19.1977 12.6141 18.6043 12.2531 18.1203H16.6582C16.2921 18.6065 16.0944 19.1988 16.0949 19.8074C16.0949 21.3551 17.3527 22.6129 18.9004 22.6129C20.448 22.6129 21.7059 21.3551 21.7059 19.8074C21.7059 19.1977 21.5035 18.6043 21.1426 18.1203H24.2406C24.7711 18.1203 25.2059 17.6883 25.2059 17.1551C25.2043 16.8994 25.1016 16.6546 24.9203 16.4743C24.7389 16.294 24.4936 16.1927 24.2379 16.1926ZM7.36133 3.91797L23.1059 3.96992L21.5637 12.6051L9.19609 12.627L7.36133 3.91797ZM10.0109 20.6715C9.53516 20.6715 9.14688 20.2832 9.14688 19.8074C9.14688 19.3316 9.53516 18.9434 10.0109 18.9434C10.4867 18.9434 10.875 19.3316 10.875 19.8074C10.875 20.0366 10.784 20.2564 10.6219 20.4184C10.4599 20.5805 10.2401 20.6715 10.0109 20.6715ZM18.9004 20.6715C18.4246 20.6715 18.0363 20.2832 18.0363 19.8074C18.0363 19.3316 18.4246 18.9434 18.9004 18.9434C19.3762 18.9434 19.7645 19.3316 19.7645 19.8074C19.7645 20.0366 19.6734 20.2564 19.5114 20.4184C19.3493 20.5805 19.1296 20.6715 18.9004 20.6715Z" fill="black"/>
</svg>
