<svg width="25" height="25" viewBox="0 0 25 25" fill="none" xmlns="http://www.w3.org/2000/svg">
<path d="M17.2812 11.375H13.125V7.21875C13.125 7.09844 13.0266 7 12.9062 7H11.5938C11.4734 7 11.375 7.09844 11.375 7.21875V11.375H7.21875C7.09844 11.375 7 11.4734 7 11.5938V12.9062C7 13.0266 7.09844 13.125 7.21875 13.125H11.375V17.2812C11.375 17.4016 11.4734 17.5 11.5938 17.5H12.9062C13.0266 17.5 13.125 17.4016 13.125 17.2812V13.125H17.2812C17.4016 13.125 17.5 13.0266 17.5 12.9062V11.5938C17.5 11.4734 17.4016 11.375 17.2812 11.375Z" fill="#FD8A36"/>
<path d="M12.25 0C5.48516 0 0 5.48516 0 12.25C0 19.0148 5.48516 24.5 12.25 24.5C19.0148 24.5 24.5 19.0148 24.5 12.25C24.5 5.48516 19.0148 0 12.25 0ZM12.25 22.4219C6.63359 22.4219 2.07812 17.8664 2.07812 12.25C2.07812 6.63359 6.63359 2.07812 12.25 2.07812C17.8664 2.07812 22.4219 6.63359 22.4219 12.25C22.4219 17.8664 17.8664 22.4219 12.25 22.4219Z" fill="#FD8A36"/>
</svg>
