<svg width="27" height="27" viewBox="0 0 27 27" fill="none" xmlns="http://www.w3.org/2000/svg">
<path d="M24 0H7.5V3.6L10.215 5.775C10.395 5.91 10.5 6.135 10.5 6.36V12.75C10.5 13.17 10.17 13.5 9.75 13.5H3.75C3.33 13.5 3 13.17 3 12.75V6.36C3 6.135 3.105 5.91 3.285 5.775L6 3.6V0H0V15C0 18.315 2.685 21 6 21H15C18.315 21 21 18.315 21 15V10.5H24C24.7956 10.5 25.5587 10.1839 26.1213 9.62132C26.6839 9.05871 27 8.29565 27 7.5V3C27 1.335 25.665 0 24 0ZM24 7.5H21V3H24V7.5ZM0 24H24V27H0V24Z" fill="white"/>
</svg>
