<svg width="26" height="24" viewBox="0 0 26 24" fill="none" xmlns="http://www.w3.org/2000/svg">
<path d="M23.5625 12H2.4375C1.79103 12 1.17105 12.2568 0.713927 12.7139C0.256807 13.171 0 13.791 0 14.4375C0 15.084 0.256807 15.704 0.713927 16.1611C1.17105 16.6182 1.79103 16.875 2.4375 16.875H23.5625C24.209 16.875 24.829 16.6182 25.2861 16.1611C25.7432 15.704 26 15.084 26 14.4375C26 13.791 25.7432 13.171 25.2861 12.7139C24.829 12.2568 24.209 12 23.5625 12ZM24.375 18.5H1.625C1.40951 18.5 1.20285 18.5856 1.05048 18.738C0.898102 18.8903 0.8125 19.097 0.8125 19.3125V20.125C0.8125 20.987 1.15491 21.8136 1.7644 22.4231C2.3739 23.0326 3.20055 23.375 4.0625 23.375H21.9375C22.7995 23.375 23.6261 23.0326 24.2356 22.4231C24.8451 21.8136 25.1875 20.987 25.1875 20.125V19.3125C25.1875 19.097 25.1019 18.8903 24.9495 18.738C24.7972 18.5856 24.5905 18.5 24.375 18.5ZM2.97781 10.375H23.0222C24.7777 10.375 25.7959 8.1457 24.7904 6.52172C22.75 3.225 18.2584 0.630078 13 0.625C7.74211 0.630078 3.25 3.225 1.20961 6.52121C0.203125 8.1452 1.2223 10.375 2.97781 10.375ZM19.5 4.6875C19.6607 4.6875 19.8178 4.73515 19.9514 4.82443C20.085 4.91371 20.1892 5.04061 20.2507 5.18907C20.3121 5.33753 20.3282 5.5009 20.2969 5.65851C20.2655 5.81612 20.1882 5.96089 20.0745 6.07452C19.9609 6.18815 19.8161 6.26554 19.6585 6.29689C19.5009 6.32824 19.3375 6.31215 19.1891 6.25065C19.0406 6.18916 18.9137 6.08502 18.8244 5.9514C18.7352 5.81779 18.6875 5.6607 18.6875 5.5C18.6875 5.28451 18.7731 5.07785 18.9255 4.92548C19.0778 4.7731 19.2845 4.6875 19.5 4.6875ZM13 3.0625C13.1607 3.0625 13.3178 3.11015 13.4514 3.19943C13.585 3.28871 13.6892 3.4156 13.7507 3.56407C13.8121 3.71253 13.8282 3.8759 13.7969 4.03351C13.7655 4.19112 13.6882 4.33589 13.5745 4.44952C13.4609 4.56315 13.3161 4.64054 13.1585 4.67189C13.0009 4.70324 12.8375 4.68715 12.6891 4.62565C12.5406 4.56416 12.4137 4.46002 12.3244 4.3264C12.2352 4.19279 12.1875 4.0357 12.1875 3.875C12.1875 3.65951 12.2731 3.45285 12.4255 3.30048C12.5778 3.1481 12.7845 3.0625 13 3.0625ZM6.5 4.6875C6.6607 4.6875 6.81779 4.73515 6.9514 4.82443C7.08502 4.91371 7.18916 5.04061 7.25065 5.18907C7.31215 5.33753 7.32824 5.5009 7.29689 5.65851C7.26554 5.81612 7.18815 5.96089 7.07452 6.07452C6.96089 6.18815 6.81612 6.26554 6.65851 6.29689C6.5009 6.32824 6.33753 6.31215 6.18907 6.25065C6.04061 6.18916 5.91371 6.08502 5.82443 5.9514C5.73515 5.81779 5.6875 5.6607 5.6875 5.5C5.6875 5.28451 5.7731 5.07785 5.92548 4.92548C6.07785 4.7731 6.28451 4.6875 6.5 4.6875Z" fill="white"/>
</svg>
