<svg width="15" height="15" viewBox="0 0 15 15" fill="none" xmlns="http://www.w3.org/2000/svg">
<path d="M13.8413 10.1758C12.8675 10.1758 11.9254 10.0175 11.0467 9.7325C10.909 9.68584 10.761 9.67891 10.6196 9.71251C10.4781 9.74612 10.349 9.8189 10.2471 9.9225L9.00417 11.4821C6.76375 10.4133 4.66583 8.39458 3.54958 6.075L5.09333 4.76083C5.30708 4.53917 5.37042 4.23042 5.28333 3.95333C4.99042 3.07458 4.84 2.1325 4.84 1.15875C4.84 0.73125 4.48375 0.375 4.05625 0.375H1.31708C0.889583 0.375 0.375 0.565 0.375 1.15875C0.375 8.51333 6.49458 14.625 13.8413 14.625C14.4033 14.625 14.625 14.1263 14.625 13.6908V10.9596C14.625 10.5321 14.2688 10.1758 13.8413 10.1758Z" fill="black"/>
</svg>
