<svg width="15" height="16" viewBox="0 0 15 16" fill="none" xmlns="http://www.w3.org/2000/svg">
<path d="M11.25 3.7217H15V5.22355H13.5V14.9855C13.5 15.1847 13.421 15.3757 13.2803 15.5165C13.1397 15.6573 12.9489 15.7365 12.75 15.7365H2.25C2.05109 15.7365 1.86032 15.6573 1.71967 15.5165C1.57902 15.3757 1.5 15.1847 1.5 14.9855V5.22355H0V3.7217H3.75V1.46894C3.75 1.26978 3.82902 1.07878 3.96967 0.937957C4.11032 0.797132 4.30109 0.718018 4.5 0.718018H10.5C10.6989 0.718018 10.8897 0.797132 11.0303 0.937957C11.171 1.07878 11.25 1.26978 11.25 1.46894V3.7217ZM12 5.22355H3V14.2346H12V5.22355ZM8.5605 9.72908L9.8865 11.0567L8.826 12.1185L7.5 10.7909L6.174 12.1185L5.1135 11.0567L6.4395 9.72908L5.1135 8.40145L6.174 7.33964L7.5 8.66727L8.826 7.33964L9.8865 8.40145L8.5605 9.72908ZM5.25 2.21986V3.7217H9.75V2.21986H5.25Z" fill="white"/>
</svg>
