<svg width="23" height="23" viewBox="0 0 23 23" fill="none" xmlns="http://www.w3.org/2000/svg">
<path d="M16.8503 5.66667L12.0837 0.916665C11.928 0.759775 11.7165 0.671111 11.4955 0.670174C11.2746 0.669236 11.0623 0.756101 10.9053 0.911665L10.9003 0.916665L6.15033 5.66667H1.50033C1.27931 5.66667 1.06735 5.75446 0.91107 5.91074C0.75479 6.06702 0.666992 6.27899 0.666992 6.5V21.5C0.666992 21.721 0.75479 21.933 0.91107 22.0893C1.06735 22.2455 1.27931 22.3333 1.50033 22.3333H21.5003C21.7213 22.3333 21.9333 22.2455 22.0896 22.0893C22.2459 21.933 22.3337 21.721 22.3337 21.5V6.5C22.3337 6.27899 22.2459 6.06702 22.0896 5.91074C21.9333 5.75446 21.7213 5.66667 21.5003 5.66667H16.8503ZM11.5003 2.68333L14.4837 5.66667H8.51699L11.5003 2.68333ZM20.667 20.6667H2.33366V7.33333H20.667V20.6667ZM7.33366 12.3333C6.89163 12.3333 6.46771 12.1577 6.15515 11.8452C5.84259 11.5326 5.66699 11.1087 5.66699 10.6667C5.66699 10.2246 5.84259 9.80072 6.15515 9.48815C6.46771 9.17559 6.89163 9 7.33366 9C7.77569 9 8.19961 9.17559 8.51217 9.48815C8.82473 9.80072 9.00033 10.2246 9.00033 10.6667C9.00033 11.1087 8.82473 11.5326 8.51217 11.8452C8.19961 12.1577 7.77569 12.3333 7.33366 12.3333ZM19.0003 19H6.50033L9.00033 14L11.0837 18.1667L14.8337 10.6667L19.0003 19Z" fill="black"/>
</svg>
