<svg width="16" height="14" viewBox="0 0 16 14" fill="none" xmlns="http://www.w3.org/2000/svg">
<mask id="path-1-outside-1" maskUnits="userSpaceOnUse" x="-1.00098" y="-0.000488281" width="18" height="14" fill="black">
<rect fill="white" x="-1.00098" y="-0.000488281" width="18" height="14"/>
<path fill-rule="evenodd" clip-rule="evenodd" d="M5.61427 2.60399C6.34641 2.207 7.16618 1.99939 7.99902 2.00003C9.32475 2.00029 10.5961 2.52705 11.5336 3.46449C12.2882 4.21909 12.7766 5.19005 12.9386 6.23156L11.8537 5.14592C11.7598 5.05203 11.6324 4.99929 11.4997 4.99929C11.3669 4.99929 11.2395 5.05203 11.1457 5.14592C11.0518 5.2398 10.999 5.36714 10.999 5.49992C10.999 5.63269 11.0518 5.76003 11.1457 5.85392L13.1457 7.85392C13.1921 7.90048 13.2473 7.93742 13.308 7.96263C13.3688 7.98784 13.4339 8.00081 13.4997 8.00081C13.5654 8.00081 13.6305 7.98784 13.6913 7.96263C13.752 7.93742 13.8072 7.90048 13.8537 7.85392L15.8537 5.85392C15.9002 5.80747 15.9372 5.7523 15.9624 5.69155C15.9876 5.63081 16.0005 5.56568 16.0005 5.49992C16.0005 5.43415 15.9876 5.36903 15.9624 5.30828C15.9372 5.24754 15.9002 5.19236 15.8537 5.14592C15.8072 5.09935 15.752 5.06241 15.6913 5.0372C15.6305 5.012 15.5654 4.99902 15.4997 4.99902C15.4339 4.99902 15.3688 5.012 15.308 5.0372C15.2473 5.06241 15.1921 5.09935 15.1457 5.14592L13.9616 6.33066C13.8434 5.27625 13.447 4.26772 12.8076 3.41099C12.034 2.37434 10.9461 1.61545 9.70602 1.24746C8.46598 0.879456 7.14021 0.922048 5.92635 1.36888C4.71248 1.81571 3.67551 2.64286 2.97002 3.72703C2.90327 3.83796 2.88214 3.97046 2.91109 4.09665C2.94004 4.22284 3.01681 4.33288 3.12525 4.40362C3.23369 4.47435 3.36533 4.50027 3.49249 4.47591C3.61965 4.45156 3.7324 4.37883 3.80702 4.27303C4.26087 3.57471 4.88213 3.00097 5.61427 2.60399ZM2.03652 7.67033L0.853655 8.85392C0.759768 8.9478 0.632431 9.00055 0.499655 9.00055C0.366879 9.00055 0.239542 8.9478 0.145655 8.85392C0.0517684 8.76003 -0.000976562 8.63269 -0.000976562 8.49992C-0.000976562 8.36714 0.0517684 8.2398 0.145655 8.14592L2.14565 6.14592C2.1921 6.09935 2.24728 6.06241 2.30802 6.0372C2.36877 6.012 2.43389 5.99902 2.49966 5.99902C2.56542 5.99902 2.63054 6.012 2.69129 6.0372C2.75203 6.06241 2.80721 6.09935 2.85366 6.14592L4.85366 8.14592C4.94754 8.2398 5.00029 8.36714 5.00029 8.49992C5.00029 8.63269 4.94754 8.76003 4.85366 8.85392C4.75977 8.9478 4.63243 9.00055 4.49966 9.00055C4.36688 9.00055 4.23954 8.9478 4.14566 8.85392L3.05765 7.76526C3.18181 8.56879 3.50077 9.334 3.99161 9.99184C4.6364 10.856 5.54325 11.4886 6.57693 11.7953C7.61061 12.1019 8.71572 12.0662 9.72746 11.6935C10.7392 11.3208 11.6033 10.631 12.191 9.72703C12.2257 9.66946 12.2716 9.61946 12.326 9.58003C12.3804 9.54059 12.4421 9.51253 12.5076 9.4975C12.5731 9.48248 12.6409 9.48081 12.7071 9.49259C12.7732 9.50437 12.8363 9.52936 12.8926 9.56606C12.9489 9.60277 12.9972 9.65045 13.0346 9.70624C13.0721 9.76203 13.0979 9.82479 13.1105 9.89078C13.1231 9.95677 13.1224 10.0246 13.1082 10.0903C13.094 10.156 13.0667 10.2181 13.028 10.273C12.3225 11.3572 11.2856 12.1843 10.0717 12.6312C8.85783 13.078 7.53207 13.1206 6.29203 12.7526C5.05198 12.3846 3.96406 11.6257 3.19044 10.5891C2.55127 9.73259 2.15492 8.7244 2.03652 7.67033Z"/>
</mask>
<path fill-rule="evenodd" clip-rule="evenodd" d="M5.61427 2.60399C6.34641 2.207 7.16618 1.99939 7.99902 2.00003C9.32475 2.00029 10.5961 2.52705 11.5336 3.46449C12.2882 4.21909 12.7766 5.19005 12.9386 6.23156L11.8537 5.14592C11.7598 5.05203 11.6324 4.99929 11.4997 4.99929C11.3669 4.99929 11.2395 5.05203 11.1457 5.14592C11.0518 5.2398 10.999 5.36714 10.999 5.49992C10.999 5.63269 11.0518 5.76003 11.1457 5.85392L13.1457 7.85392C13.1921 7.90048 13.2473 7.93742 13.308 7.96263C13.3688 7.98784 13.4339 8.00081 13.4997 8.00081C13.5654 8.00081 13.6305 7.98784 13.6913 7.96263C13.752 7.93742 13.8072 7.90048 13.8537 7.85392L15.8537 5.85392C15.9002 5.80747 15.9372 5.7523 15.9624 5.69155C15.9876 5.63081 16.0005 5.56568 16.0005 5.49992C16.0005 5.43415 15.9876 5.36903 15.9624 5.30828C15.9372 5.24754 15.9002 5.19236 15.8537 5.14592C15.8072 5.09935 15.752 5.06241 15.6913 5.0372C15.6305 5.012 15.5654 4.99902 15.4997 4.99902C15.4339 4.99902 15.3688 5.012 15.308 5.0372C15.2473 5.06241 15.1921 5.09935 15.1457 5.14592L13.9616 6.33066C13.8434 5.27625 13.447 4.26772 12.8076 3.41099C12.034 2.37434 10.9461 1.61545 9.70602 1.24746C8.46598 0.879456 7.14021 0.922048 5.92635 1.36888C4.71248 1.81571 3.67551 2.64286 2.97002 3.72703C2.90327 3.83796 2.88214 3.97046 2.91109 4.09665C2.94004 4.22284 3.01681 4.33288 3.12525 4.40362C3.23369 4.47435 3.36533 4.50027 3.49249 4.47591C3.61965 4.45156 3.7324 4.37883 3.80702 4.27303C4.26087 3.57471 4.88213 3.00097 5.61427 2.60399ZM2.03652 7.67033L0.853655 8.85392C0.759768 8.9478 0.632431 9.00055 0.499655 9.00055C0.366879 9.00055 0.239542 8.9478 0.145655 8.85392C0.0517684 8.76003 -0.000976562 8.63269 -0.000976562 8.49992C-0.000976562 8.36714 0.0517684 8.2398 0.145655 8.14592L2.14565 6.14592C2.1921 6.09935 2.24728 6.06241 2.30802 6.0372C2.36877 6.012 2.43389 5.99902 2.49966 5.99902C2.56542 5.99902 2.63054 6.012 2.69129 6.0372C2.75203 6.06241 2.80721 6.09935 2.85366 6.14592L4.85366 8.14592C4.94754 8.2398 5.00029 8.36714 5.00029 8.49992C5.00029 8.63269 4.94754 8.76003 4.85366 8.85392C4.75977 8.9478 4.63243 9.00055 4.49966 9.00055C4.36688 9.00055 4.23954 8.9478 4.14566 8.85392L3.05765 7.76526C3.18181 8.56879 3.50077 9.334 3.99161 9.99184C4.6364 10.856 5.54325 11.4886 6.57693 11.7953C7.61061 12.1019 8.71572 12.0662 9.72746 11.6935C10.7392 11.3208 11.6033 10.631 12.191 9.72703C12.2257 9.66946 12.2716 9.61946 12.326 9.58003C12.3804 9.54059 12.4421 9.51253 12.5076 9.4975C12.5731 9.48248 12.6409 9.48081 12.7071 9.49259C12.7732 9.50437 12.8363 9.52936 12.8926 9.56606C12.9489 9.60277 12.9972 9.65045 13.0346 9.70624C13.0721 9.76203 13.0979 9.82479 13.1105 9.89078C13.1231 9.95677 13.1224 10.0246 13.1082 10.0903C13.094 10.156 13.0667 10.2181 13.028 10.273C12.3225 11.3572 11.2856 12.1843 10.0717 12.6312C8.85783 13.078 7.53207 13.1206 6.29203 12.7526C5.05198 12.3846 3.96406 11.6257 3.19044 10.5891C2.55127 9.73259 2.15492 8.7244 2.03652 7.67033Z" fill="white"/>
<path d="M7.99902 2.00003L7.99895 2.10003H7.999L7.99902 2.00003ZM11.5336 3.46449L11.4628 3.5352H11.4628L11.5336 3.46449ZM12.9386 6.23156L12.8679 6.30225L13.0845 6.51902L13.0374 6.21619L12.9386 6.23156ZM11.8537 5.14592L11.9244 5.07523L11.9244 5.07521L11.8537 5.14592ZM11.1457 5.85392L11.0749 5.92463L11.1457 5.85392ZM13.1457 7.85392L13.2165 7.7833L13.2164 7.78321L13.1457 7.85392ZM13.8537 7.85392L13.7829 7.78321L13.7829 7.7833L13.8537 7.85392ZM15.8537 5.85392L15.783 5.78312L15.7829 5.78321L15.8537 5.85392ZM15.8537 5.14592L15.7829 5.21654L15.783 5.21672L15.8537 5.14592ZM15.1457 5.14592L15.2164 5.21661L15.2165 5.21654L15.1457 5.14592ZM13.9616 6.33066L13.8623 6.3418L13.8854 6.54837L14.0324 6.40135L13.9616 6.33066ZM12.8076 3.41099L12.7275 3.47079L12.8076 3.41099ZM5.92635 1.36888L5.8918 1.27504L5.92635 1.36888ZM2.97002 3.72703L2.88615 3.67245L2.88434 3.67546L2.97002 3.72703ZM3.80702 4.27303L3.8888 4.33071L3.89087 4.32752L3.80702 4.27303ZM0.853655 8.85392L0.924366 8.92463L0.924387 8.92461L0.853655 8.85392ZM2.03652 7.67033L2.13589 7.65917L2.11269 7.45265L1.96579 7.59965L2.03652 7.67033ZM0.145655 8.85392L0.0749443 8.92463H0.0749443L0.145655 8.85392ZM0.145655 8.14592L0.0749444 8.07521H0.0749443L0.145655 8.14592ZM2.14565 6.14592L2.21637 6.21663L2.21645 6.21654L2.14565 6.14592ZM2.85366 6.14592L2.78286 6.21654L2.78294 6.21663L2.85366 6.14592ZM4.85366 8.14592L4.92437 8.07521L4.85366 8.14592ZM4.14566 8.85392L4.07492 8.92461L4.07494 8.92463L4.14566 8.85392ZM3.05765 7.76526L3.12839 7.69457L2.91211 7.47815L2.95883 7.78053L3.05765 7.76526ZM3.99161 9.99184L4.07176 9.93204L3.99161 9.99184ZM12.191 9.72703L12.2749 9.78157L12.2767 9.77859L12.191 9.72703ZM13.028 10.273L12.9462 10.2153L12.9442 10.2185L13.028 10.273ZM3.19044 10.5891L3.27058 10.5293L3.19044 10.5891ZM7.9991 1.90003C7.14959 1.89938 6.3134 2.11115 5.5666 2.51608L5.66193 2.69189C6.37941 2.30286 7.18278 2.0994 7.99895 2.10003L7.9991 1.90003ZM11.6043 3.39378C10.6481 2.43759 9.35128 1.9003 7.99904 1.90003L7.999 2.10003C9.29821 2.10029 10.5441 2.61651 11.4628 3.5352L11.6043 3.39378ZM13.0374 6.21619C12.8722 5.15385 12.374 4.16347 11.6043 3.39378L11.4628 3.5352C12.2023 4.27471 12.6811 5.22624 12.8398 6.24693L13.0374 6.21619ZM13.0094 6.16087L11.9244 5.07523L11.7829 5.21661L12.8679 6.30225L13.0094 6.16087ZM11.9244 5.07521C11.8117 4.96257 11.659 4.89929 11.4997 4.89929V5.09929C11.6059 5.09929 11.7078 5.14149 11.7829 5.21663L11.9244 5.07521ZM11.4997 4.89929C11.3404 4.89929 11.1876 4.96257 11.0749 5.07521L11.2164 5.21663C11.2915 5.14149 11.3934 5.09929 11.4997 5.09929V4.89929ZM11.0749 5.07521C10.9623 5.18785 10.899 5.34062 10.899 5.49992H11.099C11.099 5.39366 11.1412 5.29176 11.2164 5.21663L11.0749 5.07521ZM10.899 5.49992C10.899 5.65921 10.9623 5.81199 11.0749 5.92463L11.2164 5.78321C11.1412 5.70807 11.099 5.60617 11.099 5.49992H10.899ZM11.0749 5.92463L13.0749 7.92463L13.2164 7.78321L11.2164 5.78321L11.0749 5.92463ZM13.0749 7.92454C13.1306 7.98041 13.1968 8.02475 13.2697 8.05499L13.3463 7.87027C13.2978 7.8501 13.2536 7.82055 13.2165 7.7833L13.0749 7.92454ZM13.2697 8.05499C13.3426 8.08524 13.4207 8.10081 13.4997 8.10081V7.90081C13.447 7.90081 13.3949 7.89043 13.3463 7.87027L13.2697 8.05499ZM13.4997 8.10081C13.5786 8.10081 13.6567 8.08524 13.7296 8.05499L13.653 7.87027C13.6044 7.89043 13.5523 7.90081 13.4997 7.90081V8.10081ZM13.7296 8.05499C13.8025 8.02475 13.8687 7.98041 13.9245 7.92454L13.7829 7.7833C13.7457 7.82055 13.7016 7.8501 13.653 7.87027L13.7296 8.05499ZM13.9244 7.92463L15.9244 5.92463L15.7829 5.78321L13.7829 7.78321L13.9244 7.92463ZM15.9243 5.92472C15.9802 5.86898 16.0245 5.80277 16.0547 5.72988L15.87 5.65322C15.8498 5.70182 15.8203 5.74596 15.783 5.78312L15.9243 5.92472ZM16.0547 5.72988C16.085 5.65698 16.1005 5.57884 16.1005 5.49992H15.9005C15.9005 5.55253 15.8902 5.60463 15.87 5.65322L16.0547 5.72988ZM16.1005 5.49992C16.1005 5.421 16.085 5.34285 16.0547 5.26996L15.87 5.34661C15.8902 5.39521 15.9005 5.4473 15.9005 5.49992H16.1005ZM16.0547 5.26996C16.0245 5.19706 15.9802 5.13085 15.9243 5.07512L15.783 5.21672C15.8203 5.25387 15.8498 5.29801 15.87 5.34661L16.0547 5.26996ZM15.9245 5.0753C15.8687 5.01942 15.8025 4.97509 15.7296 4.94484L15.653 5.12957C15.7016 5.14973 15.7457 5.17929 15.7829 5.21654L15.9245 5.0753ZM15.7296 4.94484C15.6567 4.91459 15.5786 4.89902 15.4997 4.89902V5.09902C15.5523 5.09902 15.6044 5.1094 15.653 5.12957L15.7296 4.94484ZM15.4997 4.89902C15.4207 4.89902 15.3426 4.91459 15.2697 4.94484L15.3463 5.12957C15.3949 5.1094 15.447 5.09902 15.4997 5.09902V4.89902ZM15.2697 4.94484C15.1968 4.97509 15.1306 5.01942 15.0749 5.0753L15.2165 5.21654C15.2536 5.17929 15.2978 5.14973 15.3463 5.12957L15.2697 4.94484ZM15.0749 5.07523L13.8909 6.25997L14.0324 6.40135L15.2164 5.21661L15.0749 5.07523ZM12.7275 3.47079C13.3562 4.31325 13.746 5.30497 13.8623 6.3418L14.061 6.31951C13.9408 5.24753 13.5378 4.22219 12.8877 3.35118L12.7275 3.47079ZM9.67757 1.34332C10.8969 1.70519 11.9667 2.45142 12.7275 3.47079L12.8877 3.35118C12.1012 2.29725 10.9952 1.52572 9.73447 1.15159L9.67757 1.34332ZM5.96089 1.46272C7.15453 1.02334 8.45819 0.981457 9.67757 1.34332L9.73447 1.15159C8.47376 0.777455 7.1259 0.820757 5.8918 1.27504L5.96089 1.46272ZM3.05384 3.78157C3.74757 2.71547 4.76726 1.90211 5.96089 1.46272L5.8918 1.27504C4.6577 1.72932 3.60346 2.57025 2.88621 3.67249L3.05384 3.78157ZM3.00856 4.07429C2.9854 3.97333 3.0023 3.86733 3.0557 3.77859L2.88434 3.67546C2.80423 3.80858 2.77888 3.96758 2.81362 4.11901L3.00856 4.07429ZM3.17989 4.31986C3.09314 4.26327 3.03172 4.17524 3.00856 4.07429L2.81362 4.11901C2.84836 4.27044 2.94049 4.40249 3.07061 4.48737L3.17989 4.31986ZM3.47368 4.3777C3.37195 4.39718 3.26664 4.37645 3.17989 4.31986L3.07061 4.48737C3.20074 4.57226 3.35872 4.60336 3.5113 4.57413L3.47368 4.3777ZM3.7253 4.21539C3.66561 4.30003 3.5754 4.35821 3.47368 4.3777L3.5113 4.57413C3.66389 4.5449 3.7992 4.45762 3.88874 4.33066L3.7253 4.21539ZM5.5666 2.51608C4.81981 2.92101 4.18611 3.50624 3.72318 4.21853L3.89087 4.32752C4.33564 3.64319 4.94445 3.08093 5.66193 2.69189L5.5666 2.51608ZM0.924387 8.92461L2.10725 7.74102L1.96579 7.59965L0.782923 8.78323L0.924387 8.92461ZM0.499655 9.10055C0.658952 9.10055 0.811725 9.03727 0.924366 8.92463L0.782944 8.78321C0.707812 8.85834 0.605909 8.90055 0.499655 8.90055V9.10055ZM0.0749443 8.92463C0.187585 9.03727 0.340358 9.10055 0.499655 9.10055V8.90055C0.393401 8.90055 0.291499 8.85834 0.216366 8.78321L0.0749443 8.92463ZM-0.100977 8.49992C-0.100977 8.65921 -0.0376959 8.81199 0.0749443 8.92463L0.216366 8.78321C0.141233 8.70807 0.0990234 8.60617 0.0990234 8.49992H-0.100977ZM0.0749443 8.07521C-0.0376959 8.18785 -0.100977 8.34062 -0.100977 8.49992H0.0990234C0.0990234 8.39366 0.141233 8.29176 0.216366 8.21663L0.0749443 8.07521ZM2.07494 6.07521L0.0749444 8.07521L0.216366 8.21663L2.21637 6.21663L2.07494 6.07521ZM2.26969 5.94484C2.1968 5.97509 2.13059 6.01942 2.07485 6.0753L2.21645 6.21654C2.25361 6.17929 2.29775 6.14973 2.34635 6.12957L2.26969 5.94484ZM2.49966 5.89902C2.42073 5.89902 2.34259 5.91459 2.26969 5.94484L2.34635 6.12957C2.39494 6.1094 2.44704 6.09902 2.49966 6.09902V5.89902ZM2.72962 5.94484C2.65672 5.91459 2.57858 5.89902 2.49966 5.89902V6.09902C2.55227 6.09902 2.60437 6.1094 2.65296 6.12957L2.72962 5.94484ZM2.92446 6.0753C2.86872 6.01942 2.80251 5.97509 2.72962 5.94484L2.65296 6.12957C2.70156 6.14973 2.7457 6.17929 2.78286 6.21654L2.92446 6.0753ZM4.92437 8.07521L2.92437 6.07521L2.78294 6.21663L4.78294 8.21663L4.92437 8.07521ZM5.10029 8.49992C5.10029 8.34062 5.03701 8.18785 4.92437 8.07521L4.78294 8.21663C4.85808 8.29176 4.90029 8.39366 4.90029 8.49992H5.10029ZM4.92437 8.92463C5.03701 8.81199 5.10029 8.65921 5.10029 8.49992H4.90029C4.90029 8.60617 4.85808 8.70807 4.78294 8.78321L4.92437 8.92463ZM4.49966 9.10055C4.65895 9.10055 4.81173 9.03727 4.92437 8.92463L4.78294 8.78321C4.70781 8.85834 4.60591 8.90055 4.49966 8.90055V9.10055ZM4.07494 8.92463C4.18759 9.03727 4.34036 9.10055 4.49966 9.10055V8.90055C4.3934 8.90055 4.2915 8.85834 4.21637 8.78321L4.07494 8.92463ZM2.98692 7.83594L4.07492 8.92461L4.21639 8.78323L3.12839 7.69457L2.98692 7.83594ZM2.95883 7.78053C3.08547 8.60013 3.4108 9.38064 3.91146 10.0516L4.07176 9.93204C3.59073 9.28735 3.27816 8.53745 3.15648 7.74999L2.95883 7.78053ZM3.91146 10.0516C4.56914 10.9331 5.49414 11.5783 6.54849 11.8911L6.60537 11.6994C5.59237 11.3989 4.70365 10.7789 4.07176 9.93204L3.91146 10.0516ZM6.54849 11.8911C7.60284 12.2039 8.73005 12.1675 9.76203 11.7873L9.69289 11.5997C8.70139 11.9649 7.61838 11.9999 6.60537 11.6994L6.54849 11.8911ZM9.76203 11.7873C10.794 11.4072 11.6754 10.7036 12.2749 9.78153L12.1072 9.67252C11.5313 10.5584 10.6844 11.2344 9.69289 11.5997L9.76203 11.7873ZM12.2767 9.77859C12.3044 9.73254 12.3411 9.69254 12.3846 9.66099L12.2673 9.49907C12.202 9.54639 12.1469 9.60639 12.1053 9.67546L12.2767 9.77859ZM12.3846 9.66099C12.4282 9.62944 12.4776 9.60699 12.53 9.59497L12.4853 9.40003C12.4067 9.41806 12.3325 9.45175 12.2673 9.49907L12.3846 9.66099ZM12.53 9.59497C12.5824 9.58295 12.6366 9.58161 12.6896 9.59104L12.7246 9.39414C12.6453 9.38 12.5638 9.38201 12.4853 9.40003L12.53 9.59497ZM12.6896 9.59104C12.7425 9.60046 12.793 9.62045 12.838 9.64982L12.9472 9.48231C12.8797 9.43826 12.804 9.40827 12.7246 9.39414L12.6896 9.59104ZM12.838 9.64982C12.883 9.67919 12.9216 9.71733 12.9516 9.76196L13.1177 9.65052C13.0727 9.58357 13.0148 9.52636 12.9472 9.48231L12.838 9.64982ZM12.9516 9.76196C12.9815 9.80659 13.0022 9.8568 13.0123 9.90959L13.2087 9.87197C13.1936 9.79278 13.1626 9.71746 13.1177 9.65052L12.9516 9.76196ZM13.0123 9.90959C13.0224 9.96238 13.0218 10.0167 13.0104 10.0692L13.2059 10.1114C13.2229 10.0326 13.2239 9.95115 13.2087 9.87197L13.0123 9.90959ZM13.0104 10.0692C12.9991 10.1217 12.9773 10.1715 12.9463 10.2154L13.1097 10.3307C13.1562 10.2648 13.1889 10.1902 13.2059 10.1114L13.0104 10.0692ZM12.9442 10.2185C12.2505 11.2846 11.2308 12.0979 10.0372 12.5373L10.1062 12.725C11.3403 12.2707 12.3946 11.4298 13.1118 10.3276L12.9442 10.2185ZM10.0372 12.5373C8.84352 12.9767 7.53985 13.0186 6.32048 12.6567L6.26358 12.8485C7.52429 13.2226 8.87215 13.1793 10.1062 12.725L10.0372 12.5373ZM6.32048 12.6567C5.1011 12.2949 4.03131 11.5486 3.27058 10.5293L3.1103 10.6489C3.89681 11.7028 5.00286 12.4743 6.26358 12.8485L6.32048 12.6567ZM3.27058 10.5293C2.64207 9.68706 2.25232 8.69567 2.13589 7.65917L1.93714 7.6815C2.05752 8.75313 2.46047 9.77812 3.1103 10.6489L3.27058 10.5293Z" fill="white" mask="url(#path-1-outside-1)"/>
</svg>
