<svg width="16" height="24" viewBox="0 0 16 24" fill="none" xmlns="http://www.w3.org/2000/svg">
<path d="M14.8749 7.39832C14.8535 6.97032 14.501 6.63499 14.0725 6.63499H11.2852L10.6127 2.37569C10.3953 0.999084 9.22606 0 7.83136 0C6.43776 0 5.2685 0.999084 5.05115 2.37569L4.37863 6.63499H1.59136C1.16278 6.63499 0.810301 6.97032 0.788893 7.39832L0.000987909 23.1564C-0.00994946 23.3752 0.0703443 23.5916 0.22129 23.7503C0.372236 23.909 0.584452 24 0.803511 24H14.8604C15.0794 24 15.2915 23.909 15.4425 23.7503C15.5934 23.5916 15.6737 23.3752 15.6628 23.1564L14.8749 7.39832ZM5.8192 2.49698C5.97657 1.50065 6.82274 0.777538 7.83245 0.777538C8.84107 0.777538 9.68735 1.50065 9.84467 2.49698L10.4981 6.63499H5.16586L5.8192 2.49698ZM14.8791 23.2144C14.8715 23.2225 14.8634 23.2225 14.8604 23.2225H0.803511C0.800452 23.2225 0.792418 23.2225 0.784746 23.2144C0.777074 23.2064 0.777489 23.1983 0.777645 23.1953L1.56555 7.4372C1.56622 7.42336 1.57763 7.41253 1.59147 7.41253H4.25593L4.13044 8.20717C4.09695 8.41928 4.24173 8.61833 4.45379 8.65182C4.47432 8.65508 4.49474 8.65664 4.51491 8.65664C4.70286 8.65664 4.86817 8.52 4.89844 8.32847L5.04306 7.41253H10.6208L10.7654 8.32847C10.7989 8.54053 10.9978 8.6851 11.2101 8.65182C11.4221 8.61833 11.5669 8.41928 11.5334 8.20717L11.408 7.41253H14.0725C14.0863 7.41253 14.0976 7.42336 14.0984 7.4372L14.8863 23.1953C14.8864 23.1983 14.8868 23.2063 14.8791 23.2144Z" fill="white"/>
</svg>
