<svg width="12" height="12" viewBox="0 0 12 12" fill="none" xmlns="http://www.w3.org/2000/svg">
<path d="M11.4142 4.82784L7.94287 4.32334L6.39111 1.17745C6.34873 1.09131 6.279 1.02159 6.19287 0.979204C5.97685 0.872564 5.71435 0.961431 5.60635 1.17745L4.05459 4.32334L0.583299 4.82784C0.487596 4.84151 0.400096 4.88663 0.333104 4.95499C0.252114 5.03823 0.207485 5.15022 0.209023 5.26635C0.210561 5.38248 0.258141 5.49325 0.341307 5.57432L2.85283 8.02295L2.25947 11.4806C2.24556 11.561 2.25446 11.6437 2.28516 11.7194C2.31587 11.795 2.36715 11.8605 2.4332 11.9085C2.49924 11.9564 2.57741 11.9849 2.65883 11.9907C2.74025 11.9965 2.82166 11.9794 2.89385 11.9413L5.99873 10.3089L9.10361 11.9413C9.18838 11.9864 9.28681 12.0015 9.38115 11.9851C9.61904 11.944 9.779 11.7185 9.73799 11.4806L9.14463 8.02295L11.6562 5.57432C11.7245 5.50733 11.7696 5.41983 11.7833 5.32413C11.8202 5.08487 11.6534 4.86338 11.4142 4.82784Z" fill="#FFD25C"/>
</svg>
