<svg width="120" height="287" viewBox="0 0 120 287" fill="none" xmlns="http://www.w3.org/2000/svg">
<mask id="path-1-inside-1" fill="white">
<path fill-rule="evenodd" clip-rule="evenodd" d="M31.1045 83.4926C28.3332 82.1352 23.7521 80.7778 23.7521 80.7778C23.7521 80.7778 24.6031 78.2748 23.8562 73.7398C23.7543 73.0124 23.7153 72.2492 23.679 71.539L23.679 71.5389C23.6062 70.115 23.5443 68.9036 23.0083 68.6177C22.9452 68.5771 22.8874 68.5639 22.8341 68.5751C22.4845 67.0027 22.2726 66.7515 21.8858 68.0525C21.3202 70.1451 16.8522 71.955 14.6465 71.5591C14.1598 71.4739 13.7046 71.8389 13.3128 72.484C12.6483 71.2096 11.9823 70.4875 10.6309 70.3717C8.85291 70.2193 10.6794 76.9564 12.2173 80.7478C12.3999 81.5006 12.694 82.1113 13.1195 82.4745C14.5221 83.6719 16.6076 84.2278 18.3997 84.7054C19.5703 85.0174 20.6156 85.296 21.2636 85.6983C22.8472 86.7163 32.1791 94.1252 32.1791 94.1252L31.1045 83.4926Z"/>
</mask>
<path fill-rule="evenodd" clip-rule="evenodd" d="M31.1045 83.4926C28.3332 82.1352 23.7521 80.7778 23.7521 80.7778C23.7521 80.7778 24.6031 78.2748 23.8562 73.7398C23.7543 73.0124 23.7153 72.2492 23.679 71.539L23.679 71.5389C23.6062 70.115 23.5443 68.9036 23.0083 68.6177C22.9452 68.5771 22.8874 68.5639 22.8341 68.5751C22.4845 67.0027 22.2726 66.7515 21.8858 68.0525C21.3202 70.1451 16.8522 71.955 14.6465 71.5591C14.1598 71.4739 13.7046 71.8389 13.3128 72.484C12.6483 71.2096 11.9823 70.4875 10.6309 70.3717C8.85291 70.2193 10.6794 76.9564 12.2173 80.7478C12.3999 81.5006 12.694 82.1113 13.1195 82.4745C14.5221 83.6719 16.6076 84.2278 18.3997 84.7054C19.5703 85.0174 20.6156 85.296 21.2636 85.6983C22.8472 86.7163 32.1791 94.1252 32.1791 94.1252L31.1045 83.4926Z" fill="white"/>
<path d="M23.7521 80.7778L22.8054 80.4559L22.4704 81.441L23.468 81.7366L23.7521 80.7778ZM31.1045 83.4926L32.0994 83.392L32.0436 82.839L31.5444 82.5945L31.1045 83.4926ZM23.8562 73.7398L22.8658 73.8785L22.8675 73.8905L22.8694 73.9024L23.8562 73.7398ZM23.679 71.539L24.6778 71.4879L24.6769 71.4746L23.679 71.539ZM23.679 71.5389L22.6802 71.59L22.6811 71.6033L23.679 71.5389ZM23.0083 68.6177L22.4676 69.4589L22.5018 69.4809L22.5378 69.5001L23.0083 68.6177ZM22.8341 68.5751L21.858 68.7922L22.0726 69.7577L23.0404 69.5536L22.8341 68.5751ZM21.8858 68.0525L20.9272 67.7676L20.9237 67.7796L20.9204 67.7916L21.8858 68.0525ZM14.6465 71.5591L14.8232 70.5748L14.8189 70.574L14.6465 71.5591ZM13.3128 72.484L12.4261 72.9464L13.2466 74.5198L14.1676 73.0031L13.3128 72.484ZM10.6309 70.3717L10.5455 71.368H10.5455L10.6309 70.3717ZM12.2173 80.7478L13.1891 80.512L13.1717 80.4403L13.144 80.3719L12.2173 80.7478ZM13.1195 82.4745L13.7687 81.714L13.7687 81.714L13.1195 82.4745ZM18.3997 84.7054L18.6572 83.7392H18.6572L18.3997 84.7054ZM21.2636 85.6983L21.8044 84.8571L21.7977 84.8528L21.791 84.8486L21.2636 85.6983ZM32.1791 94.1252L31.5573 94.9084L33.4122 96.3811L33.174 94.0247L32.1791 94.1252ZM23.7521 80.7778C23.468 81.7366 23.468 81.7366 23.468 81.7366C23.468 81.7366 23.468 81.7366 23.468 81.7366C23.4681 81.7366 23.4683 81.7367 23.4685 81.7367C23.4689 81.7369 23.4696 81.7371 23.4706 81.7374C23.4725 81.7379 23.4755 81.7388 23.4796 81.7401C23.4878 81.7425 23.5003 81.7462 23.5168 81.7512C23.5499 81.7611 23.5992 81.776 23.6633 81.7955C23.7914 81.8345 23.9783 81.8919 24.2116 81.9652C24.6785 82.1118 25.3297 82.3213 26.0661 82.5726C27.55 83.079 29.3385 83.7411 30.6646 84.3906L31.5444 82.5945C30.0992 81.8867 28.2115 81.1914 26.712 80.6798C25.9568 80.422 25.2895 80.2074 24.8108 80.0571C24.5713 79.9819 24.3787 79.9227 24.2455 79.8821C24.1789 79.8618 24.1271 79.8462 24.0917 79.8356C24.074 79.8303 24.0604 79.8262 24.0511 79.8234C24.0464 79.8221 24.0429 79.821 24.0404 79.8203C24.0391 79.8199 24.0382 79.8196 24.0375 79.8194C24.0371 79.8193 24.0368 79.8192 24.0366 79.8191C24.0365 79.8191 24.0364 79.8191 24.0364 79.8191C24.0363 79.819 24.0362 79.819 23.7521 80.7778ZM22.8694 73.9024C23.2281 76.0796 23.2003 77.7508 23.0892 78.8598C23.0337 79.4148 22.9572 79.83 22.8974 80.0983C22.8675 80.2324 22.8417 80.3299 22.8248 80.3898C22.8164 80.4198 22.8101 80.4404 22.8067 80.4514C22.805 80.4569 22.8039 80.4601 22.8037 80.4608C22.8036 80.4612 22.8036 80.461 22.8039 80.4602C22.8041 80.4598 22.8042 80.4592 22.8045 80.4585C22.8046 80.4581 22.8047 80.4577 22.8049 80.4573C22.805 80.4571 22.8051 80.4568 22.8051 80.4566C22.8052 80.4563 22.8054 80.4559 23.7521 80.7778C24.6989 81.0997 24.699 81.0993 24.6992 81.0989C24.6992 81.0988 24.6994 81.0984 24.6995 81.0981C24.6997 81.0975 24.6999 81.0969 24.7001 81.0962C24.7005 81.0949 24.701 81.0934 24.7016 81.0918C24.7027 81.0885 24.7039 81.0847 24.7054 81.0802C24.7083 81.0712 24.712 81.0597 24.7163 81.0458C24.725 81.018 24.7363 80.9803 24.7497 80.933C24.7764 80.8383 24.8113 80.7048 24.8495 80.5335C24.9259 80.1908 25.0155 79.6968 25.0793 79.0591C25.207 77.7828 25.2312 75.9351 24.8429 73.5773L22.8694 73.9024ZM22.6803 71.59C22.7162 72.2924 22.7568 73.1 22.8658 73.8785L24.8465 73.6011C24.7518 72.9248 24.7144 72.2061 24.6777 71.4879L22.6803 71.59ZM22.6811 71.6033L22.6811 71.6033L24.6769 71.4746L24.6769 71.4745L22.6811 71.6033ZM22.5378 69.5001C22.4126 69.4334 22.3932 69.354 22.4232 69.4181C22.4528 69.4816 22.4941 69.608 22.5327 69.8261C22.611 70.2678 22.6428 70.856 22.6803 71.5899L24.6777 71.4879C24.6424 70.7979 24.6069 70.0685 24.502 69.477C24.4491 69.1785 24.3698 68.8595 24.2349 68.5709C24.1002 68.283 23.8721 67.9451 23.4789 67.7354L22.5378 69.5001ZM23.0404 69.5536C22.7645 69.6118 22.5552 69.5152 22.4676 69.4589L23.5491 67.7766C23.3352 67.639 23.0103 67.516 22.6278 67.5966L23.0404 69.5536ZM22.8443 68.3375C22.8884 68.1891 22.9263 68.0758 22.9581 67.9919C22.9919 67.903 23.0099 67.8712 23.0088 67.8731C23.0075 67.8753 22.9924 67.901 22.9606 67.9375C22.9305 67.972 22.8644 68.0406 22.7557 68.1021C22.639 68.168 22.4735 68.2247 22.2751 68.2159C22.0784 68.2072 21.9229 68.1375 21.819 68.0682C21.7214 68.0031 21.6637 67.9354 21.6383 67.9026C21.6111 67.8677 21.5988 67.844 21.5984 67.8431C21.5971 67.8408 21.6015 67.8489 21.6106 67.8714C21.6195 67.8932 21.6309 67.9237 21.6445 67.9645C21.7023 68.1371 21.772 68.4055 21.858 68.7922L23.8103 68.3581C23.7214 67.9585 23.6335 67.6059 23.5411 67.3298C23.4952 67.1926 23.4386 67.0448 23.3664 66.9083C23.3071 66.7961 23.1758 66.5691 22.9287 66.4043C22.7886 66.3109 22.5967 66.2282 22.3633 66.2179C22.1282 66.2075 21.9257 66.2738 21.7715 66.361C21.5014 66.5137 21.3531 66.7436 21.2872 66.8552C21.1391 67.1056 21.0249 67.4389 20.9272 67.7676L22.8443 68.3375ZM14.4698 72.5433C15.8597 72.7928 17.7485 72.3516 19.2947 71.6495C20.0892 71.2887 20.856 70.8316 21.4778 70.2975C22.0868 69.7744 22.6363 69.1085 22.8511 68.3134L20.9204 67.7916C20.8525 68.0429 20.6314 68.388 20.1746 68.7804C19.7306 69.1618 19.1365 69.5248 18.4677 69.8285C17.0871 70.4554 15.639 70.7212 14.8232 70.5748L14.4698 72.5433ZM14.1676 73.0031C14.325 72.7439 14.4537 72.6131 14.529 72.5588C14.5621 72.5349 14.5704 72.5364 14.5537 72.541C14.5332 72.5466 14.5033 72.5492 14.4741 72.5441L14.8189 70.574C13.6583 70.3709 12.8739 71.2803 12.4581 71.965L14.1676 73.0031ZM10.5455 71.368C11.0398 71.4104 11.3413 71.5517 11.5833 71.7566C11.8531 71.9851 12.1137 72.3471 12.4261 72.9464L14.1995 72.0217C13.8475 71.3465 13.4427 70.7103 12.8756 70.2302C12.2806 69.7264 11.5733 69.4488 10.7163 69.3753L10.5455 71.368ZM13.144 80.3719C12.3939 78.5228 11.5734 75.9515 11.1613 73.8852C10.9521 72.836 10.8661 72.0021 10.9091 71.477C10.9316 71.2023 10.9808 71.1378 10.9593 71.1703C10.9392 71.2006 10.8854 71.2663 10.7855 71.3161C10.6833 71.3672 10.5922 71.372 10.5455 71.368L10.7163 69.3753C10.4473 69.3523 10.1621 69.3919 9.89206 69.5268C9.62438 69.6604 9.42894 69.8589 9.29166 70.0662C9.03576 70.4528 8.94802 70.9193 8.91574 71.314C8.84917 72.1277 8.98259 73.1865 9.19996 74.2764C9.64113 76.4885 10.5028 79.1814 11.2906 81.1237L13.144 80.3719ZM13.7687 81.714C13.5764 81.5498 13.351 81.1793 13.1891 80.512L11.2455 80.9836C11.4488 81.8218 11.8116 82.6728 12.4702 83.2351L13.7687 81.714ZM18.6572 83.7392C16.8057 83.2457 14.9654 82.7355 13.7687 81.714L12.4702 83.2351C14.0788 84.6083 16.4096 85.2099 18.1422 85.6717L18.6572 83.7392ZM21.791 84.8486C20.986 84.349 19.763 84.0339 18.6572 83.7392L18.1422 85.6717C19.3775 86.0009 20.2452 86.2431 20.7363 86.5479L21.791 84.8486ZM32.1791 94.1252C32.8009 93.3421 32.8008 93.342 32.8008 93.342C32.8007 93.3419 32.8006 93.3418 32.8004 93.3417C32.8001 93.3415 32.7997 93.3411 32.7991 93.3407C32.798 93.3398 32.7963 93.3384 32.794 93.3366C32.7895 93.333 32.7828 93.3277 32.7739 93.3206C32.7561 93.3065 32.7297 93.2856 32.6953 93.2583C32.6264 93.2036 32.5252 93.1234 32.3959 93.021C32.1374 92.8162 31.7663 92.5225 31.316 92.1669C30.4157 91.4558 29.1984 90.4968 27.9313 89.5058C25.4257 87.5462 22.6464 85.3983 21.8044 84.8571L20.7229 86.5394C21.4645 87.0162 24.1429 89.0819 26.6991 91.0812C27.963 92.0697 29.1776 93.0265 30.0765 93.7364C30.5258 94.0913 30.8962 94.3844 31.1541 94.5888C31.2831 94.6909 31.3839 94.7709 31.4525 94.8253C31.4868 94.8525 31.513 94.8733 31.5307 94.8873C31.5395 94.8943 31.5462 94.8996 31.5506 94.9031C31.5529 94.9049 31.5545 94.9062 31.5556 94.9071C31.5562 94.9075 31.5566 94.9079 31.5569 94.9081C31.557 94.9082 31.5571 94.9083 31.5572 94.9083C31.5573 94.9084 31.5573 94.9084 32.1791 94.1252ZM30.1096 83.5931L31.1842 94.2258L33.174 94.0247L32.0994 83.392L30.1096 83.5931Z" fill="black" mask="url(#path-1-inside-1)"/>
<path fill-rule="evenodd" clip-rule="evenodd" d="M21.0334 82.6442H21.0839L21.084 82.6435L21.0876 82.6434L22.8408 69.296C22.826 69.308 22.8112 69.3203 22.7965 69.3327L23.5724 63.3018H10.5078L12.9963 82.6442H13.1036L13.1131 82.7565L21.0334 82.6442Z" fill="#FD8A36"/>
<path d="M19.4456 71.5588C19.4456 73.4251 18.3144 74.8956 16.9005 74.8956C15.4866 74.8956 14.3555 73.3686 14.3555 71.5588C14.3555 69.6924 15.4866 68.2219 16.9005 68.2219C18.2579 68.2219 19.4456 69.6924 19.4456 71.5588Z" fill="#944207"/>
<path d="M22.0459 66.8647H11.8657C10.5649 66.8647 9.54688 65.7901 9.54688 64.5459C9.54688 63.2451 10.6214 62.2271 11.8657 62.2271H22.0459C23.3467 62.2271 24.3647 63.3016 24.3647 64.5459C24.3647 65.7901 23.2901 66.8647 22.0459 66.8647Z" fill="#944207"/>
<path d="M50.4367 65.9596C49.9842 65.9596 47.4957 65.8465 44.7244 63.9802C41.9532 62.1138 38.3901 58.0417 36.8631 49.2754C34.4311 34.9665 38.2204 21.2232 43.0277 15.5675C43.1408 15.3979 43.3671 15.3978 43.5367 15.511C43.7064 15.6241 43.7064 15.8503 43.5933 16.02C41.2179 18.8478 39.1253 23.6551 37.9376 29.2543C36.9762 33.7788 36.1278 40.8484 37.5417 49.1057C39.0122 57.6458 42.4622 61.5482 45.0638 63.358C47.8916 65.281 50.3801 65.2244 50.3801 65.2244C50.6063 65.2244 50.7194 65.3941 50.776 65.5637C50.776 65.7334 50.6063 65.9031 50.4367 65.9596C50.4932 65.9596 50.4932 65.9596 50.4367 65.9596Z" fill="black"/>
<path d="M35.618 54.1395C35.4484 54.1395 35.3353 54.0264 35.2787 53.8567C31.4894 41.0183 35.109 23.9381 43.4794 14.9456C43.5925 14.7759 43.8187 14.7759 43.9319 14.9456C44.1015 15.0587 44.1015 15.285 43.9319 15.4546C35.7312 24.2775 32.2246 41.0749 35.9574 53.687C36.0139 53.8567 35.9008 54.0829 35.7312 54.1395C35.6746 54.1395 35.6746 54.1395 35.618 54.1395Z" fill="black"/>
<path d="M41.554 17.4341C42.7982 14.2669 61.0661 -1.17308 73.6217 0.0711729C86.1773 1.31542 86.1773 34.7971 79.1642 47.692C75.2618 54.9313 53.544 60.2476 46.1917 60.587C38.8393 60.9263 34.541 35.5323 41.554 17.4341Z" fill="black"/>
<mask id="path-9-inside-2" fill="white">
<path fill-rule="evenodd" clip-rule="evenodd" d="M114.099 265.3C114.864 265.697 115.637 266.098 116.38 267.584C117.341 269.451 119.038 273.749 119.038 273.749L117.115 275.163C117.115 275.163 114.683 271.826 113.269 272.278C112.494 272.558 111.888 275.152 111.322 277.578C110.856 279.573 110.417 281.454 109.932 281.837C105.152 285.623 101.679 285.765 98.1537 285.91C97.4664 285.938 96.7772 285.966 96.0759 286.022C94.8883 286.135 90.1375 284.438 94.662 281.837C99.1866 279.235 103.768 270.525 102.354 262.155C101.11 254.802 93.3047 239.645 86.1785 227.372C85.5236 226.25 84.7626 224.971 83.9151 223.546C72.4669 204.305 45.2409 158.547 50.7174 113.523L52.3575 110.583L78.713 132.413C78.713 132.413 79.8664 140.733 81.4273 151.47C82.8707 161.323 84.6579 173.156 86.1828 182.524C87.3705 189.82 89.4631 193.892 91.8385 197.115C91.6689 196.889 91.485 196.663 91.3012 196.437C91.2702 196.398 91.2392 196.36 91.2082 196.322C92.3852 198.051 93.6588 199.513 94.9607 201.008C98.2548 204.789 101.73 208.779 104.277 217.814C108.423 232.531 109.596 247.835 110.102 254.441C110.224 256.035 110.308 257.123 110.385 257.574C111.462 263.931 112.768 264.609 114.099 265.3Z"/>
</mask>
<path fill-rule="evenodd" clip-rule="evenodd" d="M114.099 265.3C114.864 265.697 115.637 266.098 116.38 267.584C117.341 269.451 119.038 273.749 119.038 273.749L117.115 275.163C117.115 275.163 114.683 271.826 113.269 272.278C112.494 272.558 111.888 275.152 111.322 277.578C110.856 279.573 110.417 281.454 109.932 281.837C105.152 285.623 101.679 285.765 98.1537 285.91C97.4664 285.938 96.7772 285.966 96.0759 286.022C94.8883 286.135 90.1375 284.438 94.662 281.837C99.1866 279.235 103.768 270.525 102.354 262.155C101.11 254.802 93.3047 239.645 86.1785 227.372C85.5236 226.25 84.7626 224.971 83.9151 223.546C72.4669 204.305 45.2409 158.547 50.7174 113.523L52.3575 110.583L78.713 132.413C78.713 132.413 79.8664 140.733 81.4273 151.47C82.8707 161.323 84.6579 173.156 86.1828 182.524C87.3705 189.82 89.4631 193.892 91.8385 197.115C91.6689 196.889 91.485 196.663 91.3012 196.437C91.2702 196.398 91.2392 196.36 91.2082 196.322C92.3852 198.051 93.6588 199.513 94.9607 201.008C98.2548 204.789 101.73 208.779 104.277 217.814C108.423 232.531 109.596 247.835 110.102 254.441C110.224 256.035 110.308 257.123 110.385 257.574C111.462 263.931 112.768 264.609 114.099 265.3Z" fill="black"/>
<path d="M116.38 267.584L115.485 268.031L115.491 268.042L116.38 267.584ZM114.099 265.3L114.56 264.412L114.099 265.3ZM119.038 273.749L119.63 274.555L120.251 274.098L119.968 273.382L119.038 273.749ZM117.115 275.163L116.307 275.752L116.898 276.563L117.707 275.969L117.115 275.163ZM113.269 272.278L112.964 271.326L112.947 271.332L112.931 271.338L113.269 272.278ZM111.322 277.578L112.296 277.805L111.322 277.578ZM109.932 281.837L109.313 281.052L109.311 281.053L109.932 281.837ZM98.1537 285.91L98.1946 286.909H98.1946L98.1537 285.91ZM96.0759 286.022L95.9972 285.025L95.9892 285.025L95.9811 285.026L96.0759 286.022ZM94.662 281.837L94.1636 280.97L94.662 281.837ZM102.354 262.155L103.34 261.988L103.34 261.988L102.354 262.155ZM86.1785 227.372L87.0433 226.87L87.0423 226.868L86.1785 227.372ZM83.9151 223.546L84.7745 223.035L83.9151 223.546ZM50.7174 113.523L49.844 113.036L49.7484 113.208L49.7247 113.403L50.7174 113.523ZM52.3575 110.583L52.9954 109.812L52.0697 109.046L51.4842 110.095L52.3575 110.583ZM78.713 132.413L79.7035 132.276L79.6502 131.891L79.3509 131.643L78.713 132.413ZM81.4273 151.47L80.4377 151.614L80.4379 151.615L81.4273 151.47ZM86.1828 182.524L85.1958 182.684L86.1828 182.524ZM91.8385 197.115L91.0385 197.715L92.6436 196.522L91.8385 197.115ZM91.3012 196.437L90.5251 197.067L90.5251 197.067L91.3012 196.437ZM91.2082 196.322L91.985 195.692L90.3817 196.885L91.2082 196.322ZM94.9607 201.008L94.2066 201.664L94.9607 201.008ZM104.277 217.814L105.239 217.543L105.239 217.543L104.277 217.814ZM110.102 254.441L111.099 254.365L110.102 254.441ZM110.385 257.574L111.371 257.407L111.371 257.405L110.385 257.574ZM117.274 267.137C116.854 266.297 116.401 265.716 115.908 265.283C115.423 264.857 114.937 264.608 114.56 264.412L113.638 266.187C114.026 266.389 114.308 266.539 114.587 266.784C114.857 267.022 115.162 267.385 115.485 268.031L117.274 267.137ZM119.038 273.749C119.968 273.382 119.968 273.382 119.968 273.382C119.968 273.382 119.968 273.382 119.968 273.381C119.968 273.381 119.968 273.381 119.968 273.381C119.968 273.38 119.967 273.379 119.967 273.378C119.966 273.376 119.965 273.373 119.963 273.369C119.96 273.36 119.955 273.348 119.948 273.332C119.935 273.299 119.917 273.252 119.892 273.191C119.844 273.068 119.773 272.892 119.685 272.674C119.51 272.24 119.267 271.641 118.993 270.982C118.45 269.678 117.771 268.101 117.269 267.126L115.491 268.042C115.95 268.934 116.601 270.44 117.146 271.751C117.417 272.4 117.657 272.992 117.83 273.422C117.917 273.637 117.986 273.811 118.034 273.931C118.058 273.991 118.077 274.037 118.089 274.069C118.095 274.084 118.1 274.096 118.103 274.104C118.105 274.108 118.106 274.111 118.107 274.113C118.107 274.114 118.107 274.115 118.108 274.115C118.108 274.116 118.108 274.116 118.108 274.116C118.108 274.116 118.108 274.116 118.108 274.116C118.108 274.116 118.108 274.116 119.038 273.749ZM117.707 275.969L119.63 274.555L118.446 272.943L116.523 274.357L117.707 275.969ZM113.574 273.231C113.51 273.252 113.603 273.192 113.962 273.402C114.284 273.59 114.652 273.898 115.018 274.261C115.378 274.618 115.702 274.992 115.939 275.282C116.056 275.425 116.15 275.545 116.214 275.629C116.246 275.67 116.27 275.702 116.286 275.724C116.294 275.734 116.3 275.742 116.303 275.747C116.305 275.749 116.306 275.751 116.307 275.752C116.307 275.752 116.307 275.752 116.307 275.752C116.307 275.752 116.307 275.752 116.307 275.752C116.307 275.752 116.307 275.752 116.307 275.752C116.307 275.752 116.307 275.752 117.115 275.163C117.923 274.574 117.923 274.574 117.923 274.574C117.923 274.573 117.923 274.573 117.923 274.573C117.923 274.573 117.922 274.573 117.922 274.572C117.921 274.571 117.921 274.57 117.92 274.569C117.918 274.567 117.916 274.564 117.913 274.56C117.907 274.552 117.899 274.541 117.889 274.527C117.868 274.5 117.839 274.461 117.802 274.412C117.727 274.315 117.62 274.178 117.487 274.015C117.223 273.693 116.851 273.262 116.426 272.841C116.009 272.427 115.503 271.985 114.971 271.675C114.477 271.386 113.736 271.079 112.964 271.326L113.574 273.231ZM112.296 277.805C112.582 276.579 112.865 275.369 113.168 274.431C113.321 273.96 113.464 273.602 113.595 273.362C113.757 273.065 113.789 273.154 113.608 273.219L112.931 271.338C112.361 271.542 112.027 272.061 111.839 272.404C111.621 272.805 111.432 273.3 111.265 273.816C110.931 274.85 110.628 276.151 110.348 277.35L112.296 277.805ZM110.552 282.621C110.878 282.364 111.077 281.976 111.202 281.698C111.344 281.379 111.473 280.998 111.593 280.597C111.832 279.795 112.065 278.793 112.296 277.805L110.348 277.35C110.113 278.358 109.894 279.294 109.676 280.026C109.567 280.393 109.466 280.679 109.375 280.883C109.267 281.127 109.229 281.118 109.313 281.052L110.552 282.621ZM98.1946 286.909C99.9478 286.837 101.807 286.764 103.839 286.203C105.887 285.637 108.069 284.588 110.553 282.62L109.311 281.053C107.015 282.872 105.07 283.787 103.306 284.275C101.525 284.767 99.8847 284.838 98.1127 284.911L98.1946 286.909ZM96.1546 287.019C96.834 286.965 97.5046 286.937 98.1946 286.909L98.1127 284.911C97.4283 284.939 96.7204 284.968 95.9972 285.025L96.1546 287.019ZM94.1636 280.97C92.9763 281.652 92.1491 282.405 91.8573 283.291C91.5229 284.306 91.9824 285.142 92.5366 285.671C93.0683 286.178 93.7834 286.52 94.3964 286.728C94.9911 286.93 95.6678 287.065 96.1708 287.017L95.9811 285.026C95.9811 285.026 95.9805 285.026 95.9793 285.026C95.9781 285.026 95.9763 285.027 95.9739 285.027C95.9692 285.027 95.9625 285.027 95.9539 285.027C95.9364 285.027 95.9131 285.026 95.8837 285.024C95.8243 285.02 95.7489 285.011 95.6593 284.996C95.4792 284.965 95.2643 284.911 95.039 284.834C94.5686 284.675 94.1561 284.452 93.9172 284.224C93.7008 284.017 93.7467 283.948 93.7569 283.917C93.8098 283.756 94.0855 283.322 95.1605 282.703L94.1636 280.97ZM101.368 262.321C102.037 266.281 101.29 270.355 99.8169 273.762C98.3339 277.193 96.1756 279.813 94.1636 280.97L95.1605 282.703C97.673 281.259 100.068 278.223 101.653 274.556C103.248 270.865 104.085 266.399 103.34 261.988L101.368 262.321ZM85.3137 227.874C88.8683 233.996 92.5876 240.83 95.5704 247.042C98.5694 253.287 100.772 258.8 101.368 262.322L103.34 261.988C102.691 258.157 100.369 252.415 97.3733 246.176C94.3611 239.903 90.6149 233.021 87.0433 226.87L85.3137 227.874ZM83.0557 224.058C83.9039 225.483 84.6625 226.758 85.3147 227.876L87.0423 226.868C86.3848 225.741 85.6213 224.458 84.7745 223.035L83.0557 224.058ZM49.7247 113.403C46.9587 136.142 52.4539 159.014 60.0371 178.565C67.6232 198.123 77.3308 214.436 83.0557 224.058L84.7745 223.035C79.0512 213.416 69.4217 197.229 61.9018 177.842C54.3791 158.447 48.9996 135.928 51.7101 113.644L49.7247 113.403ZM51.4842 110.095L49.844 113.036L51.5907 114.011L53.2309 111.07L51.4842 110.095ZM79.3509 131.643L52.9954 109.812L51.7196 111.353L78.0751 133.184L79.3509 131.643ZM82.4169 151.326C81.6367 145.959 80.9583 141.197 80.475 137.776C80.2333 136.065 80.0404 134.69 79.908 133.743C79.8418 133.269 79.7906 132.902 79.7561 132.654C79.7388 132.53 79.7257 132.435 79.7168 132.372C79.7124 132.34 79.7091 132.316 79.7069 132.3C79.7058 132.292 79.7049 132.286 79.7044 132.282C79.7041 132.28 79.7039 132.279 79.7037 132.278C79.7037 132.277 79.7036 132.277 79.7036 132.276C79.7036 132.276 79.7036 132.276 79.7036 132.276C79.7035 132.276 79.7035 132.276 78.713 132.413C77.7225 132.551 77.7225 132.551 77.7225 132.551C77.7225 132.551 77.7225 132.551 77.7225 132.551C77.7226 132.551 77.7226 132.552 77.7227 132.552C77.7228 132.553 77.7231 132.555 77.7233 132.557C77.7239 132.561 77.7247 132.567 77.7259 132.575C77.7281 132.591 77.7314 132.615 77.7359 132.647C77.7447 132.711 77.7579 132.805 77.7752 132.93C77.8098 133.178 77.861 133.546 77.9272 134.02C78.0598 134.968 78.2528 136.344 78.4946 138.055C78.9782 141.478 79.657 146.244 80.4377 151.614L82.4169 151.326ZM87.1699 182.363C85.6461 173.003 83.8598 161.176 82.4168 151.325L80.4379 151.615C81.8816 161.471 83.6696 173.309 85.1958 182.684L87.1699 182.363ZM92.6436 196.522C90.3661 193.431 88.3331 189.509 87.1699 182.363L85.1958 182.684C86.408 190.13 88.5602 194.352 91.0335 197.709L92.6436 196.522ZM90.5251 197.067C90.7112 197.296 90.8825 197.507 91.0385 197.715L92.6385 196.515C92.4552 196.271 92.2588 196.029 92.0774 195.806L90.5251 197.067ZM90.4314 196.952C90.4628 196.99 90.4941 197.029 90.5251 197.067L92.0774 195.806C92.0463 195.768 92.0156 195.73 91.985 195.692L90.4314 196.952ZM95.7148 200.351C94.4083 198.851 93.1733 197.431 92.0348 195.759L90.3817 196.885C91.597 198.67 92.9093 200.175 94.2066 201.664L95.7148 200.351ZM105.239 217.543C102.634 208.301 99.0497 204.18 95.7148 200.351L94.2066 201.664C97.4598 205.399 100.825 209.257 103.314 218.086L105.239 217.543ZM111.099 254.365C110.593 247.76 109.415 232.366 105.239 217.543L103.314 218.085C107.43 232.696 108.599 247.91 109.105 254.517L111.099 254.365ZM111.371 257.405C111.304 257.014 111.224 255.995 111.099 254.365L109.105 254.517C109.225 256.075 109.312 257.232 109.399 257.742L111.371 257.405ZM114.56 264.412C113.942 264.092 113.487 263.856 113.005 263.049C112.475 262.161 111.904 260.552 111.371 257.407L109.399 257.741C109.943 260.953 110.563 262.861 111.288 264.074C112.061 265.368 112.924 265.817 113.638 266.187L114.56 264.412Z" fill="black" mask="url(#path-9-inside-2)"/>
<path d="M29.1745 280.64C29.22 280.469 29.2804 280.236 29.3493 279.954C29.5029 279.326 29.6983 278.457 29.8655 277.495C30.033 276.532 30.1708 275.484 30.212 274.496C30.2535 273.5 30.1953 272.6 29.9924 271.914C29.6922 270.928 29.1906 270.09 28.6701 269.221C28.5421 269.007 28.4129 268.791 28.2853 268.57L28.2839 268.568C27.0489 266.407 27.2969 263.696 28.8375 261.785M29.1745 280.64L28.8378 261.785C28.8377 261.785 28.8376 261.785 28.8375 261.785M29.1745 280.64L26.8659 280.883L27.0119 277.333L27.0282 276.934L26.643 276.83L26.5123 277.312C26.643 276.83 26.6426 276.83 26.6422 276.83L26.6414 276.829L26.6395 276.829L26.6349 276.828L26.6228 276.825C26.6191 276.824 26.6149 276.823 26.6103 276.822C26.6033 276.82 26.5954 276.818 26.5866 276.816C26.5572 276.81 26.5174 276.802 26.468 276.795C26.3693 276.779 26.2317 276.764 26.0613 276.76C25.7201 276.751 25.2476 276.789 24.6939 276.963C23.5767 277.314 22.1853 278.203 20.8866 280.269C20.3585 281.096 19.1992 281.816 17.5563 282.379C15.9342 282.936 13.9308 283.31 11.8379 283.51C7.63196 283.91 3.197 283.592 0.898533 282.726L0.896611 282.726C0.662279 282.639 0.56645 282.557 0.532361 282.515C0.514908 282.493 0.506036 282.478 0.515179 282.425C0.528333 282.348 0.580594 282.217 0.720292 282.021C0.856502 281.83 1.05392 281.608 1.315 281.353C2.05663 280.628 3.1912 279.743 4.57198 278.666C5.17183 278.199 5.81815 277.695 6.49891 277.152C10.9351 273.614 16.6608 268.552 19.2868 261.77L19.2872 261.769C25.2405 246.291 43.6322 185.451 47.2012 119.17L47.8759 114.24C48.0374 114.237 48.2426 114.233 48.4873 114.23C49.151 114.221 50.105 114.212 51.2646 114.217C53.5843 114.225 56.7236 114.285 60.0053 114.49C63.2898 114.694 66.7033 115.042 69.5765 115.624C71.0131 115.915 72.303 116.262 73.3688 116.674C74.4409 117.088 75.2494 117.553 75.758 118.062C80.2607 122.62 90.2019 139.576 76.7489 164.071L76.7487 164.072C74.1901 168.739 71.3056 172.947 68.4549 176.888C67.5407 178.152 66.6281 179.391 65.7306 180.609C63.8368 183.181 62.0103 185.66 60.3777 188.091C55.5603 195.264 52.3109 202.179 53.7898 210.269M29.1745 280.64L53.7898 210.269M28.8375 261.785C32.5284 257.193 39.4116 247.728 45.051 237.676C47.8708 232.65 50.3722 227.489 52.0096 222.726C53.6515 217.95 54.4028 213.634 53.7898 210.269M28.8375 261.785L53.7898 210.269" fill="black" stroke="black"/>
<path d="M86.6885 57.1832C86.8506 57.2615 86.9892 57.327 87.1021 57.3796L87.0653 57.6276C87.0051 58.0327 86.9165 58.6279 86.8029 59.3875C86.5756 60.9066 86.2482 63.0837 85.848 65.7149C85.0475 70.9774 83.9555 78.0561 82.7893 85.3219C81.623 92.5882 80.3829 100.039 79.2863 106.046C78.738 109.051 78.2261 111.69 77.7777 113.764C77.3261 115.853 76.9467 117.329 76.6675 118.034C76.4263 118.643 75.8865 119.206 75.0401 119.709C74.1964 120.211 73.0886 120.631 71.7843 120.969C69.1768 121.644 65.8687 121.975 62.5302 122.045C59.1955 122.115 55.856 121.925 53.1952 121.572C51.864 121.395 50.7126 121.179 49.8211 120.937C49.3753 120.816 49.0027 120.691 48.7088 120.565C48.4087 120.436 48.2194 120.318 48.1166 120.224C48.0255 120.141 47.8923 119.956 47.7306 119.622C47.5739 119.298 47.4089 118.874 47.2373 118.353C46.8944 117.313 46.5383 115.926 46.1762 114.271C45.4524 110.963 44.7138 106.624 44.011 101.927C42.6056 92.5339 41.3481 81.7395 40.6416 74.957C39.9562 68.3493 43.0149 63.4116 46.7851 59.4319C48.535 57.5848 50.4243 55.9586 52.1541 54.4697C52.2904 54.3524 52.4256 54.236 52.5597 54.1204C54.3771 52.5539 56.0181 51.1109 57.007 49.7387C59.0158 46.9903 59.8012 43.0545 59.9228 39.558C59.9839 37.8002 59.8781 36.1306 59.6654 34.7432C59.4559 33.3761 59.1343 32.227 58.7305 31.5467C58.7108 31.5118 58.657 31.3745 58.9299 31.004C59.1919 30.6483 59.6595 30.2214 60.306 29.7441C61.5899 28.796 63.4497 27.7416 65.3779 26.7511C67.3006 25.7634 69.2695 24.8501 70.7593 24.1832C71.4492 23.8743 72.0355 23.6187 72.466 23.4333C71.3854 33.1112 71.5945 39.3083 72.6748 43.5454C73.7969 47.9463 75.8546 50.2147 78.3029 52.0508C80.7018 53.85 82.9852 55.22 84.6691 56.1405C85.5114 56.6009 86.2047 56.9493 86.6885 57.1832Z" fill="white" stroke="black"/>
<mask id="path-13-inside-3" fill="white">
<path fill-rule="evenodd" clip-rule="evenodd" d="M51.3982 54.4226C51.172 60.3045 64.0104 58.4381 67.121 56.1193C69.8923 54.0833 75.0955 51.2554 77.9799 50.6333C82.5045 53.9702 87.8774 57.1373 87.8774 57.1373C87.8774 57.1373 82.0242 95.6178 78.718 111.728L79.3333 111.997C93.6422 135.638 97.6012 178.96 97.6012 178.96C97.6012 178.96 89.3439 186.143 57.1065 177.151C41.8927 172.909 36.6895 175.341 36.6895 175.341C36.6895 175.341 44.9074 130.009 43.6331 102.744C42.179 93.1726 40.87 81.9569 40.1434 74.9527C39.1254 65.2815 45.9688 59.0603 51.3982 54.4226Z"/>
</mask>
<path fill-rule="evenodd" clip-rule="evenodd" d="M51.3982 54.4226C51.172 60.3045 64.0104 58.4381 67.121 56.1193C69.8923 54.0833 75.0955 51.2554 77.9799 50.6333C82.5045 53.9702 87.8774 57.1373 87.8774 57.1373C87.8774 57.1373 82.0242 95.6178 78.718 111.728L79.3333 111.997C93.6422 135.638 97.6012 178.96 97.6012 178.96C97.6012 178.96 89.3439 186.143 57.1065 177.151C41.8927 172.909 36.6895 175.341 36.6895 175.341C36.6895 175.341 44.9074 130.009 43.6331 102.744C42.179 93.1726 40.87 81.9569 40.1434 74.9527C39.1254 65.2815 45.9688 59.0603 51.3982 54.4226Z" fill="white"/>
<path d="M67.121 56.1193L66.529 55.3134L66.5234 55.3176L67.121 56.1193ZM51.3982 54.4226L52.3975 54.461L52.4853 52.179L50.7488 53.6622L51.3982 54.4226ZM77.9799 50.6333L78.5735 49.8285L78.2103 49.5606L77.7691 49.6558L77.9799 50.6333ZM87.8774 57.1373L88.866 57.2877L88.9677 56.6192L88.3852 56.2759L87.8774 57.1373ZM78.718 111.728L77.7384 111.527L77.5757 112.32L78.3172 112.644L78.718 111.728ZM79.3333 111.997L80.1888 111.479L80.0247 111.208L79.7341 111.081L79.3333 111.997ZM97.6012 178.96L98.2575 179.715L98.6436 179.379L98.597 178.869L97.6012 178.96ZM57.1065 177.151L57.3752 176.187L57.375 176.187L57.1065 177.151ZM36.6895 175.341L35.7055 175.162L35.3604 177.066L37.1129 176.247L36.6895 175.341ZM43.6331 102.744L44.632 102.698L44.6295 102.646L44.6217 102.594L43.6331 102.744ZM40.1434 74.9527L41.1381 74.8495L41.138 74.848L40.1434 74.9527ZM66.5234 55.3176C65.9069 55.7771 64.6768 56.2899 63.0778 56.6894C61.5093 57.0813 59.6996 57.3362 58.0024 57.3463C56.2831 57.3565 54.7871 57.1145 53.7726 56.6025C53.277 56.3524 52.9325 56.0561 52.7154 55.7278C52.5047 55.4091 52.3766 55.0047 52.3975 54.461L50.399 54.3842C50.3633 55.311 50.587 56.1349 51.0472 56.8309C51.501 57.5173 52.1467 58.0222 52.8715 58.388C54.2978 59.1079 56.1634 59.3572 58.0143 59.3462C59.8872 59.3351 61.8562 59.0562 63.5627 58.6298C65.2387 58.211 66.7798 57.6209 67.7187 56.9211L66.5234 55.3176ZM77.7691 49.6558C76.1917 49.996 74.073 50.9101 72.0484 51.958C70.006 53.0152 67.9659 54.2578 66.529 55.3134L67.7131 56.9252C69.0475 55.9448 70.9947 54.7555 72.9678 53.7342C74.9587 52.7036 76.8838 51.8927 78.1908 51.6108L77.7691 49.6558ZM87.8774 57.1373C88.3852 56.2759 88.3852 56.2759 88.3852 56.2759C88.3852 56.2759 88.3852 56.2758 88.3851 56.2758C88.385 56.2757 88.3848 56.2756 88.3845 56.2755C88.384 56.2751 88.3831 56.2746 88.3819 56.2739C88.3795 56.2725 88.3758 56.2703 88.3709 56.2674C88.361 56.2616 88.3461 56.2527 88.3263 56.241C88.2868 56.2175 88.2278 56.1824 88.1508 56.1364C87.997 56.0444 87.7715 55.9089 87.4865 55.7357C86.9164 55.3893 86.1087 54.8924 85.1604 54.2918C83.2612 53.089 80.8089 51.4771 78.5735 49.8285L77.3864 51.4381C79.6755 53.1263 82.172 54.7665 84.0903 55.9815C85.0508 56.5898 85.8691 57.0932 86.4478 57.4449C86.7373 57.6208 86.9669 57.7588 87.1245 57.853C87.2034 57.9002 87.2642 57.9364 87.3055 57.9609C87.3262 57.9732 87.342 57.9825 87.3527 57.9889C87.3581 57.992 87.3622 57.9945 87.365 57.9961C87.3664 57.997 87.3675 57.9976 87.3683 57.998C87.3687 57.9983 87.3689 57.9984 87.3692 57.9986C87.3693 57.9986 87.3694 57.9987 87.3694 57.9987C87.3695 57.9988 87.3696 57.9988 87.8774 57.1373ZM79.6976 111.929C81.3556 103.85 83.6487 90.1817 85.5248 78.5506C86.4634 72.7313 87.2987 67.4159 87.8993 63.5554C88.1996 61.625 88.4412 60.0583 88.6078 58.9741C88.6911 58.432 88.7556 58.0105 88.7994 57.7245C88.8212 57.5815 88.8379 57.4724 88.8491 57.3989C88.8547 57.3622 88.8589 57.3344 88.8617 57.3158C88.8631 57.3065 88.8642 57.2995 88.8649 57.2948C88.8653 57.2925 88.8656 57.2907 88.8657 57.2895C88.8658 57.2889 88.8659 57.2885 88.8659 57.2882C88.866 57.2879 88.866 57.2877 87.8774 57.1373C86.8888 56.987 86.8887 56.9871 86.8887 56.9874C86.8886 56.9877 86.8886 56.9881 86.8885 56.9887C86.8883 56.9898 86.8881 56.9916 86.8877 56.9939C86.887 56.9985 86.8859 57.0055 86.8845 57.0147C86.8817 57.0332 86.8775 57.0609 86.8719 57.0975C86.8608 57.1707 86.8441 57.2796 86.8223 57.4223C86.7787 57.7079 86.7142 58.1288 86.631 58.6704C86.4646 59.7535 86.2231 61.319 85.9231 63.2479C85.3229 67.1059 84.4882 72.4175 83.5503 78.2321C81.6733 89.8688 79.3866 103.496 77.7384 111.527L79.6976 111.929ZM78.3172 112.644L78.9325 112.913L79.7341 111.081L79.1188 110.812L78.3172 112.644ZM78.4778 112.515C85.538 124.179 90.0787 140.777 92.8528 154.542C94.2367 161.408 95.1754 167.54 95.7679 171.955C96.0642 174.162 96.2738 175.939 96.4092 177.163C96.4769 177.775 96.5261 178.248 96.5583 178.568C96.5743 178.728 96.5862 178.85 96.594 178.931C96.5979 178.971 96.6007 179.002 96.6026 179.022C96.6036 179.032 96.6043 179.04 96.6047 179.045C96.6049 179.047 96.6051 179.049 96.6052 179.05C96.6053 179.05 96.6053 179.051 96.6053 179.051C96.6053 179.051 96.6053 179.051 97.6012 178.96C98.597 178.869 98.597 178.869 98.597 178.869C98.5969 178.868 98.5969 178.868 98.5968 178.867C98.5967 178.865 98.5965 178.863 98.5962 178.86C98.5957 178.855 98.5949 178.846 98.5939 178.836C98.5919 178.814 98.5889 178.782 98.5848 178.74C98.5768 178.656 98.5646 178.531 98.5482 178.368C98.5154 178.042 98.4656 177.562 98.3971 176.943C98.2601 175.705 98.0486 173.913 97.7501 171.689C97.1532 167.242 96.2078 161.066 94.8134 154.146C92.0308 140.34 87.4376 123.455 80.1888 111.479L78.4778 112.515ZM97.6012 178.96C96.9449 178.206 96.9458 178.205 96.9467 178.204C96.9469 178.204 96.9478 178.203 96.9483 178.203C96.9493 178.202 96.9502 178.201 96.9509 178.201C96.9525 178.199 96.9535 178.198 96.954 178.198C96.955 178.197 96.954 178.198 96.951 178.201C96.9448 178.205 96.9303 178.217 96.907 178.234C96.8604 178.268 96.7783 178.326 96.6569 178.401C96.4142 178.552 96.0132 178.773 95.4224 179.019C94.2413 179.512 92.2956 180.107 89.3333 180.434C83.4033 181.087 73.4129 180.661 57.3752 176.187L56.8378 178.114C73.0375 182.633 83.2944 183.111 89.5524 182.422C92.6841 182.076 94.8176 181.438 96.1922 180.865C96.8792 180.579 97.3752 180.309 97.71 180.102C97.8773 179.998 98.0041 179.91 98.0942 179.844C98.1392 179.81 98.175 179.783 98.2021 179.761C98.2156 179.75 98.227 179.741 98.2362 179.733C98.2408 179.729 98.2449 179.726 98.2484 179.723C98.2502 179.721 98.2518 179.72 98.2533 179.718C98.2541 179.718 98.2551 179.717 98.2555 179.717C98.2565 179.716 98.2575 179.715 97.6012 178.96ZM57.375 176.187C49.6941 174.046 44.4898 173.575 41.1685 173.655C39.5072 173.696 38.3163 173.874 37.5226 174.051C37.1258 174.139 36.8287 174.227 36.6221 174.297C36.5189 174.332 36.4383 174.363 36.3793 174.386C36.3498 174.398 36.3257 174.408 36.3069 174.416C36.2975 174.421 36.2894 174.424 36.2826 174.427C36.2792 174.429 36.2761 174.43 36.2733 174.431C36.272 174.432 36.2707 174.433 36.2694 174.433C36.2688 174.433 36.268 174.434 36.2677 174.434C36.2668 174.434 36.266 174.435 36.6895 175.341C37.1129 176.247 37.1121 176.247 37.1114 176.247C37.1111 176.247 37.1104 176.248 37.1099 176.248C37.109 176.248 37.1082 176.249 37.1075 176.249C37.106 176.25 37.1048 176.25 37.104 176.251C37.1023 176.251 37.1019 176.252 37.1028 176.251C37.1046 176.251 37.1116 176.248 37.1239 176.243C37.1485 176.233 37.1946 176.215 37.2633 176.192C37.4007 176.145 37.629 176.076 37.9577 176.003C38.6151 175.857 39.6759 175.692 41.2171 175.655C44.3009 175.58 49.3051 176.014 56.8379 178.114L57.375 176.187ZM36.6895 175.341C37.6734 175.519 37.6735 175.519 37.6735 175.518C37.6736 175.518 37.6737 175.518 37.6738 175.517C37.6741 175.515 37.6745 175.513 37.675 175.51C37.676 175.505 37.6775 175.496 37.6796 175.485C37.6836 175.463 37.6895 175.43 37.6973 175.386C37.713 175.299 37.7361 175.169 37.7662 174.999C37.8263 174.659 37.9142 174.157 38.0256 173.509C38.2484 172.213 38.5651 170.332 38.941 167.99C39.6927 163.307 40.6818 156.778 41.631 149.394C43.5271 134.647 45.2735 116.424 44.632 102.698L42.6342 102.791C43.267 116.33 41.5416 134.405 39.6473 149.139C38.7013 156.497 37.7155 163.005 36.9662 167.673C36.5916 170.007 36.2762 171.881 36.0545 173.17C35.9437 173.815 35.8563 174.314 35.7967 174.651C35.7669 174.819 35.744 174.948 35.7287 175.034C35.721 175.076 35.7151 175.109 35.7113 175.13C35.7093 175.141 35.7079 175.149 35.7069 175.155C35.7064 175.157 35.7061 175.159 35.7058 175.161C35.7057 175.161 35.7056 175.162 35.7056 175.162C35.7055 175.162 35.7055 175.162 36.6895 175.341ZM39.1488 75.0559C39.8763 82.069 41.1872 93.3016 42.6444 102.894L44.6217 102.594C43.1709 93.0436 41.8638 81.8448 41.1381 74.8495L39.1488 75.0559ZM50.7488 53.6622C45.3639 58.2618 38.0697 64.8043 39.1489 75.0574L41.138 74.848C40.1812 65.7588 46.5737 59.8587 52.0477 55.183L50.7488 53.6622Z" fill="black" mask="url(#path-13-inside-3)"/>
<path d="M77.1909 114.881C76.6253 122.234 78.2655 132.584 78.2655 132.584C78.2655 132.584 81.3196 131.679 81.1499 131.17C80.9802 130.661 79.736 123.987 80.5843 120.989C81.4892 117.935 88.8416 118.671 89.0113 121.159C89.181 123.648 89.7466 126.532 89.7466 126.532C89.7466 126.532 92.9703 124.948 92.631 124.044C92.2916 123.139 89.4072 117.257 89.4072 117.257L77.1909 114.881Z" fill="#469DB8"/>
<path d="M67.416 119.306L58.8941 128.165L58.894 128.165L58.887 128.172C58.2897 128.819 57.4947 129.216 56.6509 129.316L56.6421 129.317L56.6333 129.318C56.2933 129.37 56.0565 129.38 55.8856 129.38C55.8209 129.38 55.768 129.379 55.7152 129.377C55.6942 129.377 55.6732 129.376 55.6516 129.376C55.5854 129.375 55.4975 129.373 55.4106 129.384C55.3146 129.396 55.203 129.425 55.0914 129.493C54.9825 129.559 54.9046 129.645 54.8463 129.725C54.7482 129.861 54.6566 130.055 54.5563 130.269L54.5485 130.285C54.5234 130.337 54.4993 130.387 54.4762 130.435C54.3338 130.731 54.2299 130.946 54.1695 131.084L54.1694 131.084C54.1426 131.145 54.0957 131.252 54.0788 131.349C54.0742 131.376 54.0633 131.445 54.0771 131.53C54.0913 131.617 54.1524 131.819 54.376 131.916C54.5643 131.998 54.7265 131.938 54.7687 131.921C54.8277 131.898 54.8707 131.868 54.8906 131.854C54.9608 131.804 55.0314 131.729 55.0728 131.685C55.1169 131.638 55.1704 131.579 55.229 131.514C55.2413 131.501 55.2538 131.487 55.2664 131.473C55.3597 131.371 55.4708 131.249 55.5996 131.114C55.6854 131.178 55.7319 131.239 55.7587 131.289C55.8094 131.383 55.8258 131.5 55.8061 131.644C55.786 131.79 55.7322 131.936 55.6769 132.053C55.6502 132.109 55.6251 132.154 55.6076 132.184C55.5989 132.199 55.5922 132.21 55.5883 132.216L55.5848 132.221L55.5847 132.222C55.5844 132.222 55.5844 132.222 55.5846 132.222L55.5662 132.249L55.5508 132.28L55.5507 132.281L55.5507 132.281L55.5503 132.282L55.5482 132.286L55.5396 132.303L55.5048 132.373C55.4738 132.434 55.4279 132.525 55.3684 132.64C55.2494 132.869 55.0764 133.195 54.8618 133.577C54.4315 134.344 53.8385 135.33 53.1804 136.226C52.5124 137.135 51.8158 137.898 51.1882 138.273C50.879 138.458 50.6316 138.521 50.4395 138.506C50.2656 138.493 50.0699 138.41 49.8574 138.149C48.8254 136.885 48.34 134.782 48.1218 132.839C48.0144 131.883 47.9743 130.994 47.9577 130.309C47.9499 129.986 47.9473 129.71 47.9453 129.492L47.9449 129.454L47.9447 129.43C47.9436 129.313 47.9426 129.202 47.9397 129.113C47.9629 129.083 47.9959 129.044 48.0407 128.995C48.1821 128.84 48.3973 128.634 48.6725 128.387C49.2199 127.897 49.9672 127.282 50.7417 126.67C51.5149 126.058 52.309 125.454 52.9471 124.986C53.2664 124.751 53.5444 124.553 53.76 124.406C53.868 124.332 53.9578 124.272 54.0279 124.228C54.0629 124.206 54.0911 124.189 54.1128 124.177C54.1361 124.163 54.1456 124.159 54.1449 124.159C54.278 124.099 55.285 123.724 56.7676 123.179C58.2329 122.641 60.1287 121.951 62.0056 121.268C63.8823 120.586 65.7397 119.913 67.1279 119.41C67.2263 119.375 67.3224 119.34 67.416 119.306ZM55.0542 131.561C55.0542 131.561 55.0545 131.56 55.0552 131.558C55.0546 131.56 55.0543 131.561 55.0542 131.561Z" fill="white" stroke="black"/>
<path d="M60.6096 130.454C60.3714 130.497 60.1765 130.531 60.0257 130.556C60.0197 130.542 60.0136 130.527 60.0073 130.512C59.9007 130.251 59.7504 129.878 59.5758 129.428C59.2263 128.526 58.7816 127.319 58.3972 126.093C58.0109 124.86 57.694 123.633 57.5881 122.683C57.5348 122.204 57.5398 121.834 57.5953 121.58C57.6514 121.324 57.7313 121.292 57.7452 121.287C58.7288 120.911 63.1576 118.937 67.9007 116.647C72.6341 114.361 77.7539 111.726 80.0878 110.026L80.0902 110.024C81.295 109.135 81.9802 108.169 82.2119 106.955C82.4369 105.776 82.2198 104.427 81.782 102.804C81.4931 101.732 81.0948 100.499 80.6351 99.0751C80.3978 98.3403 80.1442 97.5548 79.8808 96.7149C79.1032 94.2348 78.2272 91.2407 77.3969 87.5681C75.7621 80.2808 77.8093 72.4511 80.3052 66.3977C81.5498 63.379 82.8984 60.8202 83.9358 59.0165C84.4543 58.115 84.8945 57.4029 85.2044 56.9172C85.3202 56.7359 85.4177 56.5861 85.4943 56.4699C86.4263 56.7497 87.0863 57.1601 87.5918 57.6845C88.1626 58.2765 88.5676 59.0459 88.9239 60.029C89.2146 60.8314 89.462 61.7428 89.7454 62.7866C89.8116 63.0307 89.8799 63.2821 89.9511 63.5411C90.3238 64.8963 90.771 66.4285 91.4307 68.1208C92.7207 71.4299 95.1185 79.2542 97.3165 87.5232C99.5156 95.7963 101.498 104.455 101.975 109.442C102.113 110.929 101.483 112.501 100.136 114.124C98.79 115.745 96.7664 117.37 94.2283 118.938C89.1549 122.073 82.1181 124.928 74.6229 127.069C69.7701 128.452 66.0198 129.34 63.4854 129.882C62.2181 130.153 61.2548 130.337 60.6096 130.454Z" fill="white" stroke="black"/>
<mask id="path-18-inside-4" fill="white">
<path d="M70.5693 26.6527C70.1734 34.6272 58.2399 42.7148 51.5662 42.3755C44.8925 42.0361 45.5146 30.7248 46.1368 22.7502C46.8155 13.7012 52.5842 11.2127 59.2579 11.552C65.8751 11.8913 70.9652 18.6216 70.5693 26.6527Z"/>
</mask>
<path d="M70.5693 26.6527C70.1734 34.6272 58.2399 42.7148 51.5662 42.3755C44.8925 42.0361 45.5146 30.7248 46.1368 22.7502C46.8155 13.7012 52.5842 11.2127 59.2579 11.552C65.8751 11.8913 70.9652 18.6216 70.5693 26.6527Z" fill="white"/>
<path d="M70.5693 26.6527L71.5681 26.7023L71.5681 26.7019L70.5693 26.6527ZM46.1368 22.7502L47.1337 22.828L47.134 22.825L46.1368 22.7502ZM59.2579 11.552L59.3092 10.5533L59.3087 10.5533L59.2579 11.552ZM69.5705 26.6031C69.3945 30.1488 66.5992 33.9245 62.812 36.8393C59.0311 39.7493 54.6128 41.5291 51.617 41.3767L51.5154 43.3742C55.1934 43.5612 60.0786 41.4668 64.0319 38.4242C67.9788 35.3865 71.3482 31.1311 71.5681 26.7023L69.5705 26.6031ZM51.617 41.3767C50.2829 41.3089 49.3419 40.7161 48.6318 39.7105C47.8898 38.6596 47.3939 37.14 47.1037 35.2725C46.5236 31.5391 46.8213 26.8333 47.1337 22.828L45.1398 22.6725C44.8301 26.6417 44.5057 31.5788 45.1274 35.5796C45.4381 37.5792 45.9991 39.4494 46.998 40.8641C48.0289 42.324 49.5127 43.2723 51.5154 43.3742L51.617 41.3767ZM47.134 22.825C47.4572 18.5153 48.9702 15.937 51.036 14.4402C53.1385 12.9169 55.9861 12.3869 59.2072 12.5507L59.3087 10.5533C55.8561 10.3777 52.4825 10.9224 49.8625 12.8207C47.2057 14.7456 45.495 17.9361 45.1396 22.6755L47.134 22.825ZM59.2067 12.5507C65.1102 12.8534 69.948 18.9448 69.5705 26.6034L71.5681 26.7019C71.9823 18.2984 66.6399 10.9292 59.3092 10.5533L59.2067 12.5507Z" fill="black" mask="url(#path-18-inside-4)"/>
<path d="M0.722636 283.195C5.52997 285.005 18.8208 284.439 21.3093 280.537C23.7978 276.578 26.5126 277.313 26.5126 277.313L26.3429 281.442L29.5666 281.102C29.5666 281.102 31.3765 274.824 30.4716 271.77C30.2453 270.922 29.8494 270.187 29.397 269.508C28.0962 270.243 26.5691 271.374 25.0987 273.241C21.5356 277.709 18.8208 278.953 11.4684 279.519C6.1521 279.915 4.68162 279.462 5.64308 277.313C1.51443 280.48 -1.42652 282.403 0.722636 283.195Z" fill="#64ACC2"/>
<path d="M113.266 272.335C114.679 271.883 117.111 275.219 117.111 275.219L119.034 273.805C119.034 273.805 117.338 269.507 116.433 267.584C115.358 265.379 114.17 265.548 113.096 264.643C112.474 265.152 111.908 265.831 111.399 266.623C108.515 271.147 108.798 276.181 106.139 279.065C103.934 281.441 99.0697 282.515 97.6558 279.178C96.6378 280.366 95.6763 281.328 94.6583 281.95C90.1337 284.551 93.1313 286.078 94.319 286.135C99.5788 286.361 104.216 286.474 109.985 281.95C111.003 281.045 111.852 272.787 113.266 272.335Z" fill="#64ACC2"/>
<path d="M77.1887 133.319C77.4149 129.756 96.8704 120.989 100.038 122.177C103.205 123.365 107.955 137.674 109.765 143.442C111.575 149.211 91.2713 154.98 83.1837 154.98C75.0961 154.98 77.1887 133.319 77.1887 133.319Z" fill="#64ACC2"/>
<path d="M80.9755 151.021C78.3739 143.669 76.3944 132.131 80.1837 133.545C83.973 134.959 86.1222 143.669 89.1197 144.065C92.1172 144.46 104.616 140.106 104.616 140.106C104.616 140.106 90.9295 146.44 88.5541 146.27C86.1787 146.044 86.1787 146.044 86.1787 146.044C86.1787 146.044 88.3844 148.815 87.3664 151.191C86.3484 153.566 80.9755 151.021 80.9755 151.021Z" fill="#9BD5E8"/>
<path d="M95.0525 138.466C93.8648 136.486 98.6156 134.507 99.6336 135.468C100.652 136.486 101.613 137.844 99.6336 138.635C97.6541 139.427 95.8443 139.427 95.8443 139.427L95.0525 138.466Z" fill="#9BD5E8"/>
<path d="M81.4858 107.359C89.9128 107.529 97.9438 122.912 97.9438 122.912L93.4758 123.817C93.4758 123.817 89.7431 113.806 85.4448 111.261C81.1465 108.773 79.8457 109.565 79.8457 109.565L81.4858 107.359Z" fill="#64ACC2"/>
<path d="M78.0969 110.583C77.6445 110.074 78.2666 108.774 80.0764 108.604C81.8863 108.434 86.5239 120.424 84.5444 130.095C84.092 132.245 81.4904 131.509 81.4904 131.509C81.4904 131.509 83.4699 116.805 78.0969 110.583Z" fill="#64ACC2"/>
<path d="M100.09 122.29C107.895 125.175 110.949 135.92 109.139 137.278C107.329 138.692 102.974 140.049 102.974 140.049L100.09 122.29Z" fill="#64ACC2"/>
<path d="M48.1731 12.5695C48.0034 26.539 65.8753 29.9324 69.3253 28.1226C72.7187 26.3128 73.9629 40.1127 73.9629 40.1127L74.6982 10.0244C74.6982 10.0244 66.4409 5.72613 65.5925 6.06547C64.6311 6.51793 48.1731 12.5695 48.1731 12.5695Z" fill="black"/>
<path d="M68.2022 28.5196C68.2022 28.5196 73.4054 24.2213 73.5751 26.936C73.7448 29.5942 71.4259 34.1753 69.2767 33.6662C67.1276 33.1572 66.2227 31.9695 66.2227 31.9695L68.2022 28.5196Z" fill="white"/>
<path d="M70.7971 31.4034C70.7971 32.0821 70.2315 32.6477 69.5528 32.6477C68.8742 32.6477 68.3086 32.0821 68.3086 31.4034C68.3086 30.7247 68.8742 30.1592 69.5528 30.1592C70.2315 30.1592 70.7971 30.7247 70.7971 31.4034Z" fill="black"/>
<path d="M58.5865 52.4422C58.3603 52.3857 58.1341 52.4422 57.9644 52.6119C57.7948 52.725 57.6251 52.8947 57.512 53.1774C57.5685 52.8947 57.512 52.6684 57.4554 52.4422C57.3989 52.3291 57.3423 52.2725 57.2858 52.1594C57.2292 52.1029 57.2292 52.1029 57.1726 52.0463C57.1161 51.9897 57.1161 51.9897 57.0595 51.9897C56.8898 51.8766 56.7202 51.8766 56.5505 51.9332C56.3243 51.9897 56.1546 52.0463 55.9284 52.1594C56.0415 51.9332 56.1546 51.707 56.1546 51.5373C56.2112 51.3676 56.1546 51.198 56.0981 51.0283C55.985 50.8586 55.8718 50.7455 55.6456 50.6324C55.4194 50.5193 55.1366 50.4627 54.8538 50.5193C54.571 50.5758 54.3448 50.7455 54.1752 51.0283C54.062 51.3111 54.0055 51.6504 54.2317 51.9897C54.4014 52.2725 54.6276 52.4988 54.9104 52.5553C55.1932 52.6119 55.4194 52.6119 55.6456 52.4422C55.5325 52.6684 55.4759 52.8947 55.5325 53.1774C55.5891 53.4037 55.8153 53.6865 56.0415 53.7996C56.0981 53.8561 56.2112 53.8561 56.2677 53.9127C56.3243 53.9127 56.4374 53.9692 56.494 53.9692C56.6636 53.9692 56.7767 53.9692 56.8899 53.9127C57.1161 53.8561 57.3423 53.6299 57.4554 53.4037C57.3989 53.6865 57.4554 53.9127 57.6251 54.1389C57.7948 54.3651 58.021 54.4782 58.3038 54.5348C58.4734 54.5348 58.6431 54.5348 58.7562 54.5348C58.8693 54.4782 59.039 54.4217 59.1521 54.3651C59.3783 54.1955 59.4915 53.9127 59.4915 53.6299C59.4915 53.3471 59.4349 53.0643 59.2652 52.8381C59.2087 52.725 59.0956 52.6684 58.9825 52.5553C58.8128 52.4988 58.6997 52.4422 58.5865 52.4422Z" fill="black"/>
<path d="M64.1843 51.9901C63.6752 52.1032 63.3925 52.5556 63.3925 53.1212C63.2228 52.6122 62.7703 52.2728 62.2613 52.386C61.8089 52.4425 61.4695 52.8384 61.413 53.3474C61.3564 53.1212 61.1868 52.895 61.0171 52.7818C60.8474 52.6687 60.6212 52.5556 60.395 52.5556C60.1122 52.5556 59.886 52.6687 59.7163 52.895C59.5466 53.0646 59.4335 53.3474 59.377 53.6302C59.377 53.913 59.4901 54.1958 59.6597 54.422C59.8294 54.6482 60.1122 54.7613 60.4515 54.7613C60.7343 54.7613 60.9605 54.6482 61.1302 54.4786C61.2999 54.3089 61.413 54.0827 61.4695 53.8564C61.6392 54.3089 62.0917 54.6482 62.6007 54.5351C63.1662 54.4786 63.5056 53.9695 63.449 53.4605C63.6187 53.9695 64.1277 54.2523 64.6367 54.1392C65.2023 54.0261 65.5416 53.404 65.3719 52.8384C65.2588 52.2163 64.6933 51.8769 64.1843 51.9901Z" fill="black"/>
<path d="M69.7818 50.2369C69.3293 50.4066 69.0466 50.9156 69.1597 51.4246C68.9334 50.9722 68.4244 50.746 67.9154 50.8591C67.4629 51.0287 67.1801 51.4812 67.2367 51.9337C67.0105 51.5378 66.5015 51.3115 66.049 51.4246C65.54 51.5943 65.2006 52.1599 65.3703 52.7255C65.54 53.291 66.1056 53.6304 66.6711 53.4607C67.1236 53.291 67.4629 52.8386 67.4064 52.3861C67.6326 52.782 68.1416 53.0082 68.5941 52.8386C69.1031 52.6689 69.3859 52.1599 69.2728 51.6509C69.499 52.1033 70.0646 52.3861 70.5736 52.1599C70.8564 52.0468 71.0261 51.8771 71.1392 51.5943C71.2523 51.3681 71.2523 51.0288 71.1392 50.746C71.0261 50.4632 70.7998 50.2935 70.5736 50.1804C70.3474 50.1804 70.0646 50.1238 69.7818 50.2369Z" fill="black"/>
<path d="M74.5962 47.5788C74.483 47.6919 74.4265 47.9181 74.4265 48.1443C74.4265 48.3706 74.483 48.6533 74.5962 48.8796C74.4265 48.7099 74.2003 48.5968 73.974 48.5402C73.7478 48.4837 73.5216 48.5402 73.2954 48.6533C73.1257 48.7665 72.956 48.9361 72.8995 49.1624C72.8429 49.3886 72.7864 49.6148 72.8429 49.841C72.6732 49.6714 72.5036 49.5017 72.2773 49.4451C72.0511 49.3886 71.8249 49.3886 71.5987 49.5017C71.0896 49.7279 70.8634 50.3501 71.0896 50.8591C71.3159 51.4246 71.938 51.7074 72.447 51.4246C72.6732 51.3115 72.8429 51.1418 72.956 50.9156C73.0691 50.6894 73.0691 50.4632 73.0126 50.2369C73.1822 50.4066 73.4085 50.5763 73.6347 50.5763C73.8609 50.6328 74.1437 50.5763 74.3699 50.4632C74.5962 50.2935 74.7658 50.0673 74.8224 49.841C74.879 49.6148 74.879 49.332 74.7093 49.1058C74.879 49.2755 75.1617 49.3886 75.388 49.3886C75.6708 49.3886 75.9535 49.2755 76.1798 48.9927C76.406 48.7099 76.5191 48.314 76.4625 47.9747C76.406 47.6353 76.1798 47.4657 75.897 47.4091C75.6142 47.3525 75.3314 47.3525 75.1052 47.3525C74.879 47.4091 74.7658 47.4657 74.5962 47.5788Z" fill="black"/>
</svg>
